/* XPM */
static char *enemy_2[] = {
/* columns rows colors chars-per-pixel */
"64 64 26 1 ",
"  c black",
". c #070606",
"X c #060608",
"o c #0B0A0A",
"O c #0F0D0D",
"+ c #131111",
"@ c #141013",
"# c #221C1A",
"$ c #3B1725",
"% c #322B28",
"& c #422433",
"* c #5B3138",
"= c #71413B",
"- c #4A5462",
"; c #8E5252",
": c #BB7547",
"> c #BA756A",
", c #E86A73",
"< c #DBA463",
"1 c #D6F264",
"2 c #6D758D",
"3 c #C7B08B",
"4 c #F5A097",
"5 c #E4D2AA",
"6 c #B3B9D1",
"7 c #DAE0EA",
/* pixels */
"      ..ooOOOOOOooo..  .ooOo. .     .oo..oooooo...              ",
" ..... ..oooooooOooo. ..oOoo.       ..o.ooo.oooo..... ......... ",
" .ooo..o.oo....ooooo..ooooo..      ...o.oo.......ooo. ..oooooo. ",
" .oooo.o....oo...oo..ooOoo..  .....XXXXXXXXooooooooo.  ..ooOo.. ",
"  .oo..oo..oooo...o...ooo..  ..ooXX>>>>>>;;XXXOOooo..   ..ooo.  ",
"  ...  ..o..oo..o.o. .....   ..oX>>;;;;;;;;;;*XXo...  .   ....  ",
" .     .o.o....o....          .X>;;;;;;;;;;;;;**X.  .....       ",
" .... ..oo.   ... .....    .. X>;;;;;;;;;;;;;;;*X  ..ooooo.  ...",
"..oo. .oooo.     ..ooo.   ....X;;;;;;;;;;;;;;;;**X .ooOo... ....",
"o.o.  .oooo.   ...ooo..   .ooX**;;;;;;;;;;;;;;**&X..oOoo.o..oo.o",
"o..o. ...oo.   ..oooo.    .oOX***;;;;******;**&&**XoooX..o.ooo.o",
"o...     ..  .. ...oo.   .ooX>X&**;**X>>;&&**&****XoXX;Xo..oOo.o",
"..          ..o.. ..o.   .oX>;;X&**&X>;;;;;X&**&**XX*X;X.oooOo.o",
".  ..    ....ooo.. ........X&*;;;&&;;;**&&;;X&&*&X**X,;X.oOOOo..",
"  ..o...   .oOOOo.    .oooooX$&*X;X**&&XXX*;;X**X*XX,4X .ooooo..",
"  .oooo..  .oOooo..   .oOOOX&XX&X*X&&XXX$&X*X;**;X,,4;X ..ooo.. ",
"...oooo..  .oo.....  ..oO+X>&X1X;X;XX$X1X&**;;**;X444X   ..... .",
"oo....o.   .....     .ooOOX;*&X>;;;$&*&X*;;;;>*;;*X4;X       ...",
"oo.  ...       .... ..oooooX;X>;;*&;*&*;;;;;>*$;*&*;X..      .oo",
"oo.           ..oo.   .....X;X**&$XX&*;;;;;>*$**&X&*Xoo..... ..o",
"........     ..ooo.      X  X;X&XX&&X&*;X;>*$&;*X&XX*Xooooo.  .o",
". ..ooo..    .oooo.  ...X5X.X;&X&*;;&X&X5X;$&*;*X&***>XOOOo.  ..",
". ..oooo... ....... ..ooX5XX;*;*;;*;*X$X5X*&*;;;&X&*;>Xoooo. .oo",
".  ........        ..oooX53X;&;;;&;;;*X35X;*;;;;*X&*;;>X.... .oo",
"..                 .ooooX533X$;;;$;;*X355X;;;;;;*&X*;;>X     .oo",
"o.    .......     ...oo.X3333XXXXX;&X3355X;;;;;**&X**;;>X   .ooo",
"o.   ..ooooo..   .. ....XXXXX>>>>>XX5335X;;;;**&&X***;;;>X .ooOo",
".  ...ooOoooo..  ...   X>;**;;;;;;;>XX33X*X***&XX&&**;;;;>X..oOo",
".  .oooOOo....   .o..  X;*&X**XXXX*;;>XX*;*X*&X&&*;&*;;;;;>X.ooo",
". ..oOoooo.      ....  X*&X&**&&&&$**;;;;*&*&X&***;&**;;;;>X.oo.",
"  .ooOo....  ...      . XX&********XX&*;*&X&X&***;;&**;;;;;>Xoo.",
"  .ooOo.    .....   ...X;X&*********&XX*&X&X&***;;;*&**;;;;>X.o.",
"  ..ooo..  ..ooo.  ..ooX;X$&**********&XX&$X**;;;;;*&&**;;;>X.. ",
".  ..ooo.  .ooOo. ..oo.X**X&*********&&&&$X**;;;;;;**X&&**;;X   ",
"o.  .....  .oOOo. ..ooX>X*X$$&*&&&*&&&$$$$X*;;;;;;**&&XXXXXX>X .",
"oo.        .ooo....oo.X;*X;XX$$&X&$$$$XXXX;;;;;;;;*&XX&**;;;>X .",
".oo. ...   ..... ..o.X>;*X*;;XXX&XXXXX***;;;;;;;;*&X&&X&*;;;>X .",
".o. ..o..        ....X;;*X**;;;;**;;;;;;;;;;;;;;**&X&&X&**;;>X. ",
".. ..ooo.. .....    X>;*&X&**;;;**;;;;;;;;;;;;;**&X&&X.X&*;;>X. ",
"   .ooOoo.  .oo..  .X;;*&X&***;;;*;;;;;;;;;;;***&&X&X .X&**;;>X ",
"   .ooooo.  ..oo. .X>;*&&&X&&******;;;;;;;;***&&&X&&X .X&**;;>X ",
"    ......    ... .X;;*&&X XX&&&*****;;****&&&&XX&&&X .oX&**;>X ",
"      ..  ..... XXX>;*&&X..X*XXX&*&*****&&&&XXX&&&&&X...X&*;;X. ",
".. ..   ..ooXXXX--X;*&&X=X.X;***XXX&XXXXXXXX&&&**&&&X. X&*;;;X. ",
".o....  XXXX-----22X&XX==X.XX;;;****************&&XXX. X&*;;X.  ",
"XXXXXXXX--------222XX..X=X X@X;;;;;;;;;*******&&XX@XXXXX*;;;XX  ",
"X-------------22227X  ..X  X@@X;;;;;;;;;;;****XXXXX----X*;;X==X.",
"X---------222222276X       X@#@XXX;;;;;;;;;XXXX-------22X;;X==X.",
"X----22222222227766X  .....X@##@@@XXXXXXXXX----------222X;X.X=Xo",
"X-2222222277777666X.  .oooo.X%%####@@X-------------22227XX  .Xoo",
"oX2222777766666XXX..  ..ooooX%%%%%###X----------22222276X.  ...o",
".X77776666XXXXX ..     ..oOoX%%%%%%##X------222222227766Xo.   ..",
"ooX666XXXXo....   ....  .oooX%%%%%##@X-2222222277777666XOo.   .o",
"...XXXoo.......  ..oo.. ...oX######@@@X2222777666666XXXOoo.   .o",
".o..ooOo..ooo...  .ooo..  .oXXXXX@@@@XX77776667XXXXX.oooo.. ....",
".oo..oOoo.oOoo... .ooo..  ..X<<::XX@X.oX666XXXX::<<X...... ..oo.",
"..oo.oooooooooo.. .oo..    .XXXXX:=XX...XXXX=::XXXXX         .oo",
"o......ooOoo....  .... .....X;;;*XX=X   .ooX=XX;*&&X......... .o",
"...ooo..ooo..     .. ...ooooX;;;*&&Xo.  .oOOX;;;*&&X.ooooooo.. .",
" .ooOoo.....    .   ..oooOOo.X;;*&&Xo.. .oooX;;;*&&X.oOOOOOoo. .",
" ..oOoo.     ....  ..ooOooo..X;**&&X..  ....X;;;*&X .oOOOoooo.  ",
"  .ooo..  ....oo.. ..oooo...oX;*&&X.    .ooo.X;**&X.oooooo....  ",
"  .........oooooo.  ......oooX;*&&X  .....oooX;*&&X........     ",
"      .oooooOOOOo...   ..ooo.XXXXX   .oo..oooXXXXX              "
};
