/* XPM */
static char *enemy_0[] = {
/* columns rows colors chars-per-pixel */
"64 64 22 1 ",
"  c #060608",
". c #141013",
"X c #221C1A",
"o c #3B1725",
"O c #322B28",
"+ c #422433",
"@ c #5B3138",
"# c #71413B",
"$ c #4A5462",
"% c #8E5252",
"& c #BB7547",
"* c #BA756A",
"= c #E86A73",
"- c #DBA463",
"; c #D6F264",
": c #6D758D",
"> c #C7B08B",
", c #F5A097",
"< c #E4D2AA",
"1 c #B3B9D1",
"2 c #DAE0EA",
"3 c None",
/* pixels */
"3333333333333333333333333333333333333333333333333333333333333333",
"3333333333333333333333333333333333333333333333333333333333333333",
"3333333333333333333333333333333333333333333333333333333333333333",
"333333333333333333333        33333333333333333333333333333333333",
"333333333333333333   %%******  333333333333333333333333333333333",
"3333333333333333  @%%%%%%%%%%** 33333333333333333333333333333333",
"333333333333333 @@%%%%%%%%%%%%%* 3333333333333333333333333333333",
"333333333333333 @%%%%%%%%%%%%%%%* 333333333333333333333333333333",
"33333333333333 @@%%%%%%%%%%%%%%%% 333333333333333333333333333333",
"33333333333333 +@@%%%%%%%%%%%%%%@@ 33333333333333333333333333333",
"333333333 333 @@++@@%@@@@@@%%%%@@@ 33333333333333333333333333333",
"33333333 %  3 @@@@+@@++%** @@%@@+ * 3333333333333333333333333333",
"33333333 % @  @@+@@+ %%%%%* +@@+ %%* 333333333333333333333333333",
"33333333 %= @@ +@++ %%++@@%%%++%%%@+ 333333333333333333333333333",
"333333333 ,=  @ @@ %%@   ++@@ % @+o 3333333333333333333333333333",
"333333333 %,== %@@% @ +o   ++ @ +  + 333333333333333333333333333",
"3333333333 ,,, %@@%%@@+ ; o  % % ; +* 33333333333333333333333333",
"3333333333 %, @%%@*%%%%@ +@+o%%%* +@% 33333333333333333333333333",
"33333333333 %@+@%o@*%%%%%@+@%+@%%* % 333333333333333333333333333",
"33333333333 @+ +@@o@*%%%%%@+  o+@@ % 333333333333333333333333333",
"3333333333 @  + @%+o@*% %@+ ++  + % 33 3333333333333333333333333",
"333333333 *@@@+ @%@+o% < + +%%@+ +% 3 < 333333333333333333333333",
"333333333 *%@+ +%%%@+@ < o @%@%%@%@%  < 333333333333333333333333",
"33333333 *%%@+ @%%%%@% <> @%%%+%%%+% >< 333333333333333333333333",
"33333333 *%%@ +@%%%%%% <<> @%%o%%%o >>< 333333333333333333333333",
"3333333 *%%@@ +@@%%%%% <<>> +%     >>>> 333333333333333333333333",
"333333 *%%%@@@ ++@@%%%% <>><  *****     333333333333333333333333",
"33333 *%%%%@@++  +@@@ @ >>  *%%%%%%%@@%* 33333333333333333333333",
"3333 *%%%%%@+%@++ +@ @%@  *%%@    @@ +@% 33333333333333333333333",
"3333 *%%%%@@+%@@@+ +@+@%%%%@@o++++@@+ +@ 33333333333333333333333",
"333 *%%%%%@@+%%@@@+ + +@%@+  @@@@@@@@+  333333333333333333333333",
"333 *%%%%@@+@%%%@@@+ + +@  +@@@@@@@@@+ % 33333333333333333333333",
"333 *%%%@@++@%%%%%@@ o+  +@@@@@@@@@@+o % 33333333333333333333333",
"333 %%@@++ @@%%%%%%@@ o++++@@@@@@@@@+ @@ 33333333333333333333333",
"33 *      ++@@%%%%%%@ oooo+++@+++@+oo @ * 3333333333333333333333",
"33 *%%%@@+  +@%%%%%%%%    oooo+ +oo  % @% 3333333333333333333333",
"33 *%%%@+ ++ +@%%%%%%%%@@@     +   %%@ @%* 333333333333333333333",
"33 *%%@@+ ++ +@@%%%%%%%%%%%%%%@@%%%%@@ @%% 333333333333333333333",
"33 *%%@+ 3 ++ +@@%%%%%%%%%%%%%@@%%%@@+ +@%* 33333333333333333333",
"3 *%%@@+ 33 + ++@@@%%%%%%%%%%%@%%%@@@+ +@%% 33333333333333333333",
"3 *%%@@+ 33 ++ +++@@@%%%%%%%%@@@@@@++ +++@%* 3333333333333333333",
"3 *%@@+ 333 +++  ++++@@@@%%@@@@@+++  3 ++@%% 3333333333333333333",
"33 %%@+ 333 +++++   ++++@@@@@+@+   @ 33 ++@%*   3333333333333333",
"33 %%%@+ 33 +++@@+++        +   @@@% 3 # ++@% $$    333333333333",
"333 %%@+ 33   ++@@@@@@@@@@@@@@@@%%%  3 ##  + ::$$$$$    33333333",
"33  %%%@     .  ++@@@@@@@%%%%%%%%% . 3 # 33  :::$$$$$$$$        ",
"3 ## %%@ $$$$     @@@@%%%%%%%%%%% .. 33 3333 2::::$$$$$$$$$$$$$ ",
"3 ## %% ::$$$$$$$    %%%%%%%%%   .X. 3333333 12:::::::$$$$$$$$$ ",
"3 # 3 % :::$$$$$$$$$$         ...XX. 3333333 1122::::::::::$$$$ ",
"33 333  2::::$$$$$$$$$$$$$ ..XXXXOO 333333333 11122222::::::::$ ",
"3333333 12::::::$$$$$$$$$$ XXXOOOOO 3333333333   111112222:::: 3",
"3333333 1122::::::::$$$$$$ XXOOOOOO 3333333333333     11112222 3",
"33333333 11122222::::::::$ .XXOOOOO 333333333333333333    111 33",
"333333333   111111222:::: ...XXXXXX 3333333333333333333333   333",
"333333333333     21112222  ....     3333333333333333333333333333",
"333333333333 --&&    111 33 .  &&-- 3333333333333333333333333333",
"333333333333     &&#    333  #&     3333333333333333333333333333",
"333333333333 ++@%  # 333333 #  @%%% 3333333333333333333333333333",
"333333333333 ++@%%% 33333333 ++@%%% 3333333333333333333333333333",
"333333333333 ++@%%% 33333333 ++@%% 33333333333333333333333333333",
"3333333333333 +@%%% 33333333 ++@@% 33333333333333333333333333333",
"3333333333333 +@@% 3333333333 ++@% 33333333333333333333333333333",
"3333333333333 ++@% 3333333333 ++@% 33333333333333333333333333333",
"33333333333333     33333333333     33333333333333333333333333333"
};
