/* XPM */
static char *enemy_11[] = {
/* columns rows colors chars-per-pixel */
"64 64 26 1 ",
"  c black",
". c #070606",
"X c #060608",
"o c #0B0A0A",
"O c #0F0D0D",
"+ c #131111",
"@ c #141013",
"# c #221C1A",
"$ c #3B1725",
"% c #322B28",
"& c #422433",
"* c #5B3138",
"= c #71413B",
"- c #4A5462",
"; c #8E5252",
": c #BB7547",
"> c #BA756A",
", c #E86A73",
"< c #DBA463",
"1 c #D6F264",
"2 c #6D758D",
"3 c #C7B08B",
"4 c #F5A097",
"5 c #E4D2AA",
"6 c #B3B9D1",
"7 c #DAE0EA",
/* pixels */
"      ..ooOOOOOOooo..  .ooOo. .     .oo..oooooo...              ",
" ..... ..oooooooOooo. ..oOoo.       ..o.ooo.oooo..... ......... ",
" .ooo..o.oo....ooooo..ooooo..      ...o.oo.......ooo. ..oooooo. ",
" .oooo.o....oo...oo..XXXXXXXX ......o......ooooooooo.  ..ooOo.. ",
"  .oo..oo..oooo...XXX;;>>>>>>XXoooo.ooo.o..oOOOOooo..   ..ooo.  ",
"  ...  ..o..oo..XX*;;;;;;;;;;>>XoOo..oo.o.ooooooo...  .   ....  ",
" .     .o.o....X**;;;;;;;;;;;;;>Xooo.oooo..o......  .....       ",
" .... ..oo.   .X*;;;;;;;;;;;;;;;>X...ooo.....      ..ooooo.  ...",
"..oo. .oooo.  X**;;;;;;;;;;;;;;;;X  .....  .  ...  .ooOo... ....",
"o.o.  .oooo.  X&**;;;;;;;;;;;;;;**X . ..     ..o. ..oOoo.o..oo.o",
"o..o. ...Xo. X**&&**;******;;;;***X      .....oo...oooo..o.ooo.o",
"o...    X;XX X****&**&&;>>X**;**&X>X ... .ooooooo..ooo..o..oOo.o",
"..      X;X*XX**&**&X;;;;;>X&**&X;;>X.o. .oOOOOOo...oo. .oooOo.o",
".  ..   X;,X**X&*&&X;;&&**;;;&&;;;*&Xoo. .ooOOOoo. .oo. .oOOOo..",
"  ..o... X4,XX*X**X;;*XXX&&**X;X*&$X.oo. ..oOOoo.  .... .ooooo..",
"  .oooo..X;4,,X;**;X*X&$XXX&&X*X&XX&Xoo.. .oOOo..       ..ooo.. ",
"...oooo.. X444X;**;;**&X1X$XX;X;X1X&>Xoo. .oOoo.         ..... .",
"oo....o.  X;4X*;;*>;;;;*X&*&$;;;>X&*;XOo. .ooo..             ...",
"oo.  ...   X;*&*;$*>;;;;;*&*;&*;;>X;XOoo. .....   .....      .oo",
"oo.        X*&X&**$*>;;;;;*&XX$&**X;XOo..        ..oooo..... ..o",
"........  X*XX&X*;&$*>;X;*&X&&XX&X;XOoX.  .....  .ooOOooooo.  .o",
". ..ooo..X>***&X*;*&$;X5X&X&;;*&X&;XoX5X  .ooo.. ..ooOOOOOo.  ..",
". ..oooo.X>;*&X&;;;*&*X5X$X*;*;;*;*;XX5X  .oOo..  ..ooooooo. .oo",
".  .....X>;;*&X*;;;;*;X53X*;;;&;;;&;X35X..ooOo.     ........ .oo",
"..      X>;;*X&*;;;;;;X553X*;;$;;;$X335X.ooOOo.  ...         .oo",
"o.    .X>;;**X&**;;;;;X5533X&;XXXXX3333XooOOOo.  .o.        .ooo",
"o.   .X>;;;***X&&**;;;;X5335XX>>>>>XXXXXOOOOOo.  .o. ...   .ooOo",
".  ..X>;;;;**&&XX&***X*X33XX>;;;;;;;**;>Xooooo.  .o...o..  ..oOo",
".  .X>;;;;;*&;*&&X&*X*;*XX>;;*XXXX**X&*;Xoo.oo.  ...ooooo.  .ooo",
". ..X>;;;;**&;***&X&*&*;;;;**$&&&&**&X&*X......   .ooOOOo.. .oo.",
"  .X>;;;;;**&;;***&X&X&*;*&XX********&XX         .ooOOOOoo. .oo.",
"  .X>;;;;**&*;;;***&X&X&*XX&*********&X;X    ... .oOOOOoo..  .o.",
"  .X>;;;**&&*;;;;;**X$&XX&**********&$X;X   ..o. .oOOooo..   .. ",
".  X;;**&&X**;;;;;;**X$&&&&*********&X**X  ..oo. .oooo...       ",
"o.X>XXXXXX&&**;;;;;;*X$$$$&&&*&&&*&$$X*X>X..oo.. ......    ... .",
"ooX>;;;**&XX&*;;;;;;;;XXXX$$$$&X&$$XX;X*;X.o...           ..o  .",
".oX>;;;*&X&&X&*;;;;;;;;***XXXXX&XXX;;*X*;>X........     ..ooo. .",
".oX>;;**&X&&X&**;;;;;;;;;;;;;;**;;;;**X*;;X ..oooo.   ...ooOo.. ",
"..X>;;*&X.X&&X&**;;;;;;;;;;;;;**;;;**&X&*;>X.ooOOo..  .oooOOoo. ",
" X>;;**&X. X&X&&***;;;;;;;;;;;*;;;***&X&*;;XooOOOoo.  .oOOOOOo. ",
" X>;;**&X. X&&X&&&***;;;;;;;;******&&X&&&*;>XooOOOo.. .oOO++Oo. ",
" X>;**&X.. X&&&XX&&&&****;;*****&&&XX X&&*;;X.oOOOoo. .ooOOOOo. ",
"  X;;*&X  .X&&&&&XXX&&&&*****&*&XXX*X. X&&*;>XXXoooo....oooOoo. ",
"..X;;;*&X.oX&&&**&&&XXXXXXXX&XXX***;X.X=X&&*;X--XXXXo. ...ooo.. ",
".o.X;;*&XooXXX&&****************;;;XX.X==XX&X22-----XXXX .....  ",
".oXX;;;*XXXXX@XX&&*******;;;;;;;;;X@X X=XooXX222--------XXXXXXXX",
".X==X;;*X----XXXXX****;;;;;;;;;;;X@@X  X..ooX72222-------------X",
".X==X;;X22-------XXXX;;;;;;;;;XXX@#@X    ...X672222222---------X",
".X=X.X;X222----------XXXXXXXXX@@@##@X ...  .X66772222222222----X",
"o.X ..XX72222-------------X@@####%%X...o..  .X6667777722222222-X",
"o..    X67222222----------X###%%%%%X.oooo..  .XXX6666677772222Xo",
".o. ...X667722222222------X##%%%%%%XooOooo.      XXXXX66667777X.",
"oo...o..X6667777722222222-X@##%%%%%XoOOo..       .oOOOXXXX666X.o",
"...ooooo.XXX6666667772222X@@@######XoOoo. .....  .ooooOOooXXX .o",
".o..ooOo..ooXXXXX76667777XX@@@@XXXXXooo.. .oooo.. ...oooo.. ....",
".oo..oOoo.oOX<<::XXXX666X .X@XX::<<X..o. .ooOOoo.   ...... ..oo.",
"..oo.oooooooXXXXX::=XXXX   XX=:XXXXX ... .oOOOOo.            .oo",
"o......ooOooX&&*;XX=X. ....X=XX*;;;X.   .ooO+OOo.   ......... .o",
"...ooo..ooo.X&&*;;;X ...ooooX&&*;;;Xo.  .oOOOOoo.   .ooooooo.. .",
" .ooOoo.....X&&*;;;X..oooOOoX&&*;;Xoo.. .oooooo.    .oOOOOOoo. .",
" ..oOoo.     X&*;;;X.ooOooo.X&&**;X...  ........    .oOOOoooo.  ",
"  .ooo..  ...X&**;X..oooo...oX&&*;X.    .ooo..     .oooooo....  ",
"  .........ooX&&*;X ......oooX&&*;X  .....ooo..    ........     ",
"      .oooooOOXXXXX.   ..ooo..XXXXX  .oo..oooo..                "
};
