/* XPM */
static char * player_1_xpm[] = {
"64 64 26 1",
" 	c #000000",
".	c #070606",
"+	c #0B0A0A",
"@	c #0F0D0D",
"#	c #FFEF76",
"$	c #FFB269",
"%	c #F16A62",
"&	c #B94B57",
"*	c #FFC4A1",
"=	c #2E3B60",
"-	c #FF7705",
";	c #E04F23",
">	c #A7322B",
",	c #48131D",
"'	c #007F46",
")	c #005551",
"!	c #002E3C",
"~	c #60719F",
"{	c #006889",
"]	c #131111",
"^	c #222243",
"/	c #061214",
"(	c #A2ABC6",
"_	c #672C3B",
":	c #471F30",
"<	c #2A1023",
"      ..++@@@@@@+++..  .++@+. .     .++..++++++...              ",
" ..... ..+++++++@+++. ..+@++.       ..+.+++.++++..... ......... ",
" .+++..+.++....+++++..+++++..      ...+.++.......+++. ..++++++. ",
" .++++.+....++...++..++@++..  ......+......+++++++++.  ..++@+.. ",
"  .++..++..++++...+...+++..  ..++++.+++.+..+@@@@+++..   ..+++.  ",
"  ...  ..+..++..+.+. .....   ..++@+..++.+.+++++++...  .   ....  ",
" .     .+.+....+....          ..++++.++++..+......  .....       ",
" .... ..++.   ... .....    ..  ......+++.....      ..+++++.  ...",
"..++. .++++.     ..+++.   .....     .....  .  ...  .++@+... ....",
"+.+.  .++++.   ...+++..   .+++        ..     ..+. ..+@++.+..++.+",
"+..+. ...++.   ..++++.    .   #######    .....++...++++..+.+++.+",
"+...     ..  .. ...++.   . ###$$$$$#$##  .+++++++..+++..+..+@+.+",
"..          ..+.. ..+.    #$$$#$$$$$#$$# .+@@@@@+...++. .+++@+.+",
".  ..    ....+++.. ..... #$$$$$#$$$$#$$$# ++@@@++. .++. .+@@@+..",
"  ..+...   .+@@@+.    . %%$$$$$#     $$$# .+@@++.  .... .+++++..",
"  .++++..  .+@+++..   .  &%%%   ***=*  $$# +@@+..       ..+++.. ",
"...++++..  .++.....  . ##  & **===*=*** $# +@++.         ..... .",
"++....+.   .....     . $$## *  =**=****  # +++..             ...",
"++.  ...       .... . %$$$ * %$  *=**  $$ # ...   .....      .++",
"++.           ..++.   %$$$ *   $# ** %#   #      ..++++..... ..+",
"........     ..+++.   &%$ **=*=   **   ** $ ...  .++@@+++++.  .+",
". ..+++..    .++++.  . %% *=* *=**% *** * $  +.. ..++@@@@@+.  ..",
". ..++++... ....... .. %& %=* *=**% *** * $ - ..  ..+++++++. .++",
".  ........        ..+ & % *=*=***% *****  ;- .     ........ .++",
"..                 .+++ %$ %***       *** >;;-   ...         .++",
"+.    .......     ...++. %$ %  $$$$###  * >>;--  .+.        .+++",
"+.   ..+++++..   ..      &%$ $$$$$$$$###  >>;;-  .+. ...   .++@+",
".  ...++@++++..  .. **** %%$$$$$$$$$$$### ,>>;;- .+...+..  ..+@+",
".  .+++@@+....   .+ ***** %$%$$$    $$$## ,>>>;;- ..+++++.  .+++",
". ..+@++++.      . ****** &%%$$$$%%$$$$## ,>>>>;- .++@@@+.. .++.",
"  .++@+....  ...   ****** &%&$$$$$$$$$$# > ,>>>>;- +@@@@++. .++.",
"  .++@+.    .....  ****%** & %$%$$$$$$$# > ,>>>>>; @@@@++..  .+.",
"  ..+++..  ..+++.  ***%&** & &%%$$%$$$# >> ,,>>,, +@@+++..   .. ",
".  ..+++.  .++@+.  **  %***  &% %$%$ $# >>>  ,,  .++++...       ",
"+.  .....  .+@@+. >  + %***** & %%%$ # >>>, +  , ......    ... .",
"++.        .+++.. >, . %%*****  &%%%  >>>,  . ,>          ..+  .",
".++. ...   .....  >, . &%******* &% >>>,, ' . ,> ..     ..+++. .",
".+. ..+..         ;>   *&&%**      >>,,  )' . >; +.   ...++@+.. ",
".. ..+++.. . >>>  ;>         >    >>   !!)' . >; +..  .+++@@++. ",
"   .++@++.  .   > ;> >        ~{{{  !!!!!)' + >; ++.  .+@@@@@+. ",
"   .+++++.  ..++  ;>  >>>>>>> =~~{ !!!!!!)' + >; @+.. .+@@]]@+. ",
"    ......    ...   +@        ^=~{ !!!!!!)' ..  @@++. .++@@@@+. ",
"      ..  .....    .++ )!!!!! ^=~{ !!!!!!)'  .++++++....+++@++. ",
".. ..   ..++++..   ..+ )!!!!!! =~{ !!!!!!)' .   ..+++. ...+++.. ",
".+....  .++@@+++    .. )!!!!!! =~ /!!!!!!)' ..   .....   .....  ",
".+.++.  .++++++.     . )!!!!!! =~  /!!!!!)' +..                 ",
".+.++.  ..+.....       )!!!!/ ^={ + /!!!))' ++. ....          ..",
".+..+.   ...     ...  (  )!  ^=~{ .. /!!)'' +++. .+....    .....",
"......        ....+.  (=^  ^^=~~{ .   !)    ++.. .+++++..  ..+++",
"+.  .. ...... ..+++.   (=^^==~~~~{  . / ___ ...  .+@@@++..  .+++",
"+..     ..++.. .+...   ((~~~~~~~~~{{ + :___  .   .+@]@@++.  ...+",
".+. ...  .+++.. ..       (((~~~~~~~~ +@ :_       .+@]]@@++.   ..",
"++...+....+....   .... <<   (((((((( @@ <<       .+@@@@@@+.   .+",
"...+++++.......  ..++.   ..+        +@++  .....  .++++@@++.   .+",
".+..++@+..+++...  .+++..  .++..    .+++.. .++++.. ...++++.. ....",
".++..+@++.+@++... .+++..  ...    .....+. .++@@++.   ...... ..++.",
"..++.++++++++++.. .++..    ..   .... ... .+@@@@+.            .++",
"+......++@++....  .... ......  ..++..   .++@]@@+.   ......... .+",
"...+++..+++..     .. ...+++++  .+++++.  .+@@@@++.   .+++++++.. .",
" .++@++.....    .   ..+++@@+.. .+++++.. .++++++.    .+@@@@@++. .",
" ..+@++.     ....  ..++@+++... ..++...  ........    .+@@@++++.  ",
"  .+++..  ....++.. ..++++...+.  ....    .+++..     .++++++....  ",
"  .........++++++.  ......+++..      .....+++..    ........     ",
"      .+++++@@@@+...   ..+++..       .++..++++..                "};
