/* XPM */
static char *c7fdcbee6b634366cfa950089fc4e744X6Ookk3pGY0bPLk3[] = {
/* columns rows colors chars-per-pixel */
"64 64 5 1 ",
"  c black",
". c #070606",
"X c #0B0A0A",
"o c #0F0D0D",
"O c #131111",
/* pixels */
"      ..XXooooooXXX..  .XXoX. .     .XX..XXXXXX...              ",
" ..... ..XXXXXXXoXXX. ..XoXX.       ..X.XXX.XXXX..... ......... ",
" .XXX..X.XX....XXXXX..XXXXX..      ...X.XX.......XXX. ..XXXXXX. ",
" .XXXX.X....XX...XX..XXoXX..  ......X......XXXXXXXXX.  ..XXoX.. ",
"  .XX..XX..XXXX...X...XXX..  ..XXXX.XXX.X..XooooXXX..   ..XXX.  ",
"  ...  ..X..XX..X.X. .....   ..XXoX..XX.X.XXXXXXX...  .   ....  ",
" .     .X.X....X....          ..XXXX.XXXX..X......  .....       ",
" .... ..XX.   ... .....    ..  ......XXX.....      ..XXXXX.  ...",
"..XX. .XXXX.     ..XXX.   .....     .....  .  ...  .XXoX... ....",
"X.X.  .XXXX.   ...XXX..   .XXXX..   . ..     ..X. ..XoXX.X..XX.X",
"X..X. ...XX.   ..XXXX.    .XooXX..       .....XX...XXXX..X.XXX.X",
"X...     ..  .. ...XX.   .XXoooXX.   ... .XXXXXXX..XXX..X..XoX.X",
"..          ..X.. ..X.   .XXXXXX.   ..X. .XoooooX...XX. .XXXoX.X",
".  ..    ....XXX.. ..............   .XX. .XXoooXX. .XX. .XoooX..",
"  ..X...   .XoooX.    .XXXXX.      ..XX. ..XooXX.  .... .XXXXX..",
"  .XXXX..  .XoXXX..   .XoooX.     ..XXX.. .XooX..       ..XXX.. ",
"...XXXX..  .XX.....  ..XoOoX.    ..XooXX. .XoXX.         ..... .",
"XX....X.   .....     .XXoooX.   ..XXoooX. .XXX..             ...",
"XX.  ...       .... ..XXXXXX.   .XXoooXX. .....   .....      .XX",
"XX.           ..XX.   .......   .XooooX..        ..XXXX..... ..X",
"........     ..XXX.             .XXooXX.  .....  .XXooXXXXX.  .X",
". ..XXX..    .XXXX.  ....  .... ..XXXX..  .XXX.. ..XXoooooX.  ..",
". ..XXXX... ....... ..XX. ..XX.   .....   .XoX..  ..XXXXXXX. .XX",
".  ........        ..XXX.  .XX..        ..XXoX.     ........ .XX",
"..                 .XXXX.  .....     ....XXooX.  ...         .XX",
"X.    .......     ...XX..            .XXXXoooX.  .X.        .XXX",
"X.   ..XXXXX..   .. ....   ........  .XXoooooX.  .X. ...   .XXoX",
".  ...XXoXXXX..  ...      ..XXXXXX.  ..XXXXXXX.  .X...X..  ..XoX",
".  .XXXooX....   .X..     .XXooooX..  ...XX.XX.  ...XXXXX.  .XXX",
". ..XoXXXX.      ....     .XoooooXX..   .......   .XXoooX.. .XX.",
"  .XXoX....  ...      .  ..XooXXXXXX.            .XXooooXX. .XX.",
"  .XXoX.    .....   .... .XXoXX...X..        ... .XooooXX..  .X.",
"  ..XXX..  ..XXX.  ..XX. ..XXX......        ..X. .XooXXX..   .. ",
".  ..XXX.  .XXoX. ..XX..  .......          ..XX. .XXXX...       ",
"X.  .....  .XooX. ..XX.            .....  ..XX.. ......    ... .",
"XX.        .XXX....XX..    ...    ..XXX. ..X...           ..X  .",
".XX. ...   ..... ..X..   ...X..  ..XXXX. ..........     ..XXX. .",
".X. ..X..        ....   ..XXXX. ..XXoX.. .  ..XXXX.   ...XXoX.. ",
".. ..XXX.. .....         ..XXX. .XXoXX. .. ..XXooX..  .XXXooXX. ",
"   .XXoXX.  .XX..  .....  ..X.. ..XXX....  .XXoooXX.  .XoooooX. ",
"   .XXXXX.  ..XX. ..XXX..  ...    .....    .XXXoooX.. .XooOOoX. ",
"    ......    ... .XXoXX..  .   ..          ..XoooXX. .XXooooX. ",
"      ..  .....    .XXoXX..    .......       .XXXXXX....XXXoXX. ",
".. ..   ..XXXX..   ..XXoXX.   ..XXXXX.  .....   ..XXX. ...XXX.. ",
".X....  .XXooXXX    ..XXX..  ....XXX.. ..XXX..   .....   .....  ",
".X.XX.  .XXXXXX.     ..X..  ..X..XX.. ..XXXXX..                 ",
".X.XX.  ..X.....      ...  ..XXX..X.   ...XXXX. ....          ..",
".X..X.   ...     ...       .XXoX....     ...XXX. .X....    .....",
"......        ....X.  ......XXXX. .   ...  .XX.. .XXXXX..  ..XXX",
"X.  .. ...... ..XXX.  .XXXX..X...   ...X..  ...  .XoooXX..  .XXX",
"X..     ..XX.. .X...  ..XXXX...    ..XXXX..  .   .XoOooXX.  ...X",
".X. ...  .XXX.. ..     ..XoXXX..   .XXoXXX.      .XoOOooXX.   ..",
"XX...X....X....   ....  .XXXoXX.   .XooX..       .XooooooX.   .X",
"...XXXXX.......  ..XX.. ...XXX..   .XoXX. .....  .XXXXooXX.   .X",
".X..XXoX..XXX...  .XXX..  .XX..    .XXX.. .XXXX.. ...XXXX.. ....",
".XX..XoXX.XoXX... .XXX..  ...    .....X. .XXooXX.   ...... ..XX.",
"..XX.XXXXXXXXXX.. .XX..    ..   .... ... .XooooX.            .XX",
"X......XXoXX....  .... ......  ..XX..   .XXoOooX.   ......... .X",
"...XXX..XXX..     .. ...XXXXX  .XXXXX.  .XooooXX.   .XXXXXXX.. .",
" .XXoXX.....    .   ..XXXooX.. .XXXXX.. .XXXXXX.    .XoooooXX. .",
" ..XoXX.     ....  ..XXoXXX... ..XX...  ........    .XoooXXXX.  ",
"  .XXX..  ....XX.. ..XXXX...X.  ....    .XXX..     .XXXXXX....  ",
"  .........XXXXXX.  ......XXX..      .....XXX..    ........     ",
"      .XXXXXooooX...   ..XXX..       .XX..XXXX..                "
};
