/* XPM */
static char *result[] = {
/* columns rows colors chars-per-pixel */
"64 64 8 1 ",
"  c #6A6349",
". c #46412F",
"X c #343124",
"o c #29271B",
"O c #968D69",
"+ c #D6C88E",
"@ c white",
"# c #D9A066",
/* pixels */
"................................................Xo.......XoOO   ",
"................................................Xo.......XoOO   ",
"##++##++##++##++##++##++##++##++##++##++##++##....##++...Xo+O   ",
"##++##++##++##++##++##++##++##++##++##++##++##....##++..XXo+    ",
"++##++##++##++##++##++##++##++##++##++##++##++....++##..XXo+    ",
"++##++##++##++##++##++##++##++##++##++##++##++....++##..XoO+    ",
"................................................Xo......XoO+    ",
"................................................Xo.....XXoO+    ",
"##++##++##++##++##++##++##++##++##++##++##++##..oOO ...XXoOO    ",
"##++##++##++##++##++##++##++##++##++##++##++##..oOO ...XoOOO    ",
"++##++##++##++##++##++##++##++##++##++##++##++..oOO ..XXoOO     ",
"++##++##++##++##++##++##++##++##++##++##++##++..oO ...XooOO     ",
"++++++++++++++++++++++++++++++++++++++++++++##..oO....XooO+O   .",
"+++++++++++++++++++++++++++++++++++++++++++##...Xo...XoXoO+O   .",
"++++++++++++++++++++++++++++++++++++++++++##..XoXo...XoXoOO+  ..",
"++++++++++++++++++++++++++++++++++++++++++##..XoXo..Xo.XXoO+  ..",
"+++++++++++++++++++++++++++++++++++++++++++##....Xo.Xo..XoOOO .X",
"++++++++++++++++++++++++++++++++++++++++++++##...XoXXo..XXoOO .X",
"++++++++++++++++++++++++++++++++++++++++++++##....XoXoO..XoOO.Xo",
"++++++++++++++++++++++++++++++++++++++++++++##.....XoOO...XoO.Xo",
"++++++++++++++++++++++++++++++++++++++++++++##.....XoOOO..XoOXo ",
"++++++++++++++++++++++++++++++++++++++++++++##.....XoOOO...XoXoO",
"++++++++++++++++++++++++++++++++++++++++++++##..O..XoOO+ ...XoOO",
"++++++++++++++++++++++++++++++++++++++++++++##..O..XoOO+ ...XoOO",
"++++++++++++++++++++++++++++++++++++++++++++##.. ..XoO+O ...XoOO",
"++++++++++++++++++++++++++++++++++++++++++++##.. ..XoO+O ...XoOO",
"++++++++++++++++++++++++++++++++++++++++++++##.. ..XoO+   .XXoO+",
"++++++++++++++++++++++++++++++++++++++++++++##.. ..XoOO   .XoOO+",
"++++++++++++++++++++++++++++++++++++++++++++##.. ..XoOO   .XoOO+",
"++++++++++++++++++++++++++++++++++++++++++++##.. ..XoOO   .XoOO+",
"++++++++++++++++++++++++++++++++++++++++++++##.. ..XoOO   .XoOO+",
"++++++++++++++++++++++++++++++++++++++++++++##.. ..XoO+   ..oOO+",
"++++++++++++++++++++++++++++++++++++++++++++##.. ..oXO+   ..XoOO",
"++++++++++++++++++++++++++++++++++++++++++++##.. .XoOO+   ..XoOO",
"++++++++++++++++++++++++++++++++++++++++++++##.. .XoOO+   ..XXoO",
"++++++++++++++++++++++++++++++++++++++++++++##.. .XoOO+   ...XoO",
"++++++++++++++++++++++++++++++++++++++++++++##.. .XoOO+   ....Xo",
"++++++++++++++++++++++++++++++++++++++++++++##....XooOO   ....Xo",
"++++++++++++++++++++++++++++++++++++++++++++##....XooOO   ....Xo",
"++++++++++++++++++++++++++++++++++++++++++++##....XooOOO  ....Xo",
"++++++++++++++++++++++++++++++++++++++++++++##....XooO+O  ...Xo ",
"+++++++++++++++++++++++++++++++++++++++++++###....XoXoO+  ...XoO",
"++++++++++++++++++++++++++++++++++++++++++##.....XXoXoO+O ...XoO",
"+++++++++++++++++++++++++++++++++++++++++##......Xo.XoO+O ...XoO",
"++++++++++++++++++++++++++++++++++++++++##..o....Xo.XoOOO...XoOO",
"++++++++++++++++++++++++++++++++++++++++##..Xo..XXo..XoOO...XoOO",
"+++++++++++++++++++++++++++++++++++++++++##.....XXo..XoOO..XXoOO",
"++++++++++++++++++++++++++++++++++++++++++##....XXoO.XoOO..XXoOO",
"+++++++++++++++++++++++++++++++++++++++++++###..XoOO.XoO...XoO+O",
"++++++++++++++++++++++++++++++++++++++++++++##..XoOO..Xo..XXoO+O",
"++++++++++++++++++++++++++++++++++++++++++++##..XoOO..Xo..XXoO+O",
"++++++++++++++++++++++++++++++++++++++++++++##..oO+O .Xo..XXo+OO",
"++##++##++##++##++##++##++##++##++##++##++##++..oO+O .Xo..XoO+OO",
"++##++##++##++##++##++##++##++##++##++##++##++..oO+O ..Xo.XoO+OO",
"##++##++##++##++##++##++##++##++##++##++##++##..OO+O ..XoXXoO+OO",
"##++##++##++##++##++##++##++##++##++##++##++##..OOO  ..XoXXo+OO ",
"................................................oO......XoXo+OO ",
"................................................oO......XXoO+OO ",
"++##++##++##++##++##++##++##++##++##++##++##++....++##..XXoO+O  ",
"++##++##++##++##++##++##++##++##++##++##++##++....++##...XoO+O  ",
"##++##++##++##++##++##++##++##++##++##++##++##....##++...XoO+O  ",
"##++##++##++##++##++##++##++##++##++##++##++##....##++...XoO+O  ",
"................................................Xo.......XoO+   ",
"................................................Xo.......XoOO   "
};
