/* XPM */
static char * scroll_4_xpm[] = {
"64 64 7 1",
" 	c #000000",
".	c #46412F",
"+	c #070606",
"@	c #D6C88E",
"#	c #D9A066",
"$	c #0B0A0A",
"%	c #0F0D0D",
"  ....++........................................................",
" +.... +........................................................",
"..@@##....@@##@@##@@##@@##@@##@@##@@##@@##@@##@@##@@##@@##@@##@@",
"..@@##....@@##@@##@@##@@##@@##@@##@@##@@##@@##@@##@@##@@##@@##@@",
"..##@@....##@@##@@##@@##@@##@@##@@##@@##@@##@@##@@##@@##@@##@@##",
"..##@@....##@@##@@##@@##@@##@@##@@##@@##@@##@@##@@##@@##@@##@@##",
" ..... +........................................................",
" .....++........................................................",
"++$$+ +$..@@##@@##@@##@@##@@##@@##@@##@@##@@##@@##@@##@@##@@##@@",
"$+$+  +$..@@##@@##@@##@@##@@##@@##@@##@@##@@##@@##@@##@@##@@##@@",
"$++$+ ++..##@@##@@##@@##@@##@@##@@##@@##@@##@@##@@##@@##@@##@@##",
"$+++    ..##@@##@@##@@##@@##@@##@@##@@##@@##@@##@@##@@##@@##@@##",
"++      ..##@@@@@@@@@@@@@@@@@@@@@@@@@@@@@@@@@@@@@@@@@@@@@@@@@@@@",
"+  ++    ..##@@@@@@@@@@@@@@@@@@@@@@@@@@@@@@@@@@@@@@@@@@@@@@@@@@@",
"  ++$+++  ..##@@@@@@@@@@@@@@@@@@@@@@@@@@@@@@@@@@@@@@@@@@@@@@@@@@",
"  +$$$$++ ..##@@@@@@@@@@@@@@@@@@@@@@@@@@@@@@@@@@@@@@@@@@@@@@@@@@",
"+++$$$$++..##@@@@@@@@@@@@@@@@@@@@@@@@@@@@@@@@@@@@@@@@@@@@@@@@@@@",
"$$++++$+..##@@@@@@@@@@@@@@@@@@@@@@@@@@@@@@@@@@@@@@@@@@@@@@@@@@@@",
"$$+  +++..##@@@@@@@@@@@@@@@@@@@@@@@@@@@@@@@@@@@@@@@@@@@@@@@@@@@@",
"$$+     ..##@@@@@@@@@@@@@@@@@@@@@@@@@@@@@@@@@@@@@@@@@@@@@@@@@@@@",
"++++++++..##@@@@@@@@@@@@@@@@@@@@@@@@@@@@@@@@@@@@@@@@@@@@@@@@@@@@",
"+ ++$$$+..##@@@@@@@@@@@@@@@@@@@@@@@@@@@@@@@@@@@@@@@@@@@@@@@@@@@@",
"+ ++$$$$..##@@@@@@@@@@@@@@@@@@@@@@@@@@@@@@@@@@@@@@@@@@@@@@@@@@@@",
"+  +++++..##@@@@@@@@@@@@@@@@@@@@@@@@@@@@@@@@@@@@@@@@@@@@@@@@@@@@",
"++      ..##@@@@@@@@@@@@@@@@@@@@@@@@@@@@@@@@@@@@@@@@@@@@@@@@@@@@",
"$+    ++..##@@@@@@@@@@@@@@@@@@@@@@@@@@@@@@@@@@@@@@@@@@@@@@@@@@@@",
"$+   ++$..##@@@@@@@@@@@@@@@@@@@@@@@@@@@@@@@@@@@@@@@@@@@@@@@@@@@@",
"+  +++$$..##@@@@@@@@@@@@@@@@@@@@@@@@@@@@@@@@@@@@@@@@@@@@@@@@@@@@",
"+  +$$$%..##@@@@@@@@@@@@@@@@@@@@@@@@@@@@@@@@@@@@@@@@@@@@@@@@@@@@",
"+ ++$%$$..##@@@@@@@@@@@@@@@@@@@@@@@@@@@@@@@@@@@@@@@@@@@@@@@@@@@@",
"  +$$%$+..##@@@@@@@@@@@@@@@@@@@@@@@@@@@@@@@@@@@@@@@@@@@@@@@@@@@@",
"  +$$%$+..##@@@@@@@@@@@@@@@@@@@@@@@@@@@@@@@@@@@@@@@@@@@@@@@@@@@@",
"  ++$$$+..##@@@@@@@@@@@@@@@@@@@@@@@@@@@@@@@@@@@@@@@@@@@@@@@@@@@@",
"+  ++$$$..##@@@@@@@@@@@@@@@@@@@@@@@@@@@@@@@@@@@@@@@@@@@@@@@@@@@@",
"$+  ++++..##@@@@@@@@@@@@@@@@@@@@@@@@@@@@@@@@@@@@@@@@@@@@@@@@@@@@",
"$$+     ..##@@@@@@@@@@@@@@@@@@@@@@@@@@@@@@@@@@@@@@@@@@@@@@@@@@@@",
"+$$+ +++..##@@@@@@@@@@@@@@@@@@@@@@@@@@@@@@@@@@@@@@@@@@@@@@@@@@@@",
"+$+ ++$+..##@@@@@@@@@@@@@@@@@@@@@@@@@@@@@@@@@@@@@@@@@@@@@@@@@@@@",
"++ ++$$$..##@@@@@@@@@@@@@@@@@@@@@@@@@@@@@@@@@@@@@@@@@@@@@@@@@@@@",
"   +$$%$..##@@@@@@@@@@@@@@@@@@@@@@@@@@@@@@@@@@@@@@@@@@@@@@@@@@@@",
"   +$$$$..##@@@@@@@@@@@@@@@@@@@@@@@@@@@@@@@@@@@@@@@@@@@@@@@@@@@@",
"    ++++..##@@@@@@@@@@@@@@@@@@@@@@@@@@@@@@@@@@@@@@@@@@@@@@@@@@@@",
"      ++..##@@@@@@@@@@@@@@@@@@@@@@@@@@@@@@@@@@@@@@@@@@@@@@@@@@@@",
"++ ++   ..##@@@@@@@@@@@@@@@@@@@@@@@@@@@@@@@@@@@@@@@@@@@@@@@@@@@@",
"+$++++  ..##@@@@@@@@@@@@@@@@@@@@@@@@@@@@@@@@@@@@@@@@@@@@@@@@@@@@",
"+$+$$+  ..##@@@@@@@@@@@@@@@@@@@@@@@@@@@@@@@@@@@@@@@@@@@@@@@@@@@@",
"+$+$$+  ..##@@@@@@@@@@@@@@@@@@@@@@@@@@@@@@@@@@@@@@@@@@@@@@@@@@@@",
"+$++$+  ...##@@@@@@@@@@@@@@@@@@@@@@@@@@@@@@@@@@@@@@@@@@@@@@@@@@@",
"++++++   ...##@@@@@@@@@@@@@@@@@@@@@@@@@@@@@@@@@@@@@@@@@@@@@@@@@@",
"$+  ++ ++...##@@@@@@@@@@@@@@@@@@@@@@@@@@@@@@@@@@@@@@@@@@@@@@@@@@",
"$++     ...##@@@@@@@@@@@@@@@@@@@@@@@@@@@@@@@@@@@@@@@@@@@@@@@@@@@",
"+$+ +++ ..##@@@@@@@@@@@@@@@@@@@@@@@@@@@@@@@@@@@@@@@@@@@@@@@@@@@@",
"$$+++$++..##@@##@@##@@##@@##@@##@@##@@##@@##@@##@@##@@##@@##@@##",
"+++$$$$$..##@@##@@##@@##@@##@@##@@##@@##@@##@@##@@##@@##@@##@@##",
"+$++$$%$..@@##@@##@@##@@##@@##@@##@@##@@##@@##@@##@@##@@##@@##@@",
"+$$++$%$..@@##@@##@@##@@##@@##@@##@@##@@##@@##@@##@@##@@##@@##@@",
"++....$$........................................................",
"$+....+$........................................................",
"..##@@....##@@##@@##@@##@@##@@##@@##@@##@@##@@##@@##@@##@@##@@##",
"..##@@....##@@##@@##@@##@@##@@##@@##@@##@@##@@##@@##@@##@@##@@##",
"..@@##....@@##@@##@@##@@##@@##@@##@@##@@##@@##@@##@@##@@##@@##@@",
"..@@##....@@##@@##@@##@@##@@##@@##@@##@@##@@##@@##@@##@@##@@##@@",
"  ....++........................................................",
"  ....+$........................................................"};
