/* XPM */
static char * scroll_3_xpm[] = {
"64 64 8 1",
" 	c #46412F",
".	c #070606",
"+	c #000000",
"@	c #D9A066",
"#	c #D6C88E",
"$	c #0B0A0A",
"%	c #0F0D0D",
"&	c #131111",
"                                                ..    ++++++++++",
"                                                ..    .........+",
"@@##@@##@@##@@##@@##@@##@@##@@##@@##@@##@@##@@    ##@@  $$$$$$.+",
"@@##@@##@@##@@##@@##@@##@@##@@##@@##@@##@@##@@    ##@@  .$$%$..+",
"##@@##@@##@@##@@##@@##@@##@@##@@##@@##@@##@@##    @@##  ..$$$.++",
"##@@##@@##@@##@@##@@##@@##@@##@@##@@##@@##@@##    @@##  ++....++",
"                                                ..    ...+++++++",
"                                                ++    $$$$.++...",
"@@##@@##@@##@@##@@##@@##@@##@@##@@##@@##@@##@@  .++.$$%$...+....",
"@@##@@##@@##@@##@@##@@##@@##@@##@@##@@##@@##@@  .+..$%$$.$..$$.$",
"##@@##@@##@@##@@##@@##@@##@@##@@##@@##@@##@@##  ...$$$$..$.$$$.$",
"##@@##@@##@@##@@##@@##@@##@@##@@##@@##@@##@@##  $..$$$..$..$%$.$",
"##########################################@@@@  $...$$.+.$$$%$.$",
"##########################################@@@@  $.+.$$.+.$%%%$..",
"##########################################@@  $$.++....+.$$$$$..",
"##########################################@@  $..+++++++..$$$..+",
"##########################################@@@@  +++++++++.....+.",
"##########################################@@@@  +++++++++++++...",
"############################################@@  ++.....++++++.$$",
"############################################@@  +..$$$$.....+..$",
"############################################@@  +.$$%%$$$$$.++.$",
"############################################@@  +..$$%%%%%$.++..",
"############################################@@  ++..$$$$$$$.+.$$",
"############################################@@  ++++........+.$$",
"############################################@@  +...+++++++++.$$",
"############################################@@  +.$.++++++++.$$$",
"############################################@@  +.$.+...+++.$$%$",
"############################################@@  +.$...$..++..$%$",
"############################################@@  +...$$$$$.++.$$$",
"############################################@@  ++.$$%%%$..+.$$.",
"############################################@@  +.$$%%%%$$.+.$$.",
"############################################@@  +.$%%%%$$..++.$.",
"############################################@@  +.$%%$$$..+++..+",
"############################################@@  +.$$$$...+++++++",
"############################################@@  +......++++...+.",
"############################################@@  ++++++++++..$++.",
"############################################@@  ...+++++..$$$.+.",
"############################################@@  $$.+++...$$%$..+",
"############################################@@  %$..++.$$$%%$$.+",
"############################################@@  %$$.++.$%%%%%$.+",
"############################################@@  %%$..+.$%%&&%$.+",
"############################################@@  %%$$.+.$$%%%%$.+",
"##########################################@@  $$$$$$....$$$%$$.+",
"##########################################@@  ++..$$$.+...$$$..+",
"########################################@@  ..+++.....+++.....++",
"########################################@@  $..+++++++++++++++++",
"##########################################@@  .+....++++++++++..",
"##########################################@@  $.+.$....++++.....",
"############################################@@  +.$$$$$..++..$$$",
"############################################@@  +.$%%%$$..++.$$$",
"############################################@@  +.$%&%%$$.++...$",
"############################################@@  +.$%&&%%$$.+++..",
"##@@##@@##@@##@@##@@##@@##@@##@@##@@##@@##@@##  +.$%%%%%%$.+++.$",
"##@@##@@##@@##@@##@@##@@##@@##@@##@@##@@##@@##  +.$$$$%%$$.+++.$",
"@@##@@##@@##@@##@@##@@##@@##@@##@@##@@##@@##@@  .+...$$$$..+....",
"@@##@@##@@##@@##@@##@@##@@##@@##@@##@@##@@##@@  .+++......+..$$.",
"                                                .+    +++++++.$$",
"                                                .+    .......+.$",
"##@@##@@##@@##@@##@@##@@##@@##@@##@@##@@##@@##    @@##  $$$$..+.",
"##@@##@@##@@##@@##@@##@@##@@##@@##@@##@@##@@##    @@##  %%%$$.+.",
"@@##@@##@@##@@##@@##@@##@@##@@##@@##@@##@@##@@    ##@@  %$$$$.++",
"@@##@@##@@##@@##@@##@@##@@##@@##@@##@@##@@##@@    ##@@  $$....++",
"                                                ++    .....+++++",
"                                                ++    ++++++++++"};
