/* XPM */
static char *result[] = {
/* columns rows colors chars-per-pixel */
"64 64 8 1 ",
"  c #6A6349",
". c #46412F",
"X c #343124",
"o c #29271B",
"O c #968D69",
"+ c #D6C88E",
"@ c white",
"# c #D9A066",
/* pixels */
"  ....Xo........................................................",
"  ....Xo........................................................",
"..++##....++##++##++##++##++##++##++##++##++##++##++##++##++##++",
"..++##....++##++##++##++##++##++##++##++##++##++##++##++##++##++",
"..##++....##++##++##++##++##++##++##++##++##++##++##++##++##++##",
"..##++....##++##++##++##++##++##++##++##++##++##++##++##++##++##",
" .....oO........................................................",
" .....oO........................................................",
" ...XoOO..++##++##++##++##++##++##++##++##++##++##++##++##++##++",
"...XXoO+..++##++##++##++##++##++##++##++##++##++##++##++##++##++",
"...XXoO+..##++##++##++##++##++##++##++##++##++##++##++##++##++##",
"..XXoOO+..##++##++##++##++##++##++##++##++##++##++##++##++##++##",
"..XXoO+O..##++++++++++++++++++++++++++++++++++++++++++++++++++++",
".XXoXoOO...##+++++++++++++++++++++++++++++++++++++++++++++++++++",
".XoXXoO.....##++++++++++++++++++++++++++++++++++++++++++++++++++",
"XXo.XXo.....##++++++++++++++++++++++++++++++++++++++++++++++++++",
"Xo..XXo....##+++++++++++++++++++++++++++++++++++++++++++++++++++",
"oO...Xo...##++++++++++++++++++++++++++++++++++++++++++++++++++++",
"OO...Xo...##++++++++++++++++++++++++++++++++++++++++++++++++++++",
"O+O..XXo..##++++++++++++++++++++++++++++++++++++++++++++++++++++",
"O+ ...Xo..##++++++++++++++++++++++++++++++++++++++++++++++++++++",
"+O ...Xo..##++++++++++++++++++++++++++++++++++++++++++++++++++++",
"O   ..Xo..##++++++++++++++++++++++++++++++++++++++++++++++++++++",
"O   ..Xo..##++++++++++++++++++++++++++++++++++++++++++++++++++++",
"    ..Xo..##++++++++++++++++++++++++++++++++++++++++++++++++++++",
"    ...X..##++++++++++++++++++++++++++++++++++++++++++++++++++++",
"    ...X..##++++++++++++++++++++++++++++++++++++++++++++++++++++",
"    ...X..##++++++++++++++++++++++++++++++++++++++++++++++++++++",
"    ...X..##++++++++++++++++++++++++++++++++++++++++++++++++++++",
"    ...X..##++++++++++++++++++++++++++++++++++++++++++++++++++++",
"    ...X..##++++++++++++++++++++++++++++++++++++++++++++++++++++",
"    ...X..##++++++++++++++++++++++++++++++++++++++++++++++++++++",
"    ..XX..##++++++++++++++++++++++++++++++++++++++++++++++++++++",
"    ..XX..##++++++++++++++++++++++++++++++++++++++++++++++++++++",
"O   ..XX..##++++++++++++++++++++++++++++++++++++++++++++++++++++",
"O   ..Xo..##++++++++++++++++++++++++++++++++++++++++++++++++++++",
"O  ...Xo..##++++++++++++++++++++++++++++++++++++++++++++++++++++",
"+O ...Xo..##++++++++++++++++++++++++++++++++++++++++++++++++++++",
"+O ..XXo..##++++++++++++++++++++++++++++++++++++++++++++++++++++",
"+O ..XXo..##++++++++++++++++++++++++++++++++++++++++++++++++++++",
"O+O..XXo..##++++++++++++++++++++++++++++++++++++++++++++++++++++",
"oO...XoX..##++++++++++++++++++++++++++++++++++++++++++++++++++++",
"oO..XXo...##++++++++++++++++++++++++++++++++++++++++++++++++++++",
"Xo..XXo...##++++++++++++++++++++++++++++++++++++++++++++++++++++",
"Xo.XXXoO..##++++++++++++++++++++++++++++++++++++++++++++++++++++",
"XXoXXoOO..##++++++++++++++++++++++++++++++++++++++++++++++++++++",
"OXoXXoOO..##++++++++++++++++++++++++++++++++++++++++++++++++++++",
"OXXoXoO+...##+++++++++++++++++++++++++++++++++++++++++++++++++++",
"O XoXoO+ ...##++++++++++++++++++++++++++++++++++++++++++++++++++",
"  XooOO+O...##++++++++++++++++++++++++++++++++++++++++++++++++++",
"  .XoOOO...##+++++++++++++++++++++++++++++++++++++++++++++++++++",
"   XoOOO..##++++++++++++++++++++++++++++++++++++++++++++++++++++",
"   .XoOO..##++##++##++##++##++##++##++##++##++##++##++##++##++##",
"   .XoOO..##++##++##++##++##++##++##++##++##++##++##++##++##++##",
"   ..oOO..++##++##++##++##++##++##++##++##++##++##++##++##++##++",
"    .XoO..++##++##++##++##++##++##++##++##++##++##++##++##++##++",
"  ....oO........................................................",
"  ....oO........................................................",
"..##++....##++##++##++##++##++##++##++##++##++##++##++##++##++##",
"..##++....##++##++##++##++##++##++##++##++##++##++##++##++##++##",
"..++##....++##++##++##++##++##++##++##++##++##++##++##++##++##++",
"..++##....++##++##++##++##++##++##++##++##++##++##++##++##++##++",
"  ....Xo........................................................",
"  ....Xo........................................................"
};
