/* XPM */
static char *result[] = {
/* columns rows colors chars-per-pixel */
"64 64 29 1 ",
"  c black",
". c #070606",
"X c #0B0A0A",
"o c #0F0D0D",
"O c #1A1812",
"+ c #232017",
"@ c #29271B",
"# c #2B281C",
"$ c #333024",
"% c #343124",
"& c #353124",
"* c #3C3A2F",
"= c #45402F",
"- c #46412F",
"; c #474230",
": c #4B4634",
"> c #554F3A",
", c #6B6447",
"< c #696248",
"1 c #6A6349",
"2 c #756D4C",
"3 c #928967",
"4 c #958C68",
"5 c #968D69",
"6 c #D0C086",
"7 c #D4C68D",
"8 c #D5C78D",
"9 c #D6C88E",
"0 c #F8ECBF",
/* pixels */
"    *;;**;;********====*******;;;;***;*****;*********;;**;;*    ",
" ..**6666**66662*66666=22666*36666666666*;0666**26666**6666**.. ",
" .*6666**6666622*66666*23366**300666666*6660666*2266666**6666*. ",
" *6666*66066662>*6********3666*30006666*6666066*>26666066*6666* ",
"*6666*600666332>*6*266*>2336666*3360666*6666606*>233666006*6666*",
"*66366666333322*66*2666*22336666**60066*66666606*22333366666366*",
"*3666666333332>*60*>232*>2233666666666*233336666*>2333336666663*",
"*660663333332>*6666*22*6*>223666666666*2333333666*>233333366066*",
"*606633333332>*6366*>*36*>22336666666*>2333333336*>233333336606*",
"*66633333332>*66336*>*366*>2236666666*>23333333366*>23333333666*",
"*66633333332>*633366*>336*>>233666666*>22333333336*>23333333666*",
"X*663333332>*6633336*>236*>>223366666**>22333333366*>233333366*X",
".*633333322>*633333*>22336*>>2223366*33*>2233333336*>223333336*X",
".*63333222>*6333323*>22236*>>2222336*>3*>22233333336*>22233336*.",
" **2222222*2222222*>>222236*>>222236*>23*>22222222222*2222222**.",
"  *222222>*2222222*>>222236*>>>22236*>223*>2222222222*>222222*. ",
"..*>22222>*2222222*>>2222236*>>>2222*>223*>>222222222*>22222>* .",
"XX.*>222>*22222>>*>>>>2222232*>>>222*>>223*>>>>>>22222*>222>*...",
"XX.*>>2>>*2>>>>>>*>>>>>222222*>>>>22*>>223*>>>>>>>>>>2*>>2>>*.XX",
"XX.*>>>>>*>>>>>>>*>>>>>>>>>>>>*>>>>>*>>>2>*>>>>>>>>>>>*>>>>>*..X",
"...**>>>>*>>>****>>>>>>>>>>*****>>>*>>>>>**********>>>*>>>>** .X",
". @&@*>>>****::::**>>>>>>**&&&&:***>>>>**&&&&&:::::****>>>*@&@..",
". @&&&***++O@::::&&***>**+&&&&&:,@O****+@&&&&&:::::@O++***&&&@XX",
".@111&&&+++OO@595&&&,:*@O+&11119:@O@O+++@111115955@OO+++&&&111@X",
".@1111&&+--%%@59511&,::@O-1111595@-@OO+@-111115955@%%--+&&1111@X",
"X@111111---%%@5951111-@@%--11159@%-5@&-@-111115955@%%---111111@X",
"X@111111---%%@5591111-@@%--11595@%-5@%-@-111115955@%%---111111@X",
". @11111---%%@@591111-@@%---559@%%-5@%%@--1111955@@%%---11111@oX",
". @11111---%%@%@57151-@%@---555@%--55@@---111195@%@%%---11111@XX",
". @11111---%@-%@55911-@%@----5@%%-155@%---111595@%-@%---11111@X.",
"  @11111---%@--%@1711-@%@%---5@%%-1195@----1159@%--@%---11111@X.",
"  @1111----%@5-%@171-@%--@----@%--1195@%---1195@%-5@%----1111@X.",
"  .@111---%%@5-%@-71-@%--@----@%--1195@%---1195@%-5@%%---111@.. ",
".  @111---%@551-@-51-@%--@%--@%%--11955@%---595@-155@%---111@   ",
"X. @11----%@591-%@5--@%5-@%--@%%-111955@%---95@%-195@%----11@. .",
"XX.@11---%@5591-%@1-@%-5--@%-@%--111955@%---55@%-1955@%---11@  .",
".XX@1----%@5911-%@--@%-55-@%-@%--1115555@%---5@%-1195@%----1@. .",
".X.@-----@55911-%$@-@--555@%@%%--1115555@%---@%%-11955@-----@.. ",
".. @----%@59111-%$@-@--555@%@%--11115955@%---@%%-11195@%----@X. ",
"  @-----%@5911--%$@+%-1595@%@%--1111595@%@%--@%%--1195@%-----@. ",
"  @----%@55911--%$@+%-1595@@%%--1111595@%@%--@%%--11955@%----@. ",
"  @----%@59111--%$@+--1595@@%%--1111955@%-@%-@%%--11195@%----@. ",
"  @---%@559111--%%@%--15955@%--1111595@%--@%-@%%--111955@%---@. ",
"..@---%@55911---%@-%--11555@%--1111595@%--5@%-@%---11955@%---@. ",
".X@1-%@555111---%@%--111544@%--1115955@---55@%@%---111555@%-1@  ",
".X@1-@5595111---%@%--111544@%-1111595@%---55@%@%---1115955@-1@  ",
".X@&%@5595111---%@@--115944@$-1115955@%--1555@@%---1115955@%&@..",
".X#@@55591111---%@---115944@@-1115955@%--15555@%---11119555@@#..",
"....@55951121=--%@---1154745@$-11555@%--118555@%--=12115955@.XXX",
"X.  @5595112@=--%@---1114474@$-1<555@%--115855@%--=@2115955@.XXX",
"X.. @55911;$@=--%@---1115444$@$-<5##$%--114855@%--=@$;11955@...X",
".X. @55911;$@=--$@@--1111474$@$-<<#$$%--11455@#$--=@$;11955@  ..",
"XX...@5591-%@----%#--1111595@%@%--@%%--=19554#$----@%-1955@   .X",
"...XX@5591-%@----%#--1111955@%-@%-@%%--=11954#$----@%-1955@   .X",
".X..X@5559--%@---%#-1111595@%--@%-@%%-4=11955@%---@%--9555@ ....",
".XX..X@5591-%@---%#-1111595@%--5@%-@%--411955@%---@%-1955@ ..XX.",
"..XX.X@5591--%@-%#--1115955@---55@%@%--4111555@%-@%--1955@   .XX",
"X.....@5591--%@-@--1111595@%---55@%@%---4115955@-@%--1955@... .X",
"...XXX.@559--%@%@--1115955@%--1555@@%---1115955@%@%--955@XXX.. .",
" .XXoXX@559--%%@5--1115955@%--15555@%---14119555@%%--955@ooXX. .",
" ..XoXX@5591--%@5--111555@%--115555@%--111115955@%--1955@XXXX.  ",
"  .XXX.@5591--%@5--115955@%--115555@%--111115955@%--1955@X....  ",
"  .....@5591--%@5--115955@%--111555@%--111111955@%--1955@..     ",
"      .@55511-%@5--115555@%--11155@%---111111955@%-11555@       "
};
