/* XPM */
static char * tile_rock_3_xpm[] = {
"64 64 33 1",
" 	c #000000",
".	c #070606",
"+	c #0B0A0A",
"@	c #0F0D0D",
"#	c #3C3A2F",
"$	c #D0C086",
"%	c #F8ECBF",
"&	c #746C4C",
"*	c #554F3A",
"=	c #928967",
"-	c #756D4C",
";	c #353124",
">	c #232017",
",	c #1A1812",
"'	c #100E0B",
")	c #29271B",
"!	c #2D2A1F",
"~	c #403C2B",
"{	c #4B4634",
"]	c #201D16",
"^	c #6B6447",
"/	c #6A6349",
"(	c #46412F",
"_	c #343124",
":	c #1F1D16",
"<	c #5A553F",
"[	c #968D69",
"}	c #2A271C",
"|	c #807855",
"1	c #403B2C",
"2	c #15130E",
"3	c #D6C88E",
"4	c #131111",
"      ..++@@@@@@+++..  .++@+. .     .++..++++++...              ",
" ..... ..+++++++@+++. ..+@++.       ..+.+++.++++..... ......... ",
" .+++..+.++....+++++..+++++..      ...+.++.......+++. ..++++++. ",
" .++++.+....++...++..++@++..  ......+......+++++++++.  ..++@+.. ",
"  .++..++..++++...+...+++..  ..++++.+++.+..+@@@@+++..   ..+++.  ",
"  ...  ..+..++..+.+. .....   ..++@+..++.+.+++++++...  .   ....  ",
" .     .+.+....+....          ..++++.++++..+......  .....       ",
" .... ..++.   ... .....    ..  ......+++.....      ..+++++.  ...",
"..++. .++++.     ..+++.   .....     .....  .  ...  .++@+... ....",
"+.+.  .++++.   ...+++..   .++++..   . ..     ..+. ..+@++.+..++.+",
"+..+. ...++.   ..++++.    .+@@++..       .....++...++++..+.+++.+",
"+...     ..  .. ...++.   .++@@@++.   ... .+++++++..+++..+..+@+.+",
"..          ..+.. ..+.   .++++++.   ..+. .+@@@@@+...++. .+++@+.+",
".  ..    ....+++.. ..............  ##++. .++@@@++. .++. .+@@@+..",
"###.+...   .+@@@+.   ##############$$### ..+@@++.  .... .+++++..",
"$$###++..  .+@+++.###$$$%%$$$$$$$&*#$%%$###+@@+..       ..+++.. ",
"%$$#$#############&&#$$%$$$$$$$$$&*#$$$$$$$#@++.         ..... .",
"%$$#$$$$$$$$$&#$$$&&#$%$$$$$====&*#$$==$$$&&#####            ...",
"$$=#$$%%$$$$&&#%$$&*#$%$$======&&*#$======&**#&**#.....      .++",
"$==-#$$$$$$=&#$%$&&*#$$$=======&&*#&=====&&**#&**#.++++..... ..+",
"===-#$$$===&&#$$=&&*#$$$======&&&*#&&====&**#&&&**#+@@+++++.  .+",
"===-*#$====&&#$==&&#$$$======&&&**#&&===&***#&&&***#+@@@@@+.  ..",
"===-*#$===&&*#$=&&*#$$======&&&&*#=#&&==&***#&&&****#++++++. .++",
"==--**#==&&*#$$=&&*#$=======&&&**#=#&&&&***#&&&*****#....... .++",
"==-&**#&&&&*#$=&&*#$$======&&&&**#=&#&&&***#&&&****#         .++",
"=--&*#&#&&**#$=&&*#$=====&&&&&**#==&#&&***#&&&****#.        .+++",
"--&&*#&*#**#&=&&&*#$===&&&&&&&**#==&*#****#&&&****#. ...   .++@+",
"--&&*#&&*#*#&&&&**#&&&&&&&&&&***#=&&*#***#&&&&****#...+..  ..+@+",
"--&**#&&&*#&&&&***#&&&&&&&&&***#=&&***#**#&&&****#..+++++.  .+++",
"-&***#&&&*#&&&****#****&&&&****#&&&***#*#*#&*****#.++@@@+.. .++.",
"*****#&&***#******#***********#&&******#**#******#++@@@@++. .++.",
"*****#&*****#*****#***********#********#**#******#+@@@@++..  .+.",
"*****#******#*#########******#**#####**####*******#@@+++..   .. ",
"##**#*****####;;;;;>>,,#****####;;>>>##')!~###****#+++...       ",
"{;########{;;;;;;;;>>>,)####{;;;;;>>>)')')~!]]##***#...    ... .",
"{;;;>>,){^{;;;/////(((_,){{^{;;;//((()'):)<~]]]]####      ..+  .",
"[/;>>>,){^[////////(((__){{^[/////(((::)})<|<1]]]2')    ..+++. .",
"3[/(((_)[3[////////(((__)[[3[/////(((:)<}:)|<11122')  ...++@+.. ",
"3[/((__)[[3////////(((__)[[3[/////((}:)<}:)<|<11}}:)  .+++@@++. ",
"3[/((__)[[3////////(((__))[[3////(((::)<}::)|<<}}}:)  .+@@@@@+. ",
"[3[((__)[[3[///////(((__)_)[3////(((:)<<}}:)<<<}}}:). .+@@44@+. ",
")[(((_)_)[3[///////(((_)(_)[3[///((}:)<<1}::)<}}}}:). .++@@@@+. ",
")[((__)()[3[///////(((_)((_)3[//(((})<|11}::)<}}}::)....+++@++. ",
"_)((__)(_)[3[/////((((_)[(_)[3//(((:)<|11}}:)}}}}:)++. ...+++.. ",
"_)(___)[_)[3[/////(((__)[(_)[3//(((:)[|11}}:)}}}}:)...   .....  ",
"__)__)[[_)[3[[////(((_)[[/()[3[(((_)[[|11}}::)}}::)             ",
"[_)__)[[(_)[3[///((((_)[3/(_)[3(((:)[[|111}::)}}::).          ..",
"[__)_)[3(_)[[3///(((_)[[3/(_)[[(((:)[[3111}}:)}}::)....    .....",
"[/_)_)[3/()[[3[/((((_)[3//(_)[(((_)[[[[111}}:)}::)+++++..  ..+++",
"//_))[[3[(_)[[[((((()[[3//(__)(((_)[[[[111}}::)::)+@@@++..  .+++",
"//(_)[[[3(_)[[[((((_)[3///(__)(((_)[[3[1111}}:)::)+@4@@++.  ...+",
"///_)[[[3/(_)[(((((_)[3//((__)((_)_)[3[1111}}:):).+@44@@++.   ..",
"///(_)[[3/(_)(((((_)[[3//((__)((_)_)[3[1111}}::)).+@@@@@@+.   .+",
"///(_)[[3/(_)(((((_)[3///((__)(_)(_)[[31111}}::)).++++@@++.   .+",
"///(()[[[3((_)(((_)[[3///((__)(_)((_)[3[1111}}:). ...++++.. ....",
"////(_)[[3/(_)(((_)[[3//(((_)(_)[((_)[3[1111}}:).   ...... ..++.",
"////(_)[[3/((_)(_)[[[///(((_)_)[[((()[[|<111}}::)            .++",
"////(_)[[3/((_)()[[3[///(((_)_)[[(((_)[|<1111}::)   ......... .+",
"////(__)[[3((_)_)[[3[///(((_))[[[/((_)[<|<111}}:)   .+++++++.. .",
"////(__)[[3((__)[[[3////(((_)[[[[/((_)[<|<111}}:)   .+@@@@@++. .",
"////(__)[[3/((_)[[3[/////((_)[[[[//((_)<<<111}}}:)  .+@@@++++.  ",
"////(__)[[3/((_)[[3[/////((_)[[[[//((_)<<|<11}}}:) .++++++....  ",
"////(__)[[3/((_)[[3//////((_)[[[///((_)<<|<11}}}:) ........     ",
"////(__)[[[//(_)[[3//////(((_)[[///((_)<<<<11}}}:)              "};
