/* XPM */
static char * tile21_xpm[] = {
"64 64 26 1",
" 	c #6A6349",
".	c #46412F",
"+	c #343124",
"@	c #29271B",
"#	c #968D69",
"$	c #D6C88E",
"%	c #000000",
"&	c #070606",
"*	c #0B0A0A",
"=	c #0F0D0D",
"-	c #3C3A2F",
";	c #D0C086",
">	c #F8ECBF",
",	c #928967",
"'	c #756D4C",
")	c #554F3A",
"!	c #353124",
"~	c #232017",
"{	c #1A1812",
"]	c #4B4634",
"^	c #1F1D16",
"/	c #2A271C",
"(	c #5A553F",
"_	c #807855",
":	c #403B2C",
"<	c #131111",
"   ..++@##   .+@#$#      ...+@##   ..+@####  ...+@%%%%%%%%%%%%%%",
"   ..++@##   .+@#$#       ..+@#$   ..+@##$#  ...+@&&&%&&&&&&&&&%",
"   ..++@##   .+@###       ...+@$   ..+@###   ...+@**&%&&******&%",
"  ...+@#$#  ..+@###       ...+@$   ..+@#$#   ...+@**&%%&&**=*&&%",
"  ..++@#$   ..+@###       ...+@#   ..+@#$    ...+@*&&%%%&&***&%%",
"  ..++@#$   ..+@####      ...+@##  ..+@#$   ....+@&&%%&%%%&&&&%%",
" ...++@#$  ...+@####      ...+@#$ ...+@$#   ...++@%%&&&&&%%%%%%%",
" ...++@##  ..++@####      ...+@#$ ..+@#$#   ...++@%&&*****&%%&&&",
" ...+@##  ...++@#$##      ...+@##...+@#$#   ...+@%%&**=*&&&%&&&&",
"...++@#$  ...++@#$##      ...+@@#...+@$#    ...+@%&&*=**&*&&**&*",
"...++@#$  ...+@+@$##      ...+@@...++@$#   ....+@&&****&&*&***&*",
"..++@##$ ....+@+@$##      ...+@@...+@#$#   ....+@&&***&&*&&*=*&*",
"..++@#$# ...++@+@#$#      ...+@+@..+@#$    ...++@&&&**&@&***=*&*",
".++@+@##...++@.+@#$#      ...+@+@.++@$#   ....+@+@%&**@+@*=-----",
".+@++@#....++@.+@#$#      ..++@.+@+@#$#   ....+@+@@@&&@+@*-;;;;;",
"++@.++@...++@#..@#$#     ...++@.+@+@#$#   ....+@+@..@@.++@-;;>>>",
"+@..++@...++@#..+@$#     ..++@#..+@##$#  ....++@.+@.+@..+->-;;;;",
"@#...+@..++@##..+@#$#    ..++@##.+@##$#  ....++@.+@++@..+-;-;;;;",
"##...+@.++@#$#..+@#$#   ...++@##..+@#$# .....+@#..+@+@#.->;-;;;;",
"#$#..++@+@####...@#$#   ...+@## ..+@#$# ....++@#...+@##.-;,-;;;,",
"#$ ...+@+@#$#  ..+@$#   ..++@##  ..+@##.....+@##...+@###-;,-;;,,",
"$# ...+@@##$#  ..+@##   ..++@$#  ..+@ .....++@##...+@###-;,'-;,,",
"#   ..+@###$   ..+@### ..++@#$#  ..++@.....++@$##..+@##$-,''-;,,",
"#   ..+@##$#   ...@### ..++@#$   ...+@.....+@#$##..+@##$-,')-;,,",
"    ..+@##$     ..+@##...++@#$    ..++@...++@### ..+@#$#-,')-;,,",
"    ...+@#$     ..+@#...++@#$#    ..++@...+@#$#  ..+@#$#-'')-'''",
"    ...+@#$     ...@....++@#$#    ...+@..+@#$##  ..+@#$ -'))-'''",
"    ...+@#$     ...+@..++@##$#    ...++@++@#$#   ..+@## !-))-'''",
"    ...+@##      ..+@.+++@##$#    ...++@+@#$#    ..+@## !-))-)))",
"    ...+@##      ..+@.++@##$##    ...++@+@#$#    ..+@##  -))-)))",
"    ...+@##       ..+@++@##$#     ....++@#$#     ..+@##  !-)-)))",
"    ...+@##       ..++@@###$#     ....++@#$#     ..+@#$  !~-@-))",
"    ..++@##        ..+@######     ....++@###     ..@+#$   ~~{@--",
"    ..++@##        ..++@#####     ....++@#$#     .+@##$   .~+@]]",
"#   ..++@##        ...+@#####     ....+@+@$#     .+@##$   ..++@]",
"#   ..^@#$#        ...++@##$#     ....+@+@#$     .+@##$   ...+@#",
"#  ../^@#$#        ...++@##$#     ...++@.@#$#    .+@##$   ....+@",
"$# .//^@($#        ...++@##$#     ...+@#.+@$#   ..+@@##   ....+@",
"_(://^^@(#$        ...++@##$#     ...+@#.+@#$#  ..+@@##   .../^@",
"_(://^^@(#$        ...++@@##$    ...++@#.+^@$##...^@@###  ..//^@",
"(_(//^^@(($#       ...++@+@#$    ...+@##..+@###...^@@#$#  .//^@:",
"@(///^@^@(_#       ...+@.+@#$#   ...+@## .^^@#.../^@^@#$  ///^@(",
"@(//^^@/@(_(       ...+@..+@$#  ....@#$  .^^@#../^^@^@#$#:///^@(",
"^@//^^@/^@(_#     ....+@#.+@#$  ...+@#$  ./^@..//^@/^@($(:///^@(",
"^@/^^^@(^@(_(     ...++@#.+@#$  ...+@#$  //^@////^@/^@(((///^@((",
"^^@^^@((^@(_(#    ...+@## .@#$#...+@##$  //^^@//^^@//^@((///^@((",
"(^@^^@((/^@(_#   ....+@#$ .+@#$...+@##$  :/^^@//^^@//^@((//^^@((",
"(^^@^@(_/^@((_   ...+@##$ .+@##...+@##$  ://^@//^^@(/^@((//^^@((",
"(:@@^@(_:/@((_# ....+@#$  .+@#...+@#### :://^@/^^@((/^@(///^@(_(",
"@@%@@&@@(@&@((#.....@##$  .++@...+@#### :://^^@^^@@(/@*@//^^@(_@",
"*&&%@%%%@&*@((#....+@#$   .++@...+@##$# ::://^@^^@*@/@=@//^^@(@*",
"&*&%&&&%%&**@(/....+@#$  ..++@..+@+@#$# ::://^@^@&*=@<=@//^^@@&&",
"**&&&*&&&&*&@//...+@##$  ..++@..+@+@#$#:::://^^@@&*====@//^@%%&*",
"&&&*****&&&&@//...+@#$   ..++@.+@.+@##$:::://^^@@&****==@/^@%%&*",
"&*&&**=*&&***@/..+@##$   ..++@.+@..+@#$(:::://^@(%&&&***@^^@&&&&",
"&**&&*=**&*=*@/..+@##$  ...+@.+@#..+@#_(:::://^@(%%%&&&&@^^@&**&",
"&&**&*********@.+@###   ...+@+@##...@#(_(::://^^@%%%%%%%%@^@%&**",
"*&&&&&&**=**&&@.@##$#   ...+@+@##...+@(_(::::/^^@%%%&&&&&&@&&%&*",
"&&&***&&***&&%@+@##$#   ...+@@### ..+@((_(::://^@%%%&*****@*&&%&",
"%&**=**&&&&&%%%@###$    ...+@#### ..+@((_(::://^@%%%&*=====**&%&",
"%&&*=**&%%%%%&&@##$#     ..+@####  ..+@(((:::///^@%%&*===****&%%",
"%%&***&@%%&&&&*@##$#     ..+@####  ..+@((_(::///^@%&******&&&&%%",
"%%&&&&&&&&&****@##$      ..+@###   ..+@((_(::///^@%&&&&&&&&%%%%%",
"%%%%%%&*****===@##$      ...+@##   ..+@((((::///^@%%%%%%%%%%%%%%"};
