/* XPM */
static char * tile34_xpm[] = {
"64 64 30 1",
" 	c #000000",
".	c #070606",
"+	c #0B0A0A",
"@	c #0F0D0D",
"#	c #3C3A2F",
"$	c #D0C086",
"%	c #756D4C",
"&	c #F8ECBF",
"*	c #554F3A",
"=	c #928967",
"-	c #201D16",
";	c #15130E",
">	c #29271B",
",	c #2A271C",
"'	c #100E0B",
")	c #232017",
"!	c #1A1812",
"~	c #353124",
"{	c #1F1D16",
"]	c #4B4634",
"^	c #343124",
"/	c #403B2C",
"(	c #6B6447",
"_	c #46412F",
":	c #968D69",
"<	c #D6C88E",
"[	c #6A6349",
"}	c #807855",
"|	c #5A553F",
"1	c #131111",
"      ..++@@@@@@+++..  .++@+. .     .++..++++++...              ",
" ..... ..+++++++@+++. ..+@++.       ..+.+++.++++..... ......... ",
" .+++..+.++....+++++..+++++..      ...+.++.......+++. ..++++++. ",
" .++++.+....++...++..++@++..  ......+......+++++++++.  ..++@+.. ",
"  .++..++..++++...+...+++..  ..++++.+++.+..+@@@@+++..   ..+++.  ",
"  ...  ..+..++..+.+. .....   ..++@+..++.+.+++++++...  .   ....  ",
" .     .+.+....+....          ..++++.++++..+......  .....       ",
" .... ..++.   ... .....    ..  ......+++.....      ..+++++.  ...",
"..++. .++++.     ..+++.   .....     .....  .  ...  .++@+... ....",
"+.+.  .++++.   ...+++..   .++++..   . ..     ..+. ..+@++.+..++.+",
"+..+. ...++.   ..++++.    .+@@++..       .....++...++++..+.+++.+",
"+...     ..  .. ...++.   .++@@@++.   ... .+++++++..+++..+..+@+.+",
"..          ..+.. ..+.   .++++++.   ..+. .+@@@@@+...++. .+++@+.+",
".  .. #####..+++.. ..............   .++. ##########.++. .+@@@+..",
"######$$$%%########   .++################$$$$$$$%#$#######++++..",
"$$$$$&$$$%*#$$$$$$$######$$$$$$$$%#$$$$%%#$$&&$$%#$&&$$%#$##+.. ",
"$&&&&$$=%*#$$&&&&$$$$$%%#$$&$$$$%#$$&&$%%#$$$$$%%#$$$=%%#=%%#. .",
"$$$$$==%%#$$&$$$$$$$$%%#$&&$$$=%%#$&$$=%%#$$==%%*#$==%*#=%## ...",
"$$====%%*##$$$$======%#$$$$$===%#$$$===%%#$===%*#$=%%%#%%#   .++",
"=====%%*#$#$$$$=====%%#$$$====%%#$$$==%%*#$==%%#$=%%*#%%#... ..+",
"====%%%#$$#$$$=====%%#$$$====%%#=#$===%%*#$==%*#=%%*#%##+++.  .+",
"====%%*#$=%#$=====%%#$#$$====%%#=#$===%%*#$=%*#%%%**##@@@@+.  ..",
"===%%**#$=%#$=====%*#=#$$===%%*#=%#$==%**#=%**#%%**#+++++++. .++",
"==%%**#$=%%#$====%**#=%#$==%%*#=%%#$=%%**#%%*#%***# ........ .++",
"==%***#==%*#$===%%*#$=%#$==%%*#=%%#$%%%*#%%**#***#..         .++",
"=%%***#=%%*#$==%%**#=%%#==%%**#%%%*#%%**#%**#-###.+.        .+++",
"%%***#%%%**#%%%%***#%%%#%%%%*#%%%%*#%***#**#--;;>.+. ...   .++@+",
"%%***#%%%**#%%%***#%%%**#%%**#%%%**#*****###-,;> .+...+..  ..+@+",
"%***#%%%***#******#******#**#%%%%**######;'>,,>  ...+++++.  .+++",
"****#%*****#******#******#**#*%%***#)!>--';>>,>   .++@@@+.. .++.",
"****#*******######~##########******#)!>-;{>  >   .++@@@@++. .++.",
"***#]#######]]]~~~~))>]]]~~~)######)^>/,{>   ... .+@@@@++..  .+.",
"###]]~~~))>](]~~~~_)>]]]]~~)))>]]~~){>,,{>  ..+. .+@@+++..   .. ",
"~~>(:~~~))>]<:[[[[__>:::[[___!>(~~~,> >{>  ..++. .++++...       ",
"]~><:[[[_^><:[[[[__>:::[[[__^>}:[[,{>..>  ..++.. ......    ... .",
":[><:[[__^><:[[[_,><::[[[__{{>}//,,>+++. ..+...           ..+  .",
":[>::[[_{>:<[[[,,,>:::[[[_{{>|//,,{>+++. ..........     ..+++. .",
":/>::[_,{>::[[,,,><::[[[_,{>,,,,,{>+@+.. .  ..++++.   ...++@+.. ",
"|/>::[_{>,>|/,,,>}::[[[/,{{>>,,,{{>@++. .. ..++@@+..  .+++@@++. ",
"|/,>|/,^>|,>,,,,>}|////,,{>.+>>{{>+++....  .++@@@++.  .+@@@@@+. ",
"|/,>|,,{>|,>,,,>}|////,,{> ... >> .....    .+++@@@+.. .+@@11@+. ",
"|/,>|,,{>|,,>,>|||////,{{>  .   ..          ..+@@@++. .++@@@@+. ",
"|/,>|,,{>//,>,>||////,,{>..    .......       .++++++....+++@++. ",
"|/,>|,{>|/,,,>,,////,,{{>+.   ..+++++.  .....   ..+++. ...+++.. ",
"|/,,>{>}|/,,,>>,,,,,,{{>+..  ....+++.. ..+++..   .....   .....  ",
"|/,{>>|}|/,,>++>>,,,,{>+..  ..+..++.. ..+++++..                 ",
"/,{>+.>/|/,,>... >>{{{>..  ..+++..+.   ...++++. ....          ..",
"/,>.+. >/,,>     ..>>>     .++@+....     ...+++. .+....    .....",
",>....  >,,>  ....+.  ......++++. .   ...  .++.. .+++++..  ..+++",
">.  .. ..>>.. ..+++.  .++++..+...   ...+..  ...  .+@@@++..  .+++",
"+..     ..++.. .+...  ..++++...    ..++++..  .   .+@1@@++.  ...+",
".+. ...  .+++.. ..     ..+@+++..   .++@+++.      .+@11@@++.   ..",
"++...+....+....   ....  .+++@++.   .+@@+..       .+@@@@@@+.   .+",
"...+++++.......  ..++.. ...+++..   .+@++. .....  .++++@@++.   .+",
".+..++@+..+++...  .+++..  .++..    .+++.. .++++.. ...++++.. ....",
".++..+@++.+@++... .+++..  ...    .....+. .++@@++.   ...... ..++.",
"..++.++++++++++.. .++..    ..   .... ... .+@@@@+.            .++",
"+......++@++....  .... ......  ..++..   .++@1@@+.   ......... .+",
"...+++..+++..     .. ...+++++  .+++++.  .+@@@@++.   .+++++++.. .",
" .++@++.....    .   ..+++@@+.. .+++++.. .++++++.    .+@@@@@++. .",
" ..+@++.     ....  ..++@+++... ..++...  ........    .+@@@++++.  ",
"  .+++..  ....++.. ..++++...+.  ....    .+++..     .++++++....  ",
"  .........++++++.  ......+++..      .....+++..    ........     ",
"      .+++++@@@@+...   ..+++..       .++..++++..                "};
