/* XPM */
static char * tile25_xpm[] = {
"64 64 26 1",
" 	c #000000",
".	c #070606",
"+	c #0B0A0A",
"@	c #0F0D0D",
"#	c #3C3A2F",
"$	c #D0C086",
"%	c #756D4C",
"&	c #F8ECBF",
"*	c #554F3A",
"=	c #928967",
"-	c #29271B",
";	c #353124",
">	c #4B4634",
",	c #232017",
"'	c #1A1812",
")	c #6B6447",
"!	c #6A6349",
"~	c #968D69",
"{	c #D6C88E",
"]	c #46412F",
"^	c #343124",
"/	c #2A271C",
"(	c #1F1D16",
"_	c #403B2C",
":	c #5A553F",
"<	c #807855",
"      ..++@@@@@@+++..  .++@+. .     .++..++++++...              ",
" ..... ..+++++++@+++. ..+@++.       ..+.+++.++++..... ......... ",
" .+++..+.++....+++++..+++++..      ...+.++.......+++. ..++++++. ",
" .++++.+....++...++..++@++..  ......+......+++++++++.  ..++@+.. ",
"  .++..++..++++...+...+++..  ..++++.+++.+..+@@@@+++..   ..+++.  ",
"  ...  ..+..++..+.+. .....   ..++@+..++.+.+++++++...  .   ....  ",
" .     .+.+....+....          ..++++.++++..+......  .....       ",
" .... ..++.   ... .....    ..  ......+++.....      ..+++++.  ...",
"..++. .++++.     ..+++.   .....     .....  .  ...  .++@+... ....",
"+.+.  .++++.   ...+++..   .++++..   . ..     ..+. ..+@++.+..++.+",
"+..+. ...++.   ..++++.    .+@@++..       .....++...++++..+.+++.+",
"+...     ..  .. ...++.   .++@@@++.   ... .+++++++..+++..+..+@+.+",
"..          ..+.. ..+.#####+++++.   ..+. .+@@@@@+...++. .+++@+.+",
".  ..    ....+++.. .##$$$$%######   .++. .++@@@++. .++. .+@@@+..",
"  ..+...   .+@@@+.##$$$$$%%#$$$&$####++. ..+@@++.  .... .#######",
"  .++++..  .+@+++#$$&$$$$%*#$$&$$$$#$#####################$$$$#$",
"...++++..  .++..#$&&$$$==%*#$&$$$$$#$$$$$$$$$$$$$$%*#$$%#$&$$%#$",
"++....+.   ....#$$$$====%%#$&$$$$$$#$&&&&$$$$$$$$%%#$$$%#$&$$%#$",
"++.  ...     ##$$$$=====%*#$$$$====%#$$$$$$=====%%*#%=%*#&$$=%#&",
"++.         #$$$$======%*#$$$======%#$$$$======%%*#$#%%#$$$==#$&",
"........   #$$$$=======%*#$========%*#$$======%%%*#$=#*#$$==%#$$",
". ..+++..   #$$=======%*#$$========%*#$$======%%*#$$=#*#$===%#$$",
". ..++++... .#$=======%*#$========%%*#$$=====%%**#$==*#$$==%*#$=",
".  ........  #$======%*#$$=======%%*##$$====%%%**#$=%*#$==%%#$$=",
"..           #======%%*#$=======%%*#==#$===%%%**#$==%%*#==%*#$==",
"+.    .......#====%%%*#$=======%%%*#=*#$==%%%%**#$=%%%*#=%%#$$==",
"+.   ..+++++.#%%%%%%%#%%%%%%%%%%%*#=%*#$%%%%%**#$=%%%%**#%*#$=%%",
".  ...++@++++#%%%%%%*#%%%%%%%%%%*#=%%*#%%%%%***#$=%%%%**#%*#%%%%",
".  .+++@@+...#*%%%%%*#%%%%%%%%%**#=%%*#%%%%***#$=%%%%%**#%#%%%%%",
". ..+@++++.   #*%%%*#%%%%%******#=%%**#%%%***#%=%%%%%****#%%****",
"  .++@+....  .#**%**#%**********#=%%**#%%****#%%%%%%*****#******",
"  .++@+.    ..#*****#***********#*%***#*****#************#******",
"  ..+++..  ..+##****#***##########*****#***#####**********######",
".  ..+++.  .+-;-#***####>>>>>;;;;;##****###>;;;;##******##,,'->>",
"+.  .....  .+-;;;###,,'->>>>>;;;;;-,####'-)>;;;;;,##*###;;,,''->",
"++.        .-!!!;;;,,,''-~~{~!!!!!-,,,'-'->{!!!!;,'-#>);;;]]]^-~",
".++. ...   .-!!!!;;,]]^^-~~{~!!!!!]-,''-]-~{~!!!!]'->>);!!]]]]^-",
".+. ..+..   -!!!!!!]]]^^-~~{~!!!!!]-]^-~]^-{~!!!]]^--~~!!!]]]]^-",
".. ..+++.. .-!!!!!!]]]^^-~~{~!!!!!]-]^-~]^-~{~!!]]^--~~!!!]]]/(-",
"   .++@++.  .-!!!!!]]]^^--~~{!!!!]]-^^-~]^(-{~~]]](--~~~!!]]//(-",
"   .+++++.  .-!!!!!]]]^^-^-~{!!!!]]]--~~]]^-~~~]]](--~{~!!]//(-_",
"    ......   -!!!!!]]]^-]^-~{~!!!]]]^-~~!]((-~]]]/(-(-~{!!///(-:",
"      ..  ...-!!!!!]]]^-]]^-{~!!]]]]-~{!!]((-~]]/((-(-~{~_///(-:",
".. ..   ..+++-!!!!]]]]^-~]^-~{!!]]]^-~{!!]/(-]]//(-/(-:{:_///(-:",
".+....  .++@@+-!!!]]]^^-~]^-~{!!]]]^-~{!!//(-////(-/(-:::///(-::",
".+.++.  .+++++-!!!]]]^-~~!]-~{~]]]^-~~{!!//((-//((-//(-::///(-::",
".+.++.  ..+...-!!]]]]^-~{!]^-~{]]]^-~~{!!_/((-//((-//(-:://((-::",
".+..+.   ...  -!!]]]^-~~{!]^-~~]]]^-~~{!!_//(-//((-:/(-:://((-::",
"......        -!]]]]^-~{!!]^-~]]]^-~~~~!__//(-/((-::/(-:///(-:<:",
"+.  .. ...... -]]]]]-~~{!!]^^-]]]^-~~~~!__//((-((-:://(-//((-:--",
"+..     ..++..-]]]]^-~{!!!]^^-]]]^-~~{~!___//(-((-:://(-//((--.+",
".+. ...  .+++-]]]]]^-~{!!]]^^-]]^-^-~{~!___//(-(-:<:_/(-//((- ..",
"++...+....+..-]]]]^-~~{!!]]^^-]]^-^-~{~____//((--:<:_/(-//(-  .+",
"...+++++.....-]]]]^-~{!!!]]^^-]^-]^-~~{____//((--:<:_/-@-/-   .+",
".+..++@+..+++-]]]^-~~{!!!]]^^-]^-]]^-~{:____//(-::<:_-+++-. ....",
".++..+@++.+@+-]]]^-~~{!!]]]^-]^-~]]^-~<:____//(-:::_-..... ..++.",
"..++.++++++++-!]^-~~~!!!]]]^-^-~~]]]-~:<:___//((-::-         .++",
"+......++@++.-!]-~~{~!!!]]]^-^-~~]]]^-:<:____/((-:- ......... .+",
"...+++..+++..-^^-~~{~!!!]]]^--~~~!]]^-::<:___//(-:- .+++++++.. .",
" .++@++.....  --~~~{!!!!]]]^-~~~~!]]^-::<:___//(-:- .+@@@@@++. .",
" ..+@++.     .--~~{~!!!!!]]^-~~~~!!]]^-:::___///(-  .+@@@++++.  ",
"  .+++..  ....+-~~{~!!!!!]]^-~~~~!!]]^-::<:__///(- .++++++....  ",
"  .........++++-~~{!!!!!!]]^-~~~!!!]]^-::<:__///(- ........     ",
"      .+++++@@@-~~{!!!!!!]]]^-~~!!!]]^-::::__///(-              "};
