/* XPM */
static char * tile_rock_13_xpm[] = {
"64 64 25 1",
" 	c #3C3A2F",
".	c #333024",
"+	c #474230",
"@	c #29271B",
"#	c #968D69",
"$	c #D6C88E",
"%	c #6A6349",
"&	c #46412F",
"*	c #343124",
"=	c #D0C086",
"-	c #756D4C",
";	c #F8ECBF",
">	c #928967",
",	c #554F3A",
"'	c #D4C68D",
")	c #958C68",
"!	c #696248",
"~	c #45402E",
"{	c #3C3829",
"]	c #908765",
"^	c #D1C48B",
"/	c #948B68",
"(	c #232017",
"_	c #4B4634",
":	c #353124",
" ..  ++  ++    @#$#%%%%%%&&&*@##%%%&&*@####%%&&&*@##%%&&&*@##%%%",
"==== =======- =@#$#%%%%%%%&&*@#$%%%&&*@##$#%%&&&*@##%%&&&*@##%%%",
"=;== ===;===- =@###%%%%%%%&&&*@$%%%&&*@###%%%&&&*@##%%&&&*@$#%%%",
";=== ==;==>>- =@###%%%%%%%&&&*@$%%%&&*@#$#%%%&&&*@##%%&&**@$%%%%",
"==== ==;=>>-- =@###%%%%%%%&&&*@#%%%&&*@#$%%%%&&&*@##%%&&**@$%%%%",
"===>> ==>>>-- =@####%%%%%%&&&*@##%%&&*@#$%%%&&&&*@##%%&&*@#$%%%%",
"=>>>>> =>>>- ==@####%%%%%%&&&*@#$%&&&*@$#%%%&&&**@#%%&&&*@#$%%%%",
">>>>>> ==>>- ==@####%%%%%%&&&*@#$%&&*@#$#%%%&&&**@#%%&&**@#$%%%%",
">>>>>>- =>-- =-@#$##%%%%%%&&&*@##&&&*@#$#%%%&&&*@##%&&&**@##%%%%",
">>>>>>- =>-, =-@#$##%%%%%%&&&*@@#&&&*@$#%%%%&&&*@##%&&&*@###%%%%",
">>>>>>-- =-, =-*@$##%%%%%%&&&*@@&&&**@$#%%%&&&&*@##%&&**@##%%%%%",
">>>>>>-- >- =--*@$##%%%%%%&&&*@@&&&*@#$#%%%&&&&*@#%&&&*@@##%%%%%",
">>>>>---, , ,,,*@#$#%%%%%%&&&*@*@&&*@#$%%%%&&&**@#&&&&*@@#$#%%%&",
"--------, , ,,,*@#$#%%%%%%&&&*@*@&**@$#%%%&&&&*@*@&&&*@*@#$#%%%&",
"-------,,, ,,,,*@#$#%%%%%%&&**@&*@*@#$#%%%&&&&*@*@&&&*@*@##$%%&&",
"------,,,, ,,,&&@#$#%%%%%&&&**@&*@*@#$#%%%&&&&*@*@&&*@&**@#$%%&&",
",,,,,,,,,, ,,,&&*@$#%%%%%&&**@#&&*@##$#%%&&&&**@&*@&*@&&*@###%&*",
",,,,,,,,,, &&&&&*@#$#%%%%&&**@##&*@##$#%%&&&&**@&*@**@&&**@##%&*",
",,,,,,,,,, &&&&&*@#$#%%%&&&**@##&&*@#$#%&&&&&*@#&&*@*@#&&*@##&*@",
"    ,,,,,, & %%&&@#$#%%%&&&*@##%&&*@#$#%&&&&**@#&&&*@##&&&*@#&*@",
"#'%&  ,,,   )%!&&*@$#%%%&&**@##%%&&*@##&&&&&*@##&&&*@###&&*@#*@%",
"$#%&&~ { ]#^/%%&&*@##%%%&&**@$#%%&&*@%&&&&&**@##&&&*@###&&&*@*@#",
">- >>- @###$%%%&&*@###%&&**@#$#%%&&**@&&&&&**@$##&&*@##$%&&&*@##",
">- >-- @##$#%%%&&&@###%&&**@#$%%%&&&*@&&&&&*@#$##&&*@##$%&&&*@##",
">- >-, @##$%%%%%&&*@##&&&**@#$%%%%&&**@&&&**@###%&&*@#$#%&&&*@##",
"-- >-, *@#$%%%%%&&*@#&&&**@#$#%%%%&&**@&&&*@#$#%%&&*@#$#%&&&*@##",
"-- >, (*@#$%%%%%&&&@&&&&**@#$#%%%%&&&*@&&*@#$##%%&&*@#$%%%&**@#$",
"-- -, (*@#$%%%%%&&&*@&&**@##$#%%%%&&&**@**@#$#%%%&&*@##%%%&*@##$",
"-, -, &*@##%%%%%%&&*@&***@##$#%%%%&&&**@*@#$#%%%%&&*@##%%%&*@##$",
",, , (&*@##%%%%%%&&*@&**@##$##%%%%&&&**@*@#$#%%%%&&*@##%%%&*@##$",
", * ((&*@##%%%%%%%&&*@**@##$#%%%%%&&&&**@#$#%%%%%&&*@##%%%&*@##$",
", **(&&*@##%%%%%%%&&**@@###$#%%%%%&&&&**@#$#%%%%%&&*@#$%%%&&@##$",
", %*&&**@##%%%%%%%%&&*@######%%%%%&&&&**@###%%%%%&&@*#$%%%&&*@##",
" *%%&&**@##%%%%%%%%&&**@#####%%%%%&&&&**@#$#%%%%%&*@##$%%%&&*@##",
"_:%%&&**@##%%%%%%%%&&&*@#####%%%%%&&&&*@*@$#%%%%%&*@##$%%%&&**@#",
"_%%%&&*@#$#%%%%%%%%&&&**@##$#%%%%%&&&&*@*@#$%%%%%&*@##$%%%&&&*@#",
"#%%&&&*@#$#%%%%%%%%&&&**@##$#%%%%%&&&**@&@#$#%%%%&*@##$%%%&&&&*@",
"$#%&&&*@#$#%%%%%%%%&&&**@##$#%%%%%&&&*@#&*@$#%%%&&*@@##%%%&&&&*@",
"$#%&&**@##$%%%%%%%%&&&**@##$#%%%%%&&&*@#&*@#$#%%&&*@@##%%%&&&&*@",
"$#%&&**@##$%%%%%%%%&&&**@@##$%%%%&&&**@#&**@$##&&&*@@###%%&&&&*@",
"#$#&&**@##$#%%%%%%%&&&**@*@#$%%%%&&&*@##&&*@###&&&*@@#$#%%&&&*@%",
"@#&&&*@*@#$#%%%%%%%&&&*@&*@#$#%%%&&&*@##%&**@#&&&&*@*@#$%%&&&*@#",
"@#&&**@&@#$#%%%%%%%&&&*@&&*@$#%%&&&&@#$%%&**@#&&&**@*@#$#%&&&*@#",
"*@&&**@&*@#$#%%%%%&&&&*@#&*@#$%%&&&*@#$%%&&*@&&&&*@&*@#$#%&&&*@#",
"*@&***@#*@#$#%%%%%&&&**@#&*@#$%%&&&*@#$%%&&*@&&&&*@&*@###&&&*@##",
"**@**@##*@#$##%%%%&&&*@##%&@#$#&&&*@##$%%&&**@&&**@&&*@##&&&*@##",
"#*@**@##&*@#$#%%%&&&&*@#$%&*@#$&&&*@##$%%%&**@&&**@&&*@##&&**@##",
"#**@*@#$&*@##$%%%&&&*@##$%&*@##&&&*@##$%%%&&*@&&**@#&*@##&&**@##",
"#%*@*@#$%&@##$#%&&&&*@#$%%&*@#&&&*@####%%%&&*@&**@##&*@#&&&*@#$#",
"%%*@@##$#&*@###&&&&&@##$%%&**@&&&*@####%%%&&**@**@##&&*@&&**@#$#",
"%%&*@###$&*@###&&&&*@#$%%%&**@&&&*@##$#%%%%&&*@**@##&&*@&&**@#$#",
"%%%*@###$%&*@#&&&&&*@#$%%&&**@&&*@*@#$#%%%%&&*@*@#$#%&*@&&**@$##",
"%%%&*@##$%&*@&&&&&*@##$%%&&**@&&*@*@#$#%%%%&&**@@#$#%&*@&&*@#$##",
"%%%&*@##$%&*@&&&&&*@#$%%%&&**@&*@&*@##$%%%%&&**@@#$#%&&*@&*@#$##",
"%%%&&@###$&&*@&&&*@##$%%%&&**@&*@&&*@#$#%%%%&&*@##$#%&&*@**@#$##",
"%%%%&*@##$%&*@&&&*@##$%%&&&*@&*@#&&*@#$#%%%%&&*@###%%&&*@**@$##%",
"%%%%&*@##$%&&*@&*@###%%%&&&*@*@##&&&@##$#%%%&&**@##%%%&&*@*@$##%",
"%%%%&*@##$%&&*@&@##$#%%%&&&*@*@##&&&*@#$#%%%%&**@##%%%&&**@#$##%",
"%%%%&**@##$&&*@*@##$#%%%&&&*@@###%&&*@##$#%%%&&*@#$#%%&&**@#$#%%",
"%%%%&**@##$&&**@###$%%%%&&&*@####%&&*@##$#%%%&&*@#$#%%&&&*@#$#%%",
"%%%%&**@##$%&&*@##$#%%%%%&&*@####%%&&*@###%%%&&&*@$#%%&&&*@#$#%%",
"%%%%&**@##$%&&*@##$#%%%%%&&*@####%%&&*@##$#%%&&&*@$#%%&&&*@#$#%%",
"%%%%&**@##$%&&*@##$%%%%%%&&*@###%%%&&*@##$#%%&&&*@##%%&&&*@#$%%%",
"%%%%&**@###%%&*@##$%%%%%%&&&*@##%%%&&*@####%%&&&*@##%%&&&*@##%%%"};
