/* XPM */
static char * tile33_xpm[] = {
"64 64 27 1",
" 	c #000000",
".	c #070606",
"+	c #0B0A0A",
"@	c #0F0D0D",
"#	c #3C3A2F",
"$	c #756D4C",
"%	c #D0C086",
"&	c #F8ECBF",
"*	c #928967",
"=	c #554F3A",
"-	c #353124",
";	c #29271B",
">	c #4B4634",
",	c #232017",
"'	c #46412F",
")	c #2A271C",
"!	c #343124",
"~	c #1F1D16",
"{	c #968D69",
"]	c #6B6447",
"^	c #807855",
"/	c #1A1812",
"(	c #5A553F",
"_	c #D6C88E",
":	c #6A6349",
"<	c #403B2C",
"[	c #131111",
"      ..++@@@@@@+++..  .++@+. .     .++..++++++...              ",
" ..... ..+++++++@+++. ..+@++.       ..+.+++.++++..... ......... ",
" .+++..+.++....+++++..+++++..      ...+.++.......+++. ..++++++. ",
" .++++.+....++...++..++@++..  ......+......+++++++++.  ..++@+.. ",
"  .++..++..++++...+...+++..  ..++++.+++.+..+@@@@+++..   ..+++.  ",
"  ...  ..+..++..+.+. .....   ..++@+..++.+.+++++++...  .   ....  ",
" .     .+.+....+....          ..++++.++++..+......  .....       ",
" .... ..++.   ... .....    ..  ......+++.....      ..+++++.  ...",
"..++. .++++.     ..+++.   .....     .....  .  ...  .++@+... ....",
"+.+.  .++++.   ...+++..   .++++..   . ..     ..+. ..+@++.+..++.+",
"+..+. ...++.   ..++++.    .+@@++..       .....++...++++..+.+++.+",
"+...     ..  .. ...++.   .++@@@++.   ... .+++++++..+++..+..+@+.+",
"..          ..+.. ..+.   .++++++.   ..+. .+@@@@@+...++. .+++@+.+",
".  ..    ....##########..........   .++. .++@@@++. .+#####@@@+..",
"  ..+.#######$#%%&%%%$$################. ..+@########%%%%%######",
"  .+##%#%%%%%$#%&%%%*$#%&%%$$#%%&&&%%$$######%%%%%$$#%%&&&&&%%%%",
"...#%%%#%&%%*$#%&%***$#%&%%*$$#&%%%%**$#%%%%%%%%%**$$#%%%%%%%%%%",
"++..##**#%%**$#%%***$$#&%%***$#%&%%***$$#%&&&%%****$$=#*%%%%%%%%",
"++.  .#$$#%**$$#%%**$=#&%****$=#%%*****$$#&%%%*****$$##**%%%%%%%",
"++.    #$$#$**$=#%**$=#%%***$$=#%%%****$$#%&%******$=#$#******%%",
"........##$#$$$$#%%$$=#%%***$$#=#%%***$$==#%%******$=#$=#*******",
". ..+++.. ##$$$$=#$$$=#%%***$=#=#%%***$$=#*#%*****$$#*$=#*******",
". ..++++... #$$$=#$$$=#%%**$$#*$#%%***$==#*#%%****$=#**=#*******",
".  ........  #$===#$==#$%*$$=#*$=#%**$$=#*$#%%***$$=#**$=#******",
"..            #===#$===#$$$$=#*$=#%%*$==#*$=#%**$$$=#**$=#$*****",
"+.    .......  ###-#===#$$$=#$**$#%%$$==#*$=#%*$$$==#*$$=#$$****",
"+.   ..+++++.. ;>--,#==#====#$$$$=#$$$==#$$=#$$$$$==#$$$$=#=$$$$",
".  ...++@++++.. ;-',###=====#$$$$=#$$==#==$$=#$$====#=$$==#==$$$",
".  .+++@@+....   ;)!;>-######$$$===#==#======#======#======#==$$",
". ..+@++++.      ;~;;>>-,;>>#======#==#======#======#======#====",
"  .++@+....  ...  ;  ;{-,;]>#======##########-######=======#====",
"  .++@+.    .....   ..;{');^>######-----,/;>>>---,,,#######-#==$",
"  ..+++..  ..+++.  ..+;()~;^>---,;>>-----,/;>_>---,,/;>-----,###",
".  ..+++.  .++@+. ..++.;);.;^---,;]{{::::'';:_{:::''/;]>---'/;--",
"+.  .....  .+@@+. ..++. ;  ;^(::'!;_{{::::'~;{_{::''!;_{:::'!;--",
"++.        .+++....++..    .;(<:'';{_{::::')~;{_::''!;{_:::'!;::",
".++. ...   ..... ..+..   ...;((<)'~;{_{::::');{_{:''!~;_{::'!;::",
".+. ..+..        ....   ..+++;()))~~;{_:::::));{{:''~~;_{::'~;<:",
".. ..+++.. .....         ..++;<))~~;;({{:::::)~;{:')~;);{:'~~;<<",
"   .++@++.  .++..  .....  ..+.;)~;;++;((::::<));(()~;<);_:)~;~;<",
"   .+++++.  ..++. ..+++..  ... ;; ....;(<<<<<))~;()~;<);(()~;)~;",
"    ......    ... .++@++..  .   ..    ;((<<<<)))~;);(<);(()~;)~~",
"      ..  .....    .++@++..    ....... ;(<<<))))~;~;(<);)()~;))~",
".. ..   ..++++..   ..++@++.   ..+++++. ;(<<<)))~~~;^(<));(~~;)))",
".+....  .++@@+++    ..+++..  ....+++.. .;<<)))~~~;;((<)));~;(<))",
".+.++.  .++++++.     ..+..  ..+..++.. ..+;)))~~;;  ;(<))~~;;((<<",
".+.++.  ..+.....      ...  ..+++..+.   ..;)~~;; ...;<)))~;  ;(<<",
".+..+.   ...     ...       .++@+....     .;;;++. .+.;))~;  ..;<<",
"......        ....+.  ......++++. .   ...  .++.. .++;)~;.  ..+;<",
"+.  .. ...... ..+++.  .++++..+...   ...+..  ...  .+@@;;+..  .++;",
"+..     ..++.. .+...  ..++++...    ..++++..  .   .+@[@@++.  ...+",
".+. ...  .+++.. ..     ..+@+++..   .++@+++.      .+@[[@@++.   ..",
"++...+....+....   ....  .+++@++.   .+@@+..       .+@@@@@@+.   .+",
"...+++++.......  ..++.. ...+++..   .+@++. .....  .++++@@++.   .+",
".+..++@+..+++...  .+++..  .++..    .+++.. .++++.. ...++++.. ....",
".++..+@++.+@++... .+++..  ...    .....+. .++@@++.   ...... ..++.",
"..++.++++++++++.. .++..    ..   .... ... .+@@@@+.            .++",
"+......++@++....  .... ......  ..++..   .++@[@@+.   ......... .+",
"...+++..+++..     .. ...+++++  .+++++.  .+@@@@++.   .+++++++.. .",
" .++@++.....    .   ..+++@@+.. .+++++.. .++++++.    .+@@@@@++. .",
" ..+@++.     ....  ..++@+++... ..++...  ........    .+@@@++++.  ",
"  .+++..  ....++.. ..++++...+.  ....    .+++..     .++++++....  ",
"  .........++++++.  ......+++..      .....+++..    ........     ",
"      .+++++@@@@+...   ..+++..       .++..++++..                "};
