/* XPM */
static char * tile32_xpm[] = {
"64 64 30 1",
" 	c #000000",
".	c #070606",
"+	c #0B0A0A",
"@	c #0F0D0D",
"#	c #131111",
"$	c #3C3A2F",
"%	c #D0C086",
"&	c #756D4C",
"*	c #554F3A",
"=	c #928967",
"-	c #232017",
";	c #353124",
">	c #4B4634",
",	c #968D69",
"'	c #29271B",
")	c #201D16",
"!	c #15130E",
"~	c #6A6349",
"{	c #46412F",
"]	c #403C2B",
"^	c #100E0B",
"/	c #1A1812",
"(	c #D6C88E",
"_	c #6B6447",
":	c #403B2C",
"<	c #2A271C",
"[	c #343124",
"}	c #1F1D16",
"|	c #5A553F",
"1	c #807855",
"      ..++@@@@@@+++..  .++@+. .     .++..++++++...              ",
" ..... ..+++++++@+++. ..+@++.       ..+.+++.++++..... ......... ",
" .+++..+.++....+++++..+++++..      ...+.++.......+++. ..++++++. ",
" .++++.+....++...++..++@++..  ......+......+++++++++.  ..++@+.. ",
"  .++..++..++++...+...+++..  ..++++.+++.+..+@@@@+++..   ..+++.  ",
"  ...  ..+..++..+.+. .....   ..++@+..++.+.+++++++...  .   ....  ",
" .     .+.+....+....          ..++++.++++..+......  .....       ",
" .... ..++.   ... .....    ..  ......+++.....      ..+++++.  ...",
"..++. .++++.     ..+++.   .....     .....  .  ...  .++@+... ....",
"+.+.  .++++.   ...+++..   .++++..   . ..     ..+. ..+@++.+..++.+",
"+..+. ...++.   ..++++.    .+@@++..       .....++...++++..+.+++.+",
"+...     ..  .. ...++.   .++@@@++.   ... .+++++++..+++..+..+@+.+",
"..          ..+.. ..+.   .++++++.   ..+. .+@@@@@+...++. .+++@+.+",
".  ..    ....+++.. ..............   .++. .++@@@++. .++. .+@@@+..",
"  ..+...   .+@@@+.    .+++++.      ..++. ..+@@++.  .... .+++++..",
"  .++++..  .+@+++..   .+@@@+.     ..+++.. .+@@+..       ..+++.. ",
"...++++..  .++.....  ..+@#@+.    ..+@@++. .+@++.         ..... .",
"++....+.   .....     .++@@@+.   ..++@@@+. .+++..             ...",
"++.  ...       .... ..++++++.   .++@@@++. .....   .....      .++",
"++.           ..++.   .......   .+@@@@+..        ..++++..... ..+",
"........     ..+++.             .++@@++.  .....  .++@@+++++.  .+",
". ..+++..    .++++.  ....  .... ..++++..  .+++.. ..++@@@@@+.  ..",
". ..++++... ....... ..++. ..++.   .....   .+@+..  ..+++++++. .++",
".  ........        ..+++.  .++..        ..++@+.     ........ .++",
"..                 .++++.  .....     ....++@@+.  ...         .++",
"+.    .......     ...++..            .++++@@@+.  .+.        .+++",
"+.   ..+++++..   .. ....   ........  .++@@@@@+.  .+. ...   .++@+",
".  ...++@++++..  ...      ..$$$+++.  $$$$$$$$+.$$$$...+..  ..+@+",
".  .+++@@+....   .$$$$$$$$$$%%%$$$$$%%%%%%%%&$$%&&$.+++++.  .+++",
". ..+@++++.      $%%%%%%%%%%%%&&*$%%$$%%%%=&*$=%&&*$+@@@+.. .++.",
"  .++@+....  .$$$$$&==%%%%%%==&*$%%&*$%%==&&*$%%=&*$@@@@++. .++.",
"  .++@+.    .$%%%=&$&&=======&&*$%=&*$%%==&**$%==&&$@@@++..  .+.",
"  ..+++..  $$%%%==&&$*&&====&&*$%%=*$%%===&*$%%==&&$@+++..   .. ",
".  ..+++.  $%%%==&&*$**&&==&&**$%=&$%%===&**$%==&&*$++...       ",
"+.  .....  $%%==&&&$=$**&&&&**$%=&&$%===&&*$%%==&&**$..    ... .",
"++.        $%===&&*$==$***&***$==&*$%==&&&*$%===&&**$     ..+  .",
".++. ...   $===&&*$====$*****$%=&&$%==&&&**$%==&&***$   ..+++. .",
".+. ..+..  $===&&*$=====$***$%==&*$==&&&**$%===&&**$  ...++@+.. ",
".. ..+++.. $==&&*$======&$**$==&*$&&&&&&**$===&&**$$  .+++@@++. ",
"   .++@++. $=&&**$======&*$$&&&&*$*&&&&**$%==&&**$&$  .+@@@@@+. ",
"   .+++++.  $&&*$&&&&==&**$&&&&*$***&&***$&&&&&**$*$. .+@@##@+. ",
"    ......  $&**$&&&&&&**$&&&&&*$*******$&&&&&**$**$. .++@@@@+. ",
"      ..  ..$***$**&&&**$**&&**$-$******$*&&&**$&*$+....+++@++. ",
".. ..   ..++$**$;$******$******$>-$$$**$$$*****$**$++. ...+++.. ",
".+....  .++@@$*$;;$$***$>$****$>,;-'>$$))!$***$!$*$...   .....  ",
".+.++.  .++++'$;~'--$$$>>;$**$>>~{-'>>]))!!$$$!!^$'             ",
".+.++.  ..+..';;~'---/;>(;-$$>_,~{{',>_:::!^^'!<^^'.          ..",
".+..+.   ... ';~~'{{//>,(~-/'>,~~{[',,(~::<!^'<<}^'....    .....",
"......       ',~{'{{[~,(~~{/'(,~~{[',,,~::<<}'<}}:'++++..  ..+++",
"+.  .. ......',{{'{{[,,(~~{[',~~{{[',,,~::<<}'<}}|'@@@++..  .+++",
"+..     ..++..'{{'{[[,(~~~{[',~~{[',,(,~:::<<}'}}|'@#@@++.  ...+",
".+. ...  .+++.'{{'{[,,(~~{{[',~{{[',,(,~:::<<}'}:|'@##@@++.   ..",
"++...+....+...'{'{[[,,(~~{{['~~{{['[,(,~:::<<}'<||'@@@@@@+.   .+",
"...+++++......'{'{[,,(~~~{{['~~{['[',,(~:::<<}}'|'++++@@++.   .+",
".+..++@+..+++.'{'[[,,(~~~{{['~{{['{[',(,::::<<}'|'...++++.. ....",
".++..+@++.+@++'{'[,,,(~~{{{['~{['{{[',(,::::<<}'|'  ...... ..++.",
"..++.+++++++++'{'[,,,~~~{{{['{{['{{{',,(|:::<<}'|'           .++",
"+......++@++..'{',,(,~~~{{{['{[',{{{',,(|::::<}':'  ......... .+",
"...+++..+++..  '~,,(,~~~{{{['{[',~{{[',|1|:::<<}'   .+++++++.. .",
" .++@++.....   ',,,(~~~~{{{['[[',~{{[',|1|:::<<}'   .+@@@@@++. .",
" ..+@++.     ..',,(,~~~~~{{['[',,~~{{'~|||:::<<<}'  .+@@@++++.  ",
"  .+++..  ....+',,(,~~~~~{{[[',,,~~{{'~||1|::<<<}' .++++++....  ",
"  .........++++',,(~~~~~~{{[[',,~~~{{['||1|::<<<}' ........     ",
"      .+++++@@@',,(~~~~~~{{{[',,~~~{{['||||::<<<}'              "};
