/* XPM */
static char * tile16_xpm[] = {
"64 64 25 1",
" 	c #000000",
".	c #070606",
"+	c #0B0A0A",
"@	c #0F0D0D",
"#	c #29271B",
"$	c #968D69",
"%	c #D6C88E",
"&	c #6A6349",
"*	c #46412F",
"=	c #343124",
"-	c #5A553F",
";	c #403B2C",
">	c #2A271C",
",	c #1F1D16",
"'	c #807855",
")	c #3C3A2F",
"!	c #D0C086",
"~	c #756D4C",
"{	c #F8ECBF",
"]	c #928967",
"^	c #554F3A",
"/	c #232017",
"(	c #353124",
"_	c #1A1812",
":	c #4B4634",
"      ..++@@@@@#$%$&&&&&&***=#$$&&&**=#----;;>>>,#              ",
" ..... ..++++++#$%$&&&&&&&**=#$%&&&**=#--'-;;>>>,#... ......... ",
" .+++..+.++....#$$$&&&&&&&***=#%&&&**=#---;;;>>>,#++. ..++++++. ",
" .++++.+....++.#$$$&&&&&&&***=#%&&&**=#-'-;;;>>>,#++.  ..++@+.. ",
"  .++..++..++++#$$$&&&&&&&***=#$&&&**=#$';;;;>>>,#+..   ..+++.  ",
"  ...  ..+..++.#$$$$&&&&&&***=#$$&&**=#$';;;>>>>,#..  .   ....  ",
" .     .+.+....#$$$$&&&&&&***=#$%&***=#%-;;;>>>,,#  .....       ",
" .... ..++.   .#$$$$&&&&&&***=#$%&**=#$%$;;;>>>,,# ..+++++.  ...",
"..++. .++++.   #$%$$&&&&&&***=#$$***=#$%$;;;>>>,#-#.++@+... ....",
"+.+.  .++++.   #$%$$&&&&&&***=##$***=#%$&;;;>>>,#--#+@++.+..++.+",
"+..+. ...++.  #=#%$$&&&&&&***=##***==#%$&&;>>>>,#--;#++..+.+++.+",
"+...     .## .#=#%$$&&&&&&***=##***=#$%$&&;>>>>,#-;>>#..+..+@+.+",
"..       #**#.#=#$%$&&&&&&***=#=#**=#$%&&&;>>>,,#->>>#.####+@+.+",
". )))   #**==#*=#$%$&&&&&&***=#=#*==#%$&&&*>>>,#,#>>>,#=#-')))))",
"))!!!).#***==#*=#$%$&&&&&&**==#*=#=#$%$&&&*>>>,#,#>>>,#=#-)!!!!!",
"!~)!!)#***==#$**#$%$&&&&&***==#*=#=#$%$&&&*>>>,#=#>>,#*==#)!!{{{",
"!~)!])#***==#$**=#%$&&&&&**==#$**=#$$%$&&***>,,#*=#>,#**=){)!!!!",
"!~)!]~)**==#$$**=#$%$&&&&**==#$$*=#$$%$&&***>,,#*=#=,#**=)!)!!!!",
"]~)!]~)*==#$%$**=#$%$&&&***==#$$**=#$%$&****>,#$**=#=#$*){!)!!!!",
"]~)!]~)#=#$$$$***#$%$&&&***=#$$&**=#$%$&****,,#$***=#$$*)!])!!!]",
"]~)!]~)#=#$%$&&**=#%$&&&**==#$$&&**=#$$*****,#$$***=#$$$)!])!!]]",
"]~)]]~)##$$%$&&**=#$$&&&**==#%$&&**=#&*****=,#$$***=#$$$)!]~)!]]",
"]~)]~~)#$$$%&&&**=#$$$&**==#$%$&&**==#*****=,#%$$**=#$$%)]~~)!]]",
"]~)]~^)#$$%$&&&***#$$$&**==#$%&&&***=#*****=#$%$$**=#$$%)]~^)!]]",
"~~)]~^)#$$%&&&&&**=#$$***==#$%&&&&**==#***==#$$$&**=#$%$)]~^)!]]",
"~~)]^)/=#$%&&&&&**=#$***==#$%$&&&&**==#***=#$%$&&**=#$%$)~~^)~~~",
"~~)~^)/=#$%&&&&&***#****==#$%$&&&&***=#**=#$%$$&&**=#$%&)~^^)~~~",
"~^)~^)*=#$%&&&&&***=#**==#$$%$&&&&***==#==#$%$&&&**=#$$&()^^)~~~",
"^^)^)/*=#$$&&&&&&**=#*===#$$%$&&&&***==#=#$%$&&&&**=#$$&()^^)^^^",
"^)()//*=#$$&&&&&&**=#*==#$$%$$&&&&***==#=#$%$&&&&**=#$$&&)^^)^^^",
"^)((/**=#$$&&&&&&&**=#==#$$%$&&&&&****==#$%$&&&&&**=#$$&&()^)^^^",
"^)&(***=#$$&&&&&&&**==##$$$%$&&&&&****==#$%$&&&&&**=#$%&&(/)#)^^",
")(&&**==#$$&&&&&&&&**=#$$$$$$&&&&&****==#$$$&&&&&**#=$%&&&//_#))",
"((&&**==#$$&&&&&&&&**==#$$$$$&&&&&****==#$%$&&&&&*=#$$%&&&*/=#::",
":&&&**==#$$&&&&&&&&***=#$$$$$&&&&&****=#=#%$&&&&&*=#$$%&&&**==#:",
"$&&&**=#$%$&&&&&&&&***==#$$%$&&&&&****=#=#$%&&&&&*=#$$%&&&***=#$",
"$&&***=#$%$&&&&&&&&***==#$$%$&&&&&***==#*#$%$&&&&*=#$$%&&&****=#",
"%$&***=#$%$&&&&&&&&***==#$$%$&&&&&***=#$*=#%$&&&**=##$$&&&****=#",
"%$&**==#$$%&&&&&&&&***==#$$%$&&&&&***=#$*=#$%$&&**=##$$&&&****=#",
"%$&**==#$$%&&&&&&&&***==##$$%&&&&***==#$*==#%$$***=##$$$&&****=#",
"$%$**==#$$%$&&&&&&&***==#=#$%&&&&***=#$$**=#$$$***=##$%$&&***=#&",
"#$***=#=#$%$&&&&&&&***=#*=#$%$&&&***=#$$&*==#$****=#=#$%&&***=#$",
"#$**==#*#$%$&&&&&&&***=#**=#%$&&****#$%&&*==#$***==#=#$%$&***=#$",
"=#**==#*=#$%$&&&&&****=#$*=#$%&&***=#$%&&**=#****=#*=#$%$&***=#$",
"=#*===#$=#$%$&&&&&***==#$*=#$%&&***=#$%&&**=#****=#*=#$$$***=#$$",
"==#==#$$=#$%$$&&&&***=#$$&*#$%$***=#$$%&&**==#**==#**=#$$***=#$$",
"$=#==#$$*=#$%$&&&****=#$%&*=#$%***=#$$%&&&*==#**==#**=#$$**==#$$",
"$==#=#$%*=#$$%&&&***=#$$%&*=#$$***=#$$%&&&**=#**==#$*=#$$**==#$$",
"$&=#=#$%&*#$$%$&****=#$%&&*=#$***=#$$$$&&&**=#*==#$$*=#$***=#$%$",
"&&=##$$%$*=#$$$*****#$$%&&*==#***=#$$$$&&&**==#==#$$**=#**==#$%$",
"&&*=#$$$%*=#$$$****=#$%&&&*==#***=#$$%$&&&&**=#==#$$**=#**==#$%$",
"&&&=#$$$%&*=#$*****=#$%&&**==#**=#=#$%$&&&&**=#=#$%$&*=#**==#%$$",
"&&&*=#$$%&*=#*****=#$$%&&**==#**=#=#$%$&&&&**==##$%$&*=#**=#$%$$",
"&&&*=#$$%&*=#*****=#$%&&&**==#*=#*=#$$%&&&&**==##$%$&**=#*=#$%$$",
"&&&**#$$$%**=#***=#$$%&&&**==#*=#**=#$%$&&&&**=#$$%$&**=#==#$%$$",
"&&&&*=#$$%&*=#***=#$$%&&***=#*=#$**=#$%$&&&&**=#$$$&&**=#==#%$$&",
"&&&&*=#$$%&**=#*=#$$$&&&***=#=#$$***#$$%$&&&**==#$$&&&**=#=#%$$&",
"&&&&*=#$$%&**=#*#$$%$&&&***=#=#$$***=#$%$&&&&*==#$$&&&**==#$%$$&",
"&&&&*==#$$%**=#=#$$%$&&&***=##$$$&**=#$$%$&&&**=#$%$&&**==#$%$&&",
"&&&&*==#$$%**==#$$$%&&&&***=#$$$$&**=#$$%$&&&**=#$%$&&***=#$%$&&",
"&&&&*==#$$%&**=#$$%$&&&&&**=#$$$$&&**=#$$$&&&***=#%$&&***=#$%$&&",
"&&&&*==#$$%&**=#$$%$&&&&&**=#$$$$&&**=#$$%$&&***=#%$&&***=#$%$&&",
"&&&&*==#$$%&**=#$$%&&&&&&**=#$$$&&&**=#$$%$&&***=#$$&&***=#$%&&&",
"&&&&*==#$$$&&*=#$$%&&&&&&***=#$$&&&**=#$$$$&&***=#$$&&***=#$$&&&"};
