/* XPM */
static char *result[] = {
/* columns rows colors chars-per-pixel */
"64 64 37 1 ",
"  c #29271B",
". c #2A281B",
"X c #2A281C",
"o c #2B281C",
"O c #2C2A1D",
"+ c #333024",
"@ c #343124",
"# c #353225",
"$ c #363325",
"% c #3C3829",
"& c #3C3A2F",
"* c #45402E",
"= c #45402F",
"- c #45412F",
"; c #46412F",
": c #474230",
"> c #4B4632",
", c #554F3A",
"< c #696248",
"1 c #696249",
"2 c #6A6349",
"3 c #756D4C",
"4 c #908765",
"5 c #928967",
"6 c #938A67",
"7 c #948B67",
"8 c #948B68",
"9 c #958C68",
"0 c #958C69",
"q c #968D69",
"w c #D0C086",
"e c #D1C48B",
"r c #D4C68D",
"t c #D5C78D",
"y c #D5C78E",
"u c #D6C88E",
"i c #F8ECBF",
/* pixels */
"&++&&::&&::&&&&:&&&&:&&&&&:&&&::::&&&&&&&====&&====&&%%+++++:+&&",
"wwww&wwwwwww3&www33&ww&&wwwwwwwwwwwwwwww3=wwwwwwwwww&;332wwwwww&",
"wiww&wwwiwww3&wiww3&wiww&&wwwwwwwwwww5553&wwwwwwiiwww332wwiww3&w",
"iwww&wwiww553&wiw53&www53&wwiwwwwwww5553,&wwwwwiwwwww3,&wiwww3&w",
"wwww&wwiw5533&wi5553&w553&wiwwwwww5553,,&w&wwwiwwwww3,&wiwwww3&w",
"www55&ww55533&w55553&w533&wiwwww555533,&w3&wwiww55533,&iwww553&w",
"w55555&w5553&ww55553&w533&wwwww555533,&w53&wiw555533,&www55533&w",
"555555&ww553&ww555533&533,&ww5555533,&ww53&iww555533,&w5555533&w",
"5555553&w533&w5555533&w33,&w5555533,,&w553&ww555533,&ww555553,&w",
"5555553&w53,&w5555333,&33,&w555553,,&w&533&w555533,,&w5555553,&w",
"55555533&w3,&w5555333,&3,,&w555533,&w5&53,&w555333,&355555553&w5",
"55555533&53&w55553333,,&,,&w55533,&w53&53,&555533,,&33555553,&w5",
"55555333,&,&333333333,,&,,&w5333,&w533&33,&55533,,&3&3555553,&55",
"33333333,&,&333333333,,,&,&3333,,&5333,&,,&5333,,&33&335553,&333",
"3333333,,,&333333333,,,,&,&333,,&53333,&,&3333,,,&3,&333533,&333",
"333333,,,,&33333333,,,,,&&&,3,,,&33333,,&3333,,,&33,,&3333,,&333",
",,,,,,,,,,&333,,,,,,,,,,&3&,,,,&33333,,,&33,,,,&33,,,&333,,&3,,,",
",,,,,,,,,,&,,,,,,,,,,,,,&3,&,,,&,,,,,,,,&,,,,,,&,,,,,&33,,,&,,,,",
",,,,,,,,,,&,,,,,,,,,,,,,&,,,&,,&,,,,,,,,&,,,,,&,,,,,,,&,,,,&,,,,",
"&&&&,,,,,,&,&&&&&&&&&&&,&,,,&&&&&&&&,,,,&,,,,&,,,,,,,,&,,,&,,,&&",
"qr2;&&,,,&&&92<;;@ r62<&&&&&.q722=;+&&,,&,&&&&&&&&&&,,&,&&&&&&o<",
"uq2;;*&%&4qe822;;@ qq221;;@@ uq22;;@ 2&&*&>$@ 97;;;&,&&&-;*@ @ 9",
"q222;;@&9qqu222::#O70q2;;@@ quq22;;@@ ;;;;;@@ yqq;;@&9qt2;;;@ qq",
"q22<;;@ 9qu0222;;;O7qq2;;@@ qu222;;;@X*;;;:$Xqt99;;@Xqqt2;;;@ qq",
"2222;;@ qqu22222;;@ qq;;;@@ qu2222;;@@ ;;;@@ qqq2;;@ quq2;;;@ qq",
"2222;;;@ qu22222;;@ q;;;@@ quq2222;;@@ ;;;@ quq22;;@ quq2;;;@ qq",
"2222;;;@ qu22222;;; ;;;;@@ quq2222;;;@ ;;@ quqq22;;@ qu222;@@ qu",
"2222;;;@ qu22222;;;@ ;;@@ qquq2222;;;@@ @@ quq222;;@ qq222;@ qqu",
"2222;;;@ qq222222;;@ ;@@@ qquq2222;;;@@ @ quq2222;;@ qq222;@ qqu",
"2222;;;@ qq222222;;@ ;@@ qquqq2222;;;@@ @ quq2222;;@ qq222;@ qqu",
"2222;;;@ qq2222222;;@ @@ qquq22222;;;;@@ quq22222;;@ qq222;@ qqu",
"2222;;;@ qq2222222;;@@  qqquq22222;;;;@@ quq22222;;@ qu222;; qqu",
"2222;;@@ qq22222222;;@ qqqqqq22222;;;;@@ qqq22222;; @qu222;;@ qq",
"2222;;@@ qq22222222;;@@ qqqqq22222;;;;@@ quq22222;@ qqu222;;@ qq",
"q222;;@@ qq22222222;;;@ qqqqq22222;;;;@ @ uq22222;@ qqu222;;@@ q",
"q222;;@ quq22222222;;;@@ qquq22222;;;;@ @ qu22222;@ qqu222;;;@ q",
"q22;;;@ quq22222222;;;@@ qquq22222;;;@@ ; quq2222;@ qqu222;;;;@ ",
"uq2;;;@ quq22222222;;;@@ qquq22222;;;@ q;@ uq222;;@  qq222;;;;@ ",
"uq2;;@@ qqu22222222;;;@@ qquq22222;;;@ q;@ quq22;;@  qq222;;;;@ ",
"uq2;;@@ qqu22222222;;;@@  qqu2222;;;@@ q;@@ uqq;;;@  qqq22;;;;@ ",
"quq;;@@ qquq2222222;;;@@ @ qu2222;;;@ qq;;@ qqq;;;@  quq22;;;@ 2",
" q;;;@ @ quq2222222;;;@ ;@ quq222;;;@ qq2;@@ q;;;;@ @ qu22;;;@ q",
" q;;@@ ; quq2222222;;;@ ;;@ uq22;;;; qu22;@@ q;;;@@ @ quq2;;;@ q",
"@ ;;@@ ;@ quq22222;;;;@ q;@ qu22;;;@ qu22;;@ ;;;;@ ;@ quq2;;;@ q",
"@ ;@@@ q@ quq22222;;;@@ q;@ qu22;;;@ qu22;;@ ;;;;@ ;@ qqq;;;@ qq",
"@@ @@ qq@ quqq2222;;;@ qq2; quq;;;@ qqu22;;@@ ;;@@ ;;@ qq;;;@ qq",
"q@ @@ qq;@ quq222;;;;@ qu2;@ qu;;;@ qqu222;@@ ;;@@ ;;@ qq;;@@ qq",
"q@@ @ qu;@ qqu222;;;@ qqu2;@ qq;;;@ qqu222;;@ ;;@@ q;@ qq;;@@ qq",
"q2@ @ qu2; qquq2;;;;@ qu22;@ q;;;@ qqqq222;;@ ;@@ qq;@ q;;;@ quq",
"22@  qquq;@ qqq;;;;; qqu22;@@ ;;;@ qqqq222;;@@ @@ qq;;@ ;;@@ quq",
"22;@ qqqu;@ qqq;;;;@ qu222;@@ ;;;@ qquq2222;;@ @@ qq;;@ ;;@@ quq",
"222@ qqqu2;@ q;;;;;@ qu22;;@@ ;;@ @ quq2222;;@ @ quq2;@ ;;@@ uqq",
"222;@ qqu2;@ ;;;;;@ qqu22;;@@ ;;@ @ quq2222;;@@  quq2;@ ;;@ quqq",
"222;@ qqu2;@ ;;;;;@ qu222;;@@ ;@ ;@ qqu2222;;@@  quq2;;@ ;@ quqq",
"222;; qqqu;;@ ;;;@ qqu222;;@@ ;@ ;;@ quq2222;;@ qquq2;;@ @@ quqq",
"2222;@ qqu2;@ ;;;@ qqu22;;;@ ;@ q;;@ quq2222;;@ qqq22;;@ @@ uqq2",
"2222;@ qqu2;;@ ;@ qqq222;;;@ @ qq;;; qquq222;;@@ qq222;;@ @ uqq2",
"2222;@ qqu2;;@ ; qquq222;;;@ @ qq;;;@ quq2222;@@ qq222;;@@ quqq2",
"2222;@@ qqu;;@ @ qquq222;;;@  qqq2;;@ qquq222;;@ quq22;;@@ quq22",
"2222;@@ qqu;;@@ qqqu2222;;;@ qqqq2;;@ qquq222;;@ quq22;;;@ quq22",
"2222;@@ qqu2;;@ qquq22222;;@ qqqq22;;@ qqq222;;;@ uq22;;;@ quq22",
"2222;@@ qqu2;;@ qquq22222;;@ qqqq22;;@ qquq22;;;@ uq22;;;@ quq22",
"2222;@@ qqu2;;@ qqu222222;;@ qqq222;;@ qquq22;;;@ qq22;;;@ qu222",
"2222;@@ qqq22;@ qqu222222;;;@ qq222;;@ qqqq22;;;@ qq22;;;@ qq222"
};
