/* XPM */
static char * tile_rock_2_fusion_xpm[] = {
"64 64 32 1",
" 	c #000000",
".	c #3C3A2F",
"+	c #474230",
"@	c #45402F",
"#	c #3C3829",
"$	c #333024",
"%	c #070606",
"&	c #D0C086",
"*	c #756D4C",
"=	c #F8ECBF",
"-	c #928967",
";	c #46412F",
">	c #6A6349",
",	c #554F3A",
"'	c #0B0A0A",
")	c #2B281C",
"!	c #696248",
"~	c #29271B",
"{	c #353124",
"]	c #4B4634",
"^	c #232017",
"/	c #1A1812",
"(	c #45412F",
"_	c #45402E",
":	c #343124",
"<	c #958C68",
"[	c #6B6447",
"}	c #968D69",
"|	c #D5C78D",
"1	c #D6C88E",
"2	c #D4C68D",
"3	c #0F0D0D",
"    .++..++.........+.....+...++++.......@@@@..@@@@..##$$$$$+$..",
" %%..&&&&..&&&&*..&&&=+.&&&&&&&&&&-.&&&**@&&&&&&&&&&.;**>&&&&&&.",
" %.&&&&..&&&&&**.&&&=&&&.&&&&&&==-..&&--*.&&&&&&&&&..**>&&=&&*.&",
" .&&&&.&&=&&&&*,.&&=&&&&.&&&&===-.&&&-........&&&&&.&*,.&=&&&*.&",
".&&&&.&==&&&--*,.&=&&&&&.&&&=&--.&&&&--*,.&&*.&=&&*.&,.&=&&&&*.&",
".&&-&&&&&----**.&=&&&&&&.&&==&..&&&&--**.&&&*.&=&&*.&,.=&&&--*.&",
".-&&&&&&-----*,.&&&&----*.&&&&&&&&&--**,.*-*,.=&&-*.=.&&&---**.&",
".&&=&&------*,.&&&------*.&&&&&&&&&-**,.&.**.&&&--.&=.&-----**.&",
".&=&&-------*,.&--------*,.&&&&&&&--**,.&-.,.&&--*.&&&&-----*,.&",
".&&&-------*,.&&--------*,.&&&&&&&-**,.&&-.,.&---*.&&&------*,.&",
".&&&-------*,.&--------**,.&&&&&&--*,,.&--,.&&--*,.&--------*.&-",
"'.&&------*,.&&-------**,..&&&&&--**,,.&-*,.&--**.&&-*-----*,.&-",
"%.&------**,.&-------**,.--.&&--***,,.&--**,.--*,.&--*-----*,.--",
"%.&----***,.&-------***,.-,.&--****,,.&-***,.-**.&&--**---*,.***",
" ..*******.***********,.-*,.&-****,,.&-****,,.*,.&-*****-**,.***",
"  .******,.**********,.-**,.&-***,,,.&-****,,.*,.****.****,,.***",
"%%.,*****,.*********,,.-**,.****,,,.&-*****,,.*.*****.***,,.*,,,",
"''%.,***,.*****,,,,,,.-**,,.***,,,.*-*****,,,,.**,,,,.**,,,.,,,,",
"''%.,,*,,.*,,,,,,,,,,.-**,,.**,,,,.******,,,,,.,,,,,,,.,,,,.,,,,",
"''%.,,,,,.,,,,,,,,,,,.,*,,,.,,,,,.,,,,,,,,,,,,.,,,,,,,.,,,.,,,..",
"%%%..,,,,.,,,..........,,,,,.,,,.....,,,,,,,,,,......,.,......)!",
"% ~{~.,,,....]]]]]{{{{{..,,,,...]{{{{..,,,,,,..^^/~]]...(;_:~:~<",
"% ~{{{...^^/~]]]]]{{{{{~^..../~[]{{{{{^..,...{{^^//~]<}|>;;;:~}}",
"%~>>>{{{^^^//~}}1}>>>>>~^^^/~/~]1>>>>{^/~.][{{{;;;:~}}}|>;;;:~}}",
"%~>>>>{{^;;::~}}1}>>>>>;~^//~;~}1}>>>>;/~]][{>>;;;;:~}1}>;;;:~}}",
"'~>>>>>>;;;::~}}1}>>>>>;~;{~};:~1}>>>;;:~~}}>>>;;;;:~}1}>;;;:~}}",
"'~>>>>>>;;;::~}}1}>>>>>;~;:~};:~}1}>>;;:~~}}>>>;;;;:~}1>>>;::~}1",
"% ~>>>>>;;;::~~}}1>>>>;;~::~};::~1}};;;:~~}}}>>;;;;:~}}>>>;:~}}1",
"% ~>>>>>;;;::~:~}1>>>>;;;~~}};;:~}}};;;:~~}1}>>;;;:~>}}>>>;:~}}1",
"% ~>>>>>;;;:~;:~}1}>>>;;;:~}}>;::~};;;;:~:~}1>>;;;:~}}}>>>;:~}}1",
"  ~>>>>>;;;:~;;:~1}>>;;;;~}1>>;::~};;;::~:~}1}>;;;:~}}}>>>;:~}}1",
"  ~>>>>;;;;:~};:~}1>>;;;:~}1>>;;:~;;;;:~;:~}1}>;;;:~}}1>>>;;~}}1",
"  %~>>>;;;::~};:~}1>>;;;:~}1>>;;:~;;;;:~;:~}}};;;:~}}}1>>>;;:~}}",
"%  ~>>>;;;:~}}>;~}1};;;:~}}1>>;;::~;;::~;;:~}};;;:~}}}1>>>;;:~}}",
"'% ~>>;;;;:~}1>;:~}1;;;:~}}1>>>;::~;;::~;;:~}};;::~}}}1>>>;;::~}",
"''%~>>;;;:~}}1>;:~}};;;:~}}1>>>;;:~;;::~};:~}};;::~}}}1>>>;;;:~}",
"%''~>;;;;:~}1>>;:~};;;:~}}}}>>>;;:~;::~}};:~};;;:~}1}}1>>>;;;;:~",
"%'%~;;;;;~}}1>>;::~;;;:~}}}}>>>;;::~::~}};;:~;;::~}1}}}>>>;;;;:~",
"%% ~;;;;:~}1>>>;::~;;;:~}}1}>>>>;;:~::~}};;:~;;::~}1}}}>>>;;;;:~",
"  ~;;;;;:~}1>>;;::~;;:~:~}1}>>>>;;:~:~}1}>;:~;;::~1}}}}}>>;;;;:~",
"  ~;;;;:~}}1>>;;::~;;:~:~}1}>>>>;;::~~}1}>;:~;;:~}1}}}1}>>;;;:~>",
"  ~;;;;:~}1>>>;;::~;:~;:~}}1>>>>;;::~~}1}>;;:~;:~}1}}~}1>>;;;:~}",
"  ~;;;:~}}1>>>;;::~;:~;;:~}1}>>>>;;:~}}1}>;;:~::~}1}}~}1}>;;;:~}",
"%%~;;;:~}}1>>;;;:~;:~};;:~}1}>>>>;;:~}}}>>;;:~::~1}}>~}1}>;;;:~}",
"%'~>;:~}}}>>>;;;:~:~}};;;~}}1}>>>;;:~<<}>>>;;:~:~1}}>~}}};;;:~}}",
"%'~>;~}}1}>>>;;;:~:~}};;;:~}1}>>>>;:~<<}>>>;;::~}1}}>:~}};;;:~}}",
"%'~{:~}}1}>>>;;;:~~}}}>;;:~}}1}>>>;$~<<1}>>;;::~}1}>>:~}};;::~}}",
"%')~~}}}1>>>>;;;:~}}}}>;;:~}}1}>>>;~~<<1}>>;;;:~}1}>>:~}};;::~}}",
"%%%%~}}1}>>*>@;;:~}}}|>>;;:~}}}>>;$~}<2<}>>;;;:~}1}>>:~};;;:~}1}",
"'%  ~}}1}>>*~@;;:~}}|}>>;;:~}}}!>;$~<2<<>>>;;;:~}1}>>;:~;;::~}1}",
"'%% ~}}1>>+$~@;;:~}}|<>>;;:$))}!;$~$<<<}>>>;;;:~}1>>>;:~;;::~}1}",
"%'% ~}}1>>+$~@;;$)~}}<>>;;:$$)!!;$~$<2<>>>>;;;:~}}>>>;:~;;::~1}}",
"''%%%~}}1>;:~;;;;$)<}}1>@;;::~;;:~:~}1}>>>>;;::~~}1}>;:~;;:~}1}}",
"%%%''~}}1>;:~;;;;$)<}1>>@;;::~;:~;:~}}1>>>>;;::~~}1}>;;:~;:~}1}}",
"%'%%'~}}}1;;:~;;;:~}}1>>@<;::~;:~;;:~}1}>>>>;;:~}}1}>;;:~::~}1}}",
"%''%%'~}}1>;:~;;;:~}}1>><;;:~;:~};;:~}1}>>>>;;:~}}}>>;;:~::~1}}>",
"%%''%'~}}1>;;:~;:~}}}>>><;;:~:~}};;;~}}1}>>>;;::~}}>>>;;:~:~1}}>",
"'%%%%%~}}1>;;:~;~}}1}>><;;;:~:~}};;;:~}1}>>>>;::~}}>>>;;::~}1}}>",
"%%%'''%~}}1;;:~:~}}1}>>>;;;:~~}}}>;;:~}}1}>>>;;:~}1}>>;;::~}1}>>",
" %''3''~}}1;;::~}}}1>><>;;;:~}}}}>;;:~}}1}>>>;;:~}1}>>;;;:~}1}>>",
" %%'3''~}}1>;;:~}}1}>>>>>;;:~}}}}>>;;:~}}}>>>;;;:~1}>>;;;:~}1}>>",
"  %'''%~}}1>;;:~}}1}>>>>>;;:~}}}}>>;;:~}}1}>>;;;:~1}>>;;;:~}1}>>",
"  %%%%%~}}1>;;:~}}1>>>>>>;;:~}}}>>>;;:~}}1}>>;;;:~}}>>;;;:~}1>>>",
"      %~}}}>>;:~}}1>>>>>>;;;:~}}>>>;;:~}}}}>>;;;:~}}>>;;;:~}}>>>"};
