/* XPM */
static char * tile_rock_2_fusion_inverted_xpm[] = {
"64 64 32 1",
" 	c #3C3A2F",
".	c #333024",
"+	c #474230",
"@	c #3C3829",
"#	c #45402F",
"$	c #000000",
"%	c #D0C086",
"&	c #6A6349",
"*	c #756D4C",
"=	c #46412F",
"-	c #928967",
";	c #F8ECBF",
">	c #070606",
",	c #554F3A",
"'	c #0B0A0A",
")	c #696248",
"!	c #2B281C",
"~	c #958C68",
"{	c #29271B",
"]	c #343124",
"^	c #45402E",
"/	c #45412F",
"(	c #4B4634",
"_	c #1A1812",
":	c #232017",
"<	c #353124",
"[	c #968D69",
"}	c #D5C78D",
"|	c #6B6447",
"1	c #D6C88E",
"2	c #0F0D0D",
"3	c #D4C68D",
"  .+.....@@  ####  ####       ++++   +     +         ++  ++ $$$$",
" %%%%%%&**= %%%%%%%%%%#**%%% -%%%%%%%%%% +;%%%  *%%%%  %%%%  >>$",
"% *%%;%%&**  %%%%%%%%% *--%%  -;;%%%%%% %%%;%%% **%%%%%  %%%% >$",
"% *%%%;% ,*% %%%%%        -%%% -;;;%%%% %%%%;%% ,*%%%%;%% %%%% $",
"% *%%%%;% ,% *%%;% *%% ,*--%%%% --%;%%% %%%%%;% ,*--%%%;;% %%%% ",
"% *--%%%; ,% *%%;% *%%% **--%%%%  %;;%% %%%%%%;% **----%%%%%-%% ",
"% **---%%% ; *-%%; ,*-* ,**--%%%%%%%%% *----%%%% ,*-----%%%%%%- ",
"% **-----% ;% --%%% ** % ,**-%%%%%%%%% *------%%% ,*------%%;%% ",
"% ,*-----%%%% *--%% , -% ,**--%%%%%%% ,*--------% ,*-------%%;% ",
"% ,*------%%% *---% , -%% ,**-%%%%%%% ,*--------%% ,*-------%%% ",
"-% *--------% ,*--%% ,--% ,,*--%%%%%% ,**--------% ,*-------%%% ",
"-% ,*-----*-%% **--% ,*-% ,,**--%%%%%  ,**-------%% ,*------%% '",
"-- ,*-----*--% ,*-- ,**--% ,,***--%% -- ,**-------% ,**------% '",
"*** ,*---**--%% **- ,***-% ,,****--% ,- ,***-------% ,***----% >",
"*** ,**-*****-% ,* ,,****-% ,,****-% ,*- ,*********** *******  >",
"*** ,,**** **** ,* ,,****-% ,,,***-% ,**- ,********** ,****** >$",
",,,* ,,*** ***** * ,,*****-% ,,,**** ,**- ,,********* ,*****, $>",
",,,, ,,,** ,,,,** ,,,,*****-* ,,,*** ,,**- ,,,,,,***** ,***, >>>",
",,,, ,,,, ,,,,,,, ,,,,,****** ,,,,** ,,**- ,,,,,,,,,,* ,,*,, >''",
"  ,,, ,,, ,,,,,,, ,,,,,,,,,,,, ,,,,, ,,,*, ,,,,,,,,,,, ,,,,, >>'",
")!      , ,      ,,,,,,,,,,     ,,, ,,,,,          ,,, ,,,,  $>'",
"~{]{]^=/   (({_::  ,,,,,,  <<<<(   ,,,,  <<<<<(((((    ,,, {<{>>",
"[[{]===&}[~({__::<<   ,  :<<<<<(|{_    :{<<<<<((((({_::   <<<{''",
"[[{]===&}[[[{]===<<<|( {_:<&&&&1({_{_:::{&&&&&[1[[{__:::<<<&&&{'",
"[[{]===&[1[{]====&&<|(({_=&&&&[1[{={__:{=&&&&&[1[[{]]==:<<&&&&{'",
"[[{]===&[1[{]====&&&[[{{]==&&&[1{]=[{<={=&&&&&[1[[{]]===&&&&&&{'",
"1[{]]=&&&1[{]====&&&[[{{]==&&[1[{]=[{]={=&&&&&[1[[{]]===&&&&&&{'",
"1[[{]=&&&[[{]====&&[[[{{]===[[1{]]=[{]]{==&&&&1[[{{]]===&&&&&{2'",
"1[[{]=&&&[[&{]===&&[1[{{]===[[[{]==[[{{===&&&&1[{]{]]===&&&&&{''",
"1[[{]=&&&[[[{]===&&1[{]{]====[{]]=&[[{]===&&&[1[{]={]===&&&&&{'>",
"1[[{]=&&&[[[{]===&[1[{]{]]===[{]]=&&1[{====&&[1{]=={]===&&&&&{'>",
"1[[{==&&&1[[{]===&[1[{]={]===={]==&&1[{]===&&1[{]=[{]====&&&&{'>",
"[[{]==&&&1[[[{]===[[[{]={]===={]==&&1[{]===&&1[{]=[{]]===&&&{>>$",
"[[{]==&&&1[[[{]===[[{]=={]]=={]]==&&1[[{]===[1[{=&[[{]===&&&{$$$",
"[{]]==&&&1[[[{]]==[[{]=={]]=={]]=&&&1[[{]===1[{]=&1[{]====&&{>$>",
"[{]===&&&1[[[{]]==[[{]=[{]]=={]==&&&1[[{]===[[{]=&1[[{]===&&{$$>",
"{]====&&&1[[1[{]===[{]=[[{]]={]==&&&[[[[{]===[{]=&&1[{]====&{>$>",
"{]====&&&[[[1[{]]=={]==[[{]]{]]==&&&[[[[{]==={]]=&&1[[{====={>>$",
"{]====&&&[[[1[{]]=={]==[[{]]{]==&&&&[1[[{]==={]]=&&&1[{]===={'>$",
"{]====&&[[[[[1{]]=={]=&[1[{]{]==&&&&[1[{]{]=={]]==&&1[{]====={>$",
"&{]===&&[1[[[1[{]=={]=&[1[{{]]==&&&&[1[{]{]=={]]==&&1[[{]===={>$",
"[{]===&&1[{[[1[{]={]==&[1[{{]]==&&&&1[[{]={]={]]==&&&1[{]===={>$",
"[{]===&[1[{[[1[{]]{]==&[1[[{]==&&&&[1[{]=={]={]]==&&&1[[{]==={>$",
"[{]===&[1[{&[[1{]]{]==&&[[[{]==&&&&[1[{]==[{]={]===&&1[[{]==={>$",
"[[{]===[[[{&[[1{]{]==&&&[~~{]==&&&[1[[{===[[{]{]===&&&[[[{]=&{$$",
"[[{]===[[{]&[[1[{]]==&&&[~~{]=&&&&[1[{]===[[{]{]===&&&[1[[{=&{$$",
"[[{]]==[[{]&&[1[{]]==&&[1~~{.=&&&[1[[{]==&[[[{{]===&&&[1[[{]<{>>",
"[[{]]==[[{]&&[1[{]===&&[1~~{{=&&&[1[[{]==&[[[[{]===&&&&1[[[{{!>>",
"[1[{]===[{]&&[1[{]===&&[~3~[{.=&&[[[{]==&&}[[[{]==#&*&&[1[[{>'''",
"[1[{]]=={]=&&[1[{]===&&&~~3~{.=&)[[[{]==&&[}[[{]==#{*&&[1[[{>'''",
"[1[{]]=={]=&&&1[{]===&&&[~~~.{.=)[!!.]==&&~}[[{]==#{.+&&1[[{>>>'",
"[[1{]]=={]=&&&[[{]===&&&&~3~.{.=))!..]==&&~[[{!.==#{.+&&1[[{$$>>",
"[[1[{]=={]=&[1[{{]]==&&&&[1[{]{]=={]]==#&1[[~!.===={]=&1[[{$$$>'",
"[[1[{]={]==&[1[{{]]==&&&&1[[{]={]={]]==#&&1[~!.===={]=&1[[{$$$>'",
"[[1[{]]{]==&[1[[{]==&&&&[1[{]=={]={]]=~#&&1[[{]==={]==1[[[{$>>>>",
"&[[1{]]{]==&&[[[{]==&&&&[1[{]==[{]={]==~&&1[[{]==={]=&1[[{$>>''>",
"&[[1{]{]==&&&[[{]]==&&&[1[[{===[[{]{]==~&&&[[[{]={]==&1[[{$$$>''",
"&[[1[{]]==&&&[[{]]=&&&&[1[{]===[[{]{]===~&&[1[[{={]==&1[[{>>>$>'",
"&&[1[{]]==&&[1[{]==&&&[1[[{]==&[[[{{]===&&&[1[[{]{]==1[[{'''>>$>",
"&&[1[{]===&&[1[{]==&&&[1[[{]==&[[[[{]===&~&&1[[[{]]==1[[{22''>$>",
"&&[1[{]===&&[1{]===&&&[[[{]==&&[[[[{]==&&&&&[1[[{]==&1[[{''''>$$",
"&&[1[{]===&&[1{]===&&[1[[{]==&&[[[[{]==&&&&&[1[[{]==&1[[{'>>>>$$",
"&&&1[{]===&&[[{]===&&[1[[{]==&&&[[[{]==&&&&&&1[[{]==&1[[{>>$$$$$",
"&&&[[{]===&&[[{]===&&[[[[{]==&&&[[{]===&&&&&&1[[{]=&&[[[{$$$$$$$"};
