/* XPM */
static char * tile15_xpm[] = {
"64 64 23 1",
" 	c #000000",
".	c #070606",
"+	c #0B0A0A",
"@	c #0F0D0D",
"#	c #29271B",
"$	c #968D69",
"%	c #D6C88E",
"&	c #6A6349",
"*	c #46412F",
"=	c #343124",
"-	c #3C3A2F",
";	c #D0C086",
">	c #756D4C",
",	c #928967",
"'	c #554F3A",
")	c #232017",
"!	c #353124",
"~	c #4B4634",
"{	c #1F1D16",
"]	c #2A271C",
"^	c #5A553F",
"/	c #807855",
"(	c #403B2C",
"      ..++@@@@@#$%$&&&&&&***=#$$&&&**=#$$$$&&***=#$$&&***=#$$&&&",
" ..... ..++++++#$%$&&&&&&&**=#$%&&&**=#$$%$&&***=#$$&&***=#$$&&&",
" .+++..+.++....#$$$&&&&&&&***=#%&&&**=#$$$&&&***=#$$&&***=#%$&&&",
" .++++.+....++.#$$$&&&&&&&***=#%&&&**=#$%$&&&***=#$$&&**==#%&&&&",
"  .++..++..++++#$$$&&&&&&&***=#$&&&**=#$%&&&&***=#$$&&**==#%&&&&",
"  ...  ..+..++.#$$$$&&&&&&***=#$$&&**=#$%&&&****=#$$&&**=#$%&&&&",
" .     .+.+....#$$$$&&&&&&***=#$%&***=#%$&&&***==#$&&***=#$%&&&&",
" .... ..++.   .#$$$$&&&&&&***=#$%&**=#$%$&&&***==#$&&**==#$%&&&&",
"..++. .++++.   #$%$$&&&&&&***=#$$***=#$%$&&&***=#$$&***==#$$&&&&",
"+.+.  .++++##  #$%$$&&&&&&***=##$***=#%$&&&&***=#$$&***=#$$$&&&&",
"+..+. ...+#**##=#%$$&&&&&&***=##***==#%$&&&****=#$$&**==#$$&&&&&",
"+...     #***=#=#%$$&&&&&&***=##***=#$%$&&&****=#$&***=##$$&&&&&",
"..      #***==#=#$%$&&&&&&***=#=#**=#$%&&&&***==#$****=##$%$&&&*",
".  --  #***==#*=#$%$&&&&&&***=#=#*==#%$&&&****=#=#***=#=#$%$&&&*",
"--;;;-.#***==#*=#$%$&&&&&&**==#*=#=#$%$&&&****=#=#***=#=#$$%&&**",
";>-;;-#***==#$**#$%$&&&&&***==#*=#=#$%$&&&****=#=#**=#*==#$%&&**",
";>-;,-#***==#$**=#%$&&&&&**==#$**=#$$%$&&****==#*=#*=#**=#$$$&*=",
";>-;,>-**==#$$**=#$%$&&&&**==#$$*=#$$%$&&****==#*=#==#**==#$$&*=",
",>-;,>-*==#$%$**=#$%$&&&***==#$$**=#$%$&*****=#$**=#=#$**=#$$*=#",
",>-;,>-#=#$$$$***#$%$&&&***=#$$&**=#$%$&****==#$***=#$$***=#$*=#",
",>-;,>-#=#$%$&&**=#%$&&&**==#$$&&**=#$$*****=#$$***=#$$$**=#$=#&",
",>-,,>-##$$%$&&**=#$$&&&**==#%$&&**=#&*****==#$$***=#$$$***=#=#$",
",>-,>>-#$$$%&&&**=#$$$&**==#$%$&&**==#*****==#%$$**=#$$%&***=#$$",
",>-,>'-#$$%$&&&***#$$$&**==#$%&&&***=#*****=#$%$$**=#$$%&***=#$$",
">>-,>'-#$$%&&&&&**=#$$***==#$%&&&&**==#***==#$$$&**=#$%$&***=#$$",
">>-,'-)=#$%&&&&&**=#$***==#$%$&&&&**==#***=#$%$&&**=#$%$&***=#$$",
">>->'-)=#$%&&&&&***#****==#$%$&&&&***=#**=#$%$$&&**=#$%&&&*==#$%",
">'->'-*=#$%&&&&&***=#**==#$$%$&&&&***==#==#$%$&&&**=#$$&&&*=#$$%",
"''-'-)*=#$$&&&&&&**=#*===#$$%$&&&&***==#=#$%$&&&&**=#$$&&&*=#$$%",
"'-!-))*=#$$&&&&&&**=#*==#$$%$$&&&&***==#=#$%$&&&&**=#$$&&&*=#$$%",
"'-!!)**=#$$&&&&&&&**=#==#$$%$&&&&&****==#$%$&&&&&**=#$$&&&*=#$$%",
"'-&!***=#$$&&&&&&&**==##$$$%$&&&&&****==#$%$&&&&&**=#$%&&&**#$$%",
"-!&&**==#$$&&&&&&&&**=#$$$$$$&&&&&****==#$$$&&&&&**#=$%&&&**=#$$",
"!!&&**==#$$&&&&&&&&**==#$$$$$&&&&&****==#$%$&&&&&*=#$$%&&&**=#$$",
"~&&&**==#$$&&&&&&&&***=#$$$$$&&&&&****=#=#%$&&&&&*=#$$%&&&**==#$",
"$&&&**{#$%$&&&&&&&&***==#$$%$&&&&&****=#=#$%&&&&&*=#$$%&&&***=#$",
"$&&**]{#$%$&&&&&&&&***==#$$%$&&&&&***==#*#$%$&&&&*=#$$%&&&****=#",
"%$&*]]{#^%$&&&&&&&&***==#$$%$&&&&&***=#$*=#%$&&&**=##$$&&&****=#",
"/^(]]{{#^$%&&&&&&&&***==#$$%$&&&&&***=#$*=#$%$&&**=##$$&&&****=#",
"/^(]]{{#^$%&&&&&&&&***==##$$%&&&&***==#$*==#%$$***=##$$$&&****=#",
"^/^]]{{#^^%$&&&&&&&***==#=#$%&&&&***=#$$**=#$$$***=##$%$&&***=#&",
"#^]]]{#{#^/$&&&&&&&***=#*=#$%$&&&***=#$$&*==#$****=#=#$%&&***=#$",
"#^]]{{#]#^/^&&&&&&&***=#**=#%$&&****#$%&&*==#$***==#=#$%$&***=#$",
"{#]]{{#]{#^/$&&&&&****=#$*=#$%&&***=#$%&&**=#****=#*=#$%$&***=#$",
"{#]{{{#^{#^/^&&&&&***==#$*=#$%&&***=#$%&&**=#****=#*=#$$$***=#$$",
"{{#{{#^^{#^/^$&&&&***=#$$&*#$%$***=#$$%&&**==#**==#**=#$$***=#$$",
"^{#{{#^^]{#^/$&&&****=#$%&*=#$%***=#$$%&&&*==#**==#**=#$$**==#$$",
"^{{#{#^/]{#^^/&&&***=#$$%&*=#$$***=#$$%&&&**=#**==#$*=#$$**==#$$",
"#({#{#^/(]#^^/$&****=#$%&&*=#$***=#$$$$&&&**=#*==#$$*=#$***=#$%$",
"+#{##.#/^]{#^^$*****#$$%&&*==#***=#$$$$&&&**==#==#$$**=#**==#$%$",
"+.# #  #/]{#^^$****=#$%&&&*==#***=#$$%$&&&&**=#==#$$**=#**==#$%$",
".+. ... #(]{#^]****=#$%&&**==#**=#=#$%$&&&&**=#=#$%$&*=#**==#%$$",
"++...+...#]##]]***=#$$%&&**==#**=#=#$%$&&&&**==##$%$&*=#**=#$%$$",
"...+++++..#.#]]***=#$%&&&**==#*=#*=#$$%&&&&**==##$%$&**=#*=#$%$$",
".+..++@+..+++#]**=#$$%&&&**==#*=#**=#$%$&&&&**=#$$%$&**=#==#$%$$",
".++..+@++.+@+#]**=#$$%&&***=#*=#$**=#$%$&&&&**=#$$$&&**=#==#%$$&",
"..++.+++++++++#*=#$$$&&&***=#=#$$***#$$%$&&&**==#$$&&&**=#=#%$$&",
"+......++@++..#*#$$%$&&&***=#=#$$***=#$%$&&&&*==#$$&&&**==#$%$$&",
"...+++..+++.. #=#$$%$&&&***=##$$$&**=#$$%$&&&**=#$%$&&**==#$%$&&",
" .++@++.....   #$$$%&&&&***=#$$$$&**=#$$%$&&&**=#$%$&&***=#$%$&&",
" ..+@++.     ..#$$%$&&&&&**=#$$$$&&**=#$$$&&&***=#%$&&***=#$%$&&",
"  .+++..  ....+#$$%$&&&&&**=#$$$$&&**=#$$%$&&***=#%$&&***=#$%$&&",
"  .........++++#$$%&&&&&&**=#$$$&&&**=#$$%$&&***=#$$&&***=#$%&&&",
"      .+++++@@@#$$%&&&&&&***=#$$&&&**=#$$$$&&***=#$$&&***=#$$&&&"};
