/* XPM */
static char * tile27_xpm[] = {
"64 64 30 1",
" 	c #000000",
".	c #070606",
"+	c #0B0A0A",
"@	c #0F0D0D",
"#	c #3C3A2F",
"$	c #D0C086",
"%	c #756D4C",
"&	c #F8ECBF",
"*	c #928967",
"=	c #554F3A",
"-	c #353124",
";	c #232017",
">	c #1A1812",
",	c #4B4634",
"'	c #3C3829",
")	c #29271B",
"!	c #6B6447",
"~	c #968D69",
"{	c #6A6349",
"]	c #15130E",
"^	c #100E0B",
"/	c #46412F",
"(	c #1F1D16",
"_	c #2A271C",
":	c #D6C88E",
"<	c #343124",
"[	c #807855",
"}	c #5A553F",
"|	c #403B2C",
"1	c #131111",
"      ..++@@@@@@+++..  .++@+. .     .++..++++++...              ",
" ..... ..+++++++@+++. ..+@++.       ..+.+++.++++..... ......... ",
" .+++..+.++....+++++..+++++..      ...+.++.......+++. ..++++++. ",
" .++++.+....++...++..++@++..  ......+......+++++++++.  ..++@+.. ",
"  .++..++..++++...+...+++..  ..++++.+++.+..+@@@@+++..   ..+++.  ",
"  ...  ..+..++..+.+. .....   ..++@+..++.+.+++++++...  .   ....  ",
" .     .+.+....+....          ..++++.++++..+......  .....       ",
" .... ..++.   ... .....    ..  ......+++.....      ..+++++.  ...",
"..++. .++++.     ..+++.   .....     .....  .  ...  .++@+... ....",
"+.+.  .++++.   ...+++..   .++++..   . ..     ..+. ..+@++.+..++.+",
"+..+. ...++.   ..++++.    .+@@++..       .....++...++++..+.+++.+",
"+...     ..  .. ...++.   .++@@@++.   ... .+++++++..+++..+..+@+.+",
"..          ..+.. ..+.   .++++++.   ..+. .+@@@@@+...++. .+++@+.+",
".  ..#################...........   .####.++@@@++. .++. .+@@@+..",
"######$$$$$$%#$$#%%#$$##++++.     ###$$$%###########... .++++###",
"$$$$#$$$&$$$%#$&$$%#$&$$####.    #$$$***%#$$$$$$$$$$#########%#$",
"$$$$#$$&$$**%#$&$*%#$$$*%#$$#####$$$***%=#$$$$$&$$$$$%=#$$$$$%#$",
"$$$$#$$&$**%%#$&***%#$**%#$&$$$$$$***%==#$#$$$&$$$$$%=#$&$$$$%#$",
"*****#$$***%%#$****%#$*%%#$&$$$$****%%=#$%#$$&$$***%%=#&$$$**%#*",
"******#$***%#$$****%#$*%%#$$$$$****%%=#$*%#$&$****%%=#$$$***%%#*",
"******#$$**%#$$****%%#*%%=#$$*****%%=#$$*%#&$$****%%=#$*****%%#*",
"******%#$*%%#$*****%%#$%%=#$*****%%==#$**%#$$****%%=#$$*****%=#*",
"******%#$*%=#$****%%%=#%%=#$*****%==#$#*%%#$****%%==#$******%=#*",
"******%%#$%=#$****%%%=#%==#$****%%=#$*#*%=#$***%%%=#%*******%#**",
"******%%#*%#$****%%%%==#==#$***%%=#$*%#*%=#****%%==#%%*****%=#**",
"*****%%%=#=#%%%%%%%%%==#==#$*%%%=#$*%%#%%=#***%%==#%#%*****%=#**",
"%%%%%%%%=#=#%%%%%%%%%===#=#%%%%==#*%%%=#==#*%%%==#%%#%%***%=#%%%",
"%%%%%%%===#%%%%%%%%%====#=#%%%==#*%%%%=#=#%%%%===#%=#%%%*%%=#%%%",
"%%%%%%====#%%%%%%%%=====###=%===#%%%%%==#%%%%===#%%==#%%%%==#%%%",
"==========#%%%==========#%#====#%%%%%===#%%====#%%===#%%%==#%===",
"==========#=============#%=#===#========#======#=====#%%===#====",
"==========#=============#===#==#========#=====#=======#====#====",
"####======#=###########=#===########====#====#========#===#===##",
"----##===###-------;;>>#####,-----;;##==#=##########==#=######,,",
",---;;#'#,,--------;;;>),,,,,-----;;;;##>#!,-----;>#=###--;;>>),",
"~{{{;]^#,!,-{{{{{{{///(>),,!~{{{{{//;;>)>),!-----;>)#,!---;;;>)~",
"~{{/__^),:~{{{{{{{{//_(()~~:~{{{{{///<>)/)~:~{{{{/<),,!-{{////()",
":~{___()~:~{{{{{{{{//_(()~~:~{{{{{///()~/<):~{{{//<))~~{{{///_()",
"[}|__(()~~:{{{{{{{{/__(()~~:~{{{{{///()~/()~:~{{//())~~{{{//__()",
"[}|__(()~~:{{{{{{{{___(())~~:{{{{///(()~_(():~~//_())~~~{{/___()",
"}[}__(()~~:~{{{{{{|___(()()~:{{{{//_()}}__()~~~/__())~:~{{___()|",
")}___()()~:~{{{{{||___()_()~:~{{{/__()}}|_(()~/___()()~:{|___()}",
")}__(()_)~:~{{{{|||___()__():~{{/___)}[||_(()}___(()()}[}|___()}",
"()__(()_()~:~{{|||____)|}_()~:||___()}[||__()____()_()}[}|___()}",
"()_((()}()}:}|||||___)(|}_()}[||___()}[||__()____()_()}}}___()}}",
"(()(()}}()}[}}||||__)((}}|_)}[}___()}}[||__(()__(()__()}}___()}}",
"}()(())}_()}[}|||__)_(|}[|_()}[___()}}[|||_(()__(()__()}}__(()}}",
"}(()())[_()}}[|||__)((}}[|_))}}___())}[|||__()__(()}_()}}__(()}}",
"}|()() )|_)}}[}|__).))}[||).)}___()  )}|||__))_(()+)_()}___()+))",
")|) ). .)).)}}}_))+.  ))))+..)___() ..)|||))..)(()+@))+)__(()+++",
"+).     ..+)}}})+...  ..++++..)__) ..++))).  .)().+@1@@)__(()..+",
".+. ...  .++))) ..     ..+@+++.))  .++@+++.    ) .+@11@@)_(() ..",
"++...+....+....   ....  .+++@++.   .+@@+..       .+@@@@@@)()  .+",
"...+++++.......  ..++.. ...+++..   .+@++. .....  .++++@@++)   .+",
".+..++@+..+++...  .+++..  .++..    .+++.. .++++.. ...++++.. ....",
".++..+@++.+@++... .+++..  ...    .....+. .++@@++.   ...... ..++.",
"..++.++++++++++.. .++..    ..   .... ... .+@@@@+.            .++",
"+......++@++....  .... ......  ..++..   .++@1@@+.   ......... .+",
"...+++..+++..     .. ...+++++  .+++++.  .+@@@@++.   .+++++++.. .",
" .++@++.....    .   ..+++@@+.. .+++++.. .++++++.    .+@@@@@++. .",
" ..+@++.     ....  ..++@+++... ..++...  ........    .+@@@++++.  ",
"  .+++..  ....++.. ..++++...+.  ....    .+++..     .++++++....  ",
"  .........++++++.  ......+++..      .....+++..    ........     ",
"      .+++++@@@@+...   ..+++..       .++..++++..                "};
