/* XPM */
static char * tile_rock_4_xpm[] = {
"64 64 10 1",
" 	c #000000",
".	c #070606",
"+	c #0B0A0A",
"@	c #0F0D0D",
"#	c #29271B",
"$	c #968D69",
"%	c #D6C88E",
"&	c #6A6349",
"*	c #46412F",
"=	c #343124",
"      ..++@@@@@#$%$&&&&&&***=#$$&&&**=#$$$$&&***=#$$&&***=#$$&&&",
" ..... ..++++++#$%$&&&&&&&**=#$%&&&**=#$$%$&&***=#$$&&***=#$$&&&",
" .+++..+.++....#$$$&&&&&&&***=#%&&&**=#$$$&&&***=#$$&&***=#%$&&&",
" .++++.+....++##$$$&&&&&&&***=#%&&&**=#$%$&&&***=#$$&&**==#%&&&&",
"  .++..++..+++##$$$&&&&&&&***=#$&&&**=#$%&&&&***=#$$&&**==#%&&&&",
"  ...  ..+..++##$$$$&&&&&&***=#$$&&**=#$%&&&****=#$$&&**=#$%&&&&",
" .     .+.+..#=#$$$$&&&&&&***=#$%&***=#%$&&&***==#$&&***=#$%&&&&",
" .... ..++.  #=#$$$$&&&&&&***=#$%&**=#$%$&&&***==#$&&**==#$%&&&&",
"..++. .++++. #=#$%$$&&&&&&***=#$$***=#$%$&&&***=#$$&***==#$$&&&&",
"+.+.  .++++.#==#$%$$&&&&&&***=##$***=#%$&&&&***=#$$&***=#$$$&&&&",
"+..+. ...++.#===#%$$&&&&&&***=##***==#%$&&&****=#$$&**==#$$&&&&&",
"+...     .. #=*=#%$$&&&&&&***=##***=#$%$&&&****=#$&***=##$$&&&&&",
"..         #==*=#$%$&&&&&&***=#=#**=#$%&&&&***==#$****=##$%$&&&*",
".  ..    ..#=**=#$%$&&&&&&***=#=#*==#%$&&&****=#=#***=#=#$%$&&&*",
"  ..+...   #=&*=#$%$&&&&&&**==#*=#=#$%$&&&****=#=#***=#=#$$%&&**",
"  .++++..  #&$**#$%$&&&&&***==#*=#=#$%$&&&****=#=#**=#*==#$%&&**",
"...++++..  #&$**=#%$&&&&&**==#$**=#$$%$&&****==#*=#*=#**=#$$$&*=",
"++....+.   #$$**=#$%$&&&&**==#$$*=#$$%$&&****==#*=#==#**==#$$&*=",
"++.  ...    #$**=#$%$&&&***==#$$**=#$%$&*****=#$**=#=#$**=#$$*=#",
"++.         #$***#$%$&&&***=#$$&**=#$%$&****==#$***=#$$***=#$*=#",
"........    #&&**=#%$&&&**==#$$&&**=#$$*****=#$$***=#$$$**=#$=#&",
". ..+++..   #&&**=#$$&&&**==#%$&&**=#&*****==#$$***=#$$$***=#=#$",
". ..++++... #&&**=#$$$&**==#$%$&&**==#*****==#%$$**=#$$%&***=#$$",
".  ........ #&&***#$$$&**==#$%&&&***=#*****=#$%$$**=#$$%&***=#$$",
"..          #&&&**=#$$***==#$%&&&&**==#***==#$$$&**=#$%$&***=#$$",
"+.    ......#&&&**=#$***==#$%$&&&&**==#***=#$%$&&**=#$%$&***=#$$",
"+.   ..+++++.#&&***#****==#$%$&&&&***=#**=#$%$$&&**=#$%&&&*==#$%",
".  ...++@++++#&&***=#**==#$$%$&&&&***==#==#$%$&&&**=#$$&&&*=#$$%",
".  .+++@@+...#&&&**=#*===#$$%$&&&&***==#=#$%$&&&&**=#$$&&&*=#$$%",
". ..+@++++.   #&&**=#*==#$$%$$&&&&***==#=#$%$&&&&**=#$$&&&*=#$$%",
"  .++@+....  .#&&&**=#==#$$%$&&&&&****==#$%$&&&&&**=#$$&&&*=#$$%",
"  .++@+.    ..#&&&**==##$$$%$&&&&&****==#$%$&&&&&**=#$%&&&**#$$%",
"  ..+++..  ..+#&&&&**=#$$$$$$&&&&&****==#$$$&&&&&**#=$%&&&**=#$$",
".  ..+++.  .++#&&&&**==#$$$$$&&&&&****==#$%$&&&&&*=#$$%&&&**=#$$",
"+.  .....  .+@#&&&&***=#$$$$$&&&&&****=#=#%$&&&&&*=#$$%&&&**==#$",
"++.        .++#&&&&***==#$$%$&&&&&****=#=#$%&&&&&*=#$$%&&&***=#$",
".++. ...   ..#&&&&&***==#$$%$&&&&&***==#*#$%$&&&&*=#$$%&&&****=#",
".+. ..+..    #&&&&&***==#$$%$&&&&&***=#$*=#%$&&&**=##$$&&&****=#",
".. ..+++.. ..#&&&&&***==#$$%$&&&&&***=#$*=#$%$&&**=##$$&&&****=#",
"   .++@++.  .#&&&&&***==##$$%&&&&***==#$*==#%$$***=##$$$&&****=#",
"   .+++++.  .#&&&&&***==#=#$%&&&&***=#$$**=#$$$***=##$%$&&***=#&",
"    ......   #&&&&&***=#*=#$%$&&&***=#$$&*==#$****=#=#$%&&***=#$",
"      ..  ...#&&&&&***=#**=#%$&&****#$%&&*==#$***==#=#$%$&***=#$",
".. ..   ..++++#&&&****=#$*=#$%&&***=#$%&&**=#****=#*=#$%$&***=#$",
".+....  .++@@+#&&&***==#$*=#$%&&***=#$%&&**=#****=#*=#$$$***=#$$",
".+.++.  .+++++#&&&***=#$$&*#$%$***=#$$%&&**==#**==#**=#$$***=#$$",
".+.++.  ..+...#&&****=#$%&*=#$%***=#$$%&&&*==#**==#**=#$$**==#$$",
".+..+.   ...  #&&***=#$$%&*=#$$***=#$$%&&&**=#**==#$*=#$$**==#$$",
"......        #&****=#$%&&*=#$***=#$$$$&&&**=#*==#$$*=#$***=#$%$",
"+.  .. ...... #*****#$$%&&*==#***=#$$$$&&&**==#==#$$**=#**==#$%$",
"+..     ..++..#****=#$%&&&*==#***=#$$%$&&&&**=#==#$$**=#**==#$%$",
".+. ...  .+++..#***=#$%&&**==#**=#=#$%$&&&&**=#=#$%$&*=#**==#%$$",
"++...+....+....#**=#$$%&&**==#**=#=#$%$&&&&**==##$%$&*=#**=#$%$$",
"...+++++.......#**=#$%&&&**==#*=#*=#$$%&&&&**==##$%$&**=#*=#$%$$",
".+..++@+..+++..#*=#$$%&&&**==#*=#**=#$%$&&&&**=#$$%$&**=#==#$%$$",
".++..+@++.+@++.#*=#$$%&&***=#*=#$**=#$%$&&&&**=#$$$&&**=#==#%$$&",
"..++.++++++++++.##$$$&&&***=#=#$$***#$$%$&&&**==#$$&&&**=#=#%$$&",
"+......++@++....#$$%$&&&***=#=#$$***=#$%$&&&&*==#$$&&&**==#$%$$&",
"...+++..+++..   #$$%$&&&***=##$$$&**=#$$%$&&&**=#$%$&&**==#$%$&&",
" .++@++.....    #$$%&&&&***=#$$$$&**=#$$%$&&&**=#$%$&&***=#$%$&&",
" ..+@++.     ...#$%$&&&&&**=#$$$$&&**=#$$$&&&***=#%$&&***=#$%$&&",
"  .+++..  ....+#$$%$&&&&&**=#$$$$&&**=#$$%$&&***=#%$&&***=#$%$&&",
"  .........++++#$$%&&&&&&**=#$$$&&&**=#$$%$&&***=#$$&&***=#$%&&&",
"      .+++++@@@#$$%&&&&&&***=#$$&&&**=#$$$$&&***=#$$&&***=#$$&&&"};
