/* XPM */
static char * tile28_xpm[] = {
"64 64 31 1",
" 	c #000000",
".	c #070606",
"+	c #0B0A0A",
"@	c #0F0D0D",
"#	c #3C3A2F",
"$	c #D0C086",
"%	c #756D4C",
"&	c #F8ECBF",
"*	c #928967",
"=	c #554F3A",
"-	c #29271B",
";	c #353124",
">	c #232017",
",	c #1A1812",
"'	c #4B4634",
")	c #3C3829",
"!	c #6B6447",
"~	c #201D16",
"{	c #15130E",
"]	c #6A6349",
"^	c #46412F",
"/	c #343124",
"(	c #968D69",
"_	c #100E0B",
":	c #D6C88E",
"<	c #1F1D16",
"[	c #5A553F",
"}	c #2A271C",
"|	c #403B2C",
"1	c #807855",
"2	c #131111",
"      ..++@@@@@@+++..  .++@+. .     .++..++++++...              ",
" ..... ..+++++++@+++. ..+@++.       ..+.+++.++++..... ......... ",
" .+++..+.++....+++++..+++++..      ...+.++.......+++. ..++++++. ",
" .++++.+....++...++..++@++..  ......+......+++++++++.  ..++@+.. ",
"  .++..++..++++...+...+++..  ..++++.+++.+..+@@@@+++..   ..+++.  ",
"  ...  ..+..++..+.+. .....   ..++@+..++.+.+++++++...  .   ....  ",
" .     .+.+....+....          ..++++.++++..+......  .....       ",
" .... ..++.   ... .....    ..  ......+++.....      ..+++++.  ...",
"..++. .++++.     ..+++.   .....     .....  .  ...  .++@+... ....",
"+.+.  .++++.   ...+++..   .++++..   . ..     ..+. ..+@++.+..++.+",
"+..+. ...++.   ..++++.    .+@@++..       .....++...++++..+.+++.+",
"+...     ..  .. ...++.   .++@@@++.   ... .+++++++..+++..+..+@+.+",
"..          ..+.. ..+.   .++++++.   ..+. .+@@@@@+...++. .+++@+.+",
".  .. ################...........   .####.++@@@++. .++. .+@@@+..",
"  ..+#$$$$$$%#$$#%%#$$##++++.     ###$$$%###########... .+++++..",
"  .##$$$&$$$%#$&$$%#$&$$####.    #$$$***%#$$$$$$$$$$#######++.. ",
"..#$#$$&$$**%#$&$*%#$$$*%#$$#####$$$***%=#$$$$$&$$$$$%=#$$$##. .",
"+#$$#$$&$**%%#$&***%#$**%#$&$$$$$$***%==#$#$$$&$$$$$%=#$&$$$$#..",
"+#***#$$***%%#$****%#$*%%#$&$$$$****%%=#$%#$$&$$***%%=#&$$$**%#+",
"+#****#$***%#$$****%#$*%%#$$$$$****%%=#$*%#$&$****%%=#$$$***%%#+",
"#*****#$$**%#$$****%%#*%%=#$$*****%%=#$$*%#&$$****%%=#$*****%%#+",
"#*****%#$*%%#$*****%%#$%%=#$*****%%==#$**%#$$****%%=#$$*****%=#.",
"#*****%#$*%=#$****%%%=#%%=#$*****%==#$#*%%#$****%%==#$******%=#+",
"#*****%%#$%=#$****%%%=#%==#$****%%=#$*#*%=#$***%%%=#%*******%#*#",
"#*****%%#*%#$****%%%%==#==#$***%%=#$*%#*%=#****%%==#%%*****%=#*#",
"#****%%%=#=#%%%%%%%%%==#==#$*%%%=#$*%%#%%=#***%%==#%#%*****%=#*#",
"#%%%%%%%=#=#%%%%%%%%%===#=#%%%%==#*%%%=#==#*%%%==#%%#%%***%=#%%#",
"#%%%%%%===#%%%%%%%%%====#=#%%%==#*%%%%=#=#%%%%===#%=#%%%*%%=#%%#",
"#%%%%%====#%%%%%%%%=====###=%===#%%%%%==#%%%%===#%%==#%%%%==#%%#",
"#=========#%%%==========#%#====#%%%%%===#%%====#%%===#%%%==#%=#.",
" #========#=============#%=#===#========#======#=====#%%===#==#.",
"  #=======#=============#===#==#========#=====#=======#====#=#+.",
"  .#======#=###########=#===########====#====#========#===#=#.. ",
".  -##===###;;;;;;;>>,,#####';;;;;>>##==#=##########==#=####-   ",
"+. ->>#)#'';;;;;;;;>>>,-''''';;;;;>>>>##,#!';;;;;>,#=###;~{{-. .",
"++.->>,#'!';]]]]]]]^^^/,-''!(]]]]]^^>>,-,-'!;;;;;>_-#'!;~~{{-  .",
".++.-^,-':(]]]]]]]]^^^/<-[(:(]]]]]^^^/,-^-(:(]]]]}<-''!~||}}-. .",
".+. -^<-[:(]]]]]]]]^^^<<-[[:(]]]]]^^^/-(^/-:(]]]}}<-'([|||}}-.. ",
".. .-<<-[[:]]]]]]]]^^}<<-[[1(]]]]]^^}<-(^/-(:(]|}}<-[[[|||}-++. ",
"   .-<<-[[1]]]]]]]]^}}<<--[[:]]]]^}}<<-[^/<-:([}}}<-|[[[|}}-@+. ",
"   .+-<-[[1(]]]]]]]}}}<<-<-[1]]]]}}}<-[[}}<-[[[}}}<--[1[|}}-@+. ",
"    ..-.-[1[]]]]]]|}}}<-}<-[1[|||}}}<-[[|}<<-[}}}}<-<-[1}}-@@+. ",
"      ..-[1[||]]]||}}}<-}}<-1[||}}}}-[1||}<<-[}}}<<-<-[1}}-@++. ",
".. ..   .-[1[|||||}}}}-|[}<-[1||}}}<-[1||}}<-}}}}<-}<-[1}-+++.. ",
".+....  .+-1[|||||}}}-<|[}<-[1||}}}<-[1||}}<-}}}}<-}<-[}}-....  ",
".+.++.  .+-1[[||||}}-<<[[|}-[1[}}}<-[[1||}}<<-}}<<-}- -}-       ",
".+.++.  ..+-1[|||}}-<<|[1}}<-[1}}}<-[[1|||}<<-}}<<-}-  -      ..",
".+..+.   ...-1|||}}-<}[[}}<--[[}}}<--[1|||}}<-}}<<--...    .....",
"......       -[|}}-.--}}}<-.-[}}}<-  -[||}}}--}<<-+++++..  ..+++",
"+.  .. ...... -}--+.  ----+..-}}<<- ..-}}}--..-<<-+@@@++..  .+++",
"+..     ..++.. -+...  ..++++..-<<- ..++---.  .-<-.+@2@@++.  ...+",
".+. ...  .+++.. ..     ..+@+++.--  .++@+++.    - .+@22@@++.   ..",
"++...+....+....   ....  .+++@++.   .+@@+..       .+@@@@@@+.   .+",
"...+++++.......  ..++.. ...+++..   .+@++. .....  .++++@@++.   .+",
".+..++@+..+++...  .+++..  .++..    .+++.. .++++.. ...++++.. ....",
".++..+@++.+@++... .+++..  ...    .....+. .++@@++.   ...... ..++.",
"..++.++++++++++.. .++..    ..   .... ... .+@@@@+.            .++",
"+......++@++....  .... ......  ..++..   .++@2@@+.   ......... .+",
"...+++..+++..     .. ...+++++  .+++++.  .+@@@@++.   .+++++++.. .",
" .++@++.....    .   ..+++@@+.. .+++++.. .++++++.    .+@@@@@++. .",
" ..+@++.     ....  ..++@+++... ..++...  ........    .+@@@++++.  ",
"  .+++..  ....++.. ..++++...+.  ....    .+++..     .++++++....  ",
"  .........++++++.  ......+++..      .....+++..    ........     ",
"      .+++++@@@@+...   ..+++..       .++..++++..                "};
