/* XPM */
static char * tile_rock_6_xpm[] = {
"64 64 16 1",
" 	c #6A6349",
".	c #46412F",
"+	c #343124",
"@	c #29271B",
"#	c #968D69",
"$	c #D6C88E",
"%	c #5A553F",
"&	c #403B2C",
"*	c #2A271C",
"=	c #1F1D16",
"-	c #000000",
";	c #807855",
">	c #070606",
",	c #0B0A0A",
"'	c #0F0D0D",
")	c #131111",
"   ..++@##   .+@#$#      ...+@##   ..+@%%%%&&***=@--------------",
"   ..++@##   .+@#$#       ..+@#$   ..=@%%;%&&***=@>>>->>>>>>>>>-",
"   ..++@##   .+@###       ...+@$   ..=@%%%&&&***=@,,>->>,,,,,,>-",
"  ...+@#$#  ..+@###       ...+@$   ..=@%;%&&&***=@,,>-->>,,',>>-",
"  ..++@#$   ..+@###       ...+@#   .*=@%;&&&&***=@,>>--->>,,,>--",
"  ..++@#$   ..+@####      ...+@##  .*=@%;&&&****=@>>-->--->>>>--",
" ...++@#$  ...+@####      ...+@#$ ..*=@$%&&&***==@-->>>>>-------",
" ...++@##  ..++@####      ...+@#$ .*=@%$%&&&***==@->>,,,,,>-->>>",
" ...+@##  ...++@#$##      ...+@##..*=@#$#&&&***=@-->,,',>>>->>>>",
"...++@#$  ...++@#$##      ...+@@#..*=@$# &&&***=@->>,',,>,>>,,>,",
"...++@#$  ...+@+@$##      ...+@@...==@$# &&****=@>>,,,,>>,>,,,>,",
"..++@##$ ....+@+@$##      ...+@@...=@#$# &&****=@>>,,,>>,>>,',>,",
"..++@#$# ...++@+@#$#      ...+@+@..=@#$   &***==@>>>,,>->,,,',>,",
".++@+@##...++@.+@#$#      ...+@+@.==@$#  &****=@=@->,,>->,''',>>",
".+@++@#....++@.+@#$#      ..++@.+@=@#$#  &****=@=@->>>>->,,,,,>>",
"++@.++@...++@#..@#$#     ...++@.+@=@#$#  &****=@=@------>>,,,>>-",
"+@..++@...++@#..+@$#     ..++@#..+@##$#  ****==@*=@------>>>>>->",
"@#...+@..++@##..+@#$#    ..++@##.+@##$#  ****==@*=@---------->>>",
"##...+@.++@#$#..+@#$#   ...++@##..+@#$# .****=@%**=@>>>------>,,",
"#$#..++@+@####...@#$#   ...+@## ..+@#$# ****==@%***=@,,>>>>>->>,",
"#$ ...+@+@#$#  ..+@$#   ..++@##  ..+@##.****=@%%***=@',,,,,>-->,",
"$# ...+@@##$#  ..+@##   ..++@$#  ..+@ ..***==@%%***=@''''',>-->>",
"#   ..+@###$   ..+@### ..++@#$#  ..+=@.****==@;%%**=@,,,,,,>->,,",
"#   ..+@##$#   ...@### ..++@#$   ...=@.****=@%;%%**=@>>>>>>>->,,",
"    ..+@##$     ..+@##...++@#$    ..==@***==@%%%&**=@-------->,,",
"    ...+@#$     ..+@#...++@#$#    ..==@***=@%;%&&**=@------->,,,",
"    ...+@#$     ...@....++@#$#    ..*=@**=@%;%%&&**=@>>>--->,,',",
"    ...+@#$     ...+@..++@##$#    ..*==@==@%;%&&&**=@>,>>-->>,',",
"    ...+@##      ..+@.+++@##$#    ..*==@=@%;%&&&&**=@,,,,>-->,,,",
"    ...+@##      ..+@.++@##$##    ..*==@=@%;%&&&&**=@''',>>->,,>",
"    ...+@##       ..+@++@##$#     ..**==@%;%&&&&&**=@''',,>->,,>",
"    ...+@##       ..++@@###$#     ..**==@%;%&&&&&**=@'',,>>-->,>",
"    ..++@##        ..+@######     ..**==@%%%&&&&&**@',,,>>--->>-",
"    ..++@##        ..++@#####     ..**==@%;%&&&&&*=@,,>>>-------",
"#   ..++@##        ...+@#####     ..**=@=@;%&&&&&*=@>>>---->>>->",
"#   ..+@#$#        ...++@##$#     ..**=@=@%;&&&&&*=@------>>,-->",
"#  ...+@#$#        ...++@##$#     ..*==@*@%;%&&&&*=@---->>,,,>->",
"$# ...+@#$#        ...++@##$#     ..*=@%*=@;%&&&**=@-->>>,,',>>-",
"$# ..++@##$        ...++@##$#     ..*=@%*=@%;%&&**=@-->,,,'',,>-",
"$# ..++@##$        ...++@@##$    ..*==@%*==@;%%***=@-->,''''',>-",
"#$#..++@##$#       ...++@+@#$    ..*=@#%**=@%%%***=@>->,''))',>-",
"@#...+@+@#$#       ...+@.+@#$#   ..*=@#%&*==@%****=@>->,,'''',>-",
"@#..++@.@#$#       ...+@..+@$#  ...*@#$&&*==@%***==@>>>>,,,',,>-",
"+@..++@.+@#$#     ....+@#.+@#$  ...=@#$ &**=@****=@,,>->>>,,,>>-",
"+@.+++@#+@#$#     ...++@#.+@#$  ..*=@#$ &**=@****=@>>>--->>>>>--",
"++@++@##+@#$##    ...+@## .@#$#...=@##$ &**==@**==@-------------",
"#+@++@##.+@#$#   ....+@#$ .+@#$...=@##$ &&*==@**==@>---------->>",
"#++@+@#$.+@##$   ...+@##$ .+@##..*=@##$ &&**=@**==@>>>>---->>>>>",
"# +@+@#$ .@##$# ....+@#$  .+@#...=@#### &&**=@*==@,,,,,>>-->>,,,",
"  +@@##$#.+@###.....@##$  .++@...=@#### &&**==@==@,''',,>>-->,,,",
"  .+@###$.+@###....+@#$   .++@...=@##$# &&&**=@==@,')'',,>-->>>,",
"   +@###$ .+@#.....+@#$  ..++@..=@+@#$# &&&**=@=@>,'))'',,>--->>",
"   .+@##$ .+@.....+@##$  ..++@..=@+@#$# &&&**==@@>,'''''',>--->,",
"   .+@##$ .+@.....+@#$   ..++@.+@.+@##$ &&&**==@@>,,,,'',,>--->,",
"   ..@###$..+@...+@##$   ..++@.=@..=@#$#&&&&**=@>->>>,,,,>>->>>>",
"    .+@##$ .+@...+@##$  ...+@.+@#..=@#$#&&&&**=@>--->>>>>>->>,,>",
"    .+@##$ ..+@.+@###   ...+@+@##..*@##;%&&&**==@------------>,,",
"    .+@##$ ..+@.@##$#   ...+@+@##...=@#;%&&&&*==@--->>>>>>>>>->,",
"    .++@##$..+@+@##$#   ...+@@### ..=@#%;%&&&**=@--->,,,,,,,>>->",
"    .++@##$..++@###$    ...+@#### ..=@#%;%&&&**=@--->,''''',,>->",
"    .++@##$ ..+@##$#     ..+@####  .*=@%%%&&&***=@-->,''',,,,>--",
"    .++@##$ ..+@##$#     ..+@####  ..=@%%;%&&***=@->,,,,,,>>>>--",
"    .++@##$ ..+@##$      ..+@###   ..=@%%;%&&***=@->>>>>>>>-----",
"    .++@###  .+@##$      ...+@##   ..+@%%%%&&***=@--------------"};
