/* XPM */
static char *Attack_31697129322[] = {
/* columns rows colors chars-per-pixel */
"192 96 23 1 ",
"  c None",
". c black",
"X c #060608",
"o c #141013",
"O c #221C1A",
"+ c #3B1725",
"@ c #322B28",
"# c #422433",
"$ c #5B3138",
"% c #71413B",
"& c #4A5462",
"* c #8E5252",
"= c #BB7547",
"- c #BA756A",
"; c #E86A73",
": c #DBA463",
"> c #D6F264",
", c #6D758D",
"< c #C7B08B",
"1 c #F5A097",
"2 c #E4D2AA",
"3 c #B3B9D1",
"4 c #DAE0EA",
/* pixels */
"                                                                                                                                                                                                ",
"                                                                                                                                                                                                ",
"                                                                                                                                                                                                ",
"                                                                                                                                                                                                ",
"                                                                                                                                                                                                ",
"                                                                                                                                                                                                ",
"                                                                                                                                                                                                ",
"                                                                                                                                                                                                ",
"                                                                                                                                                                                                ",
"                                                                                                                                                                                                ",
"                                                                                                                                                                                                ",
"                                                                                                                                                                                                ",
"                                                                                                                                                                                                ",
"                                                                                                                                                                                                ",
"                                                                                                                                                                                                ",
"                                                                                                                                                                                                ",
"                                                                                                                                                                                                ",
"                                                                                                                                                                                                ",
"                                                                                                                                                                                                ",
"                                                                                                                                                                                                ",
"                                                                                                                                                                                                ",
"                                                                                                                                                                                                ",
"                                                                                                                                                                                                ",
"                                                                                                                                                                                                ",
"                                                                                                                                                                                                ",
"                                                                                                                                                                                                ",
"                                                                                                                                                                                                ",
"                                                                                                                                                                                                ",
"                                                                                                                                                                                                ",
"                                                                                                                                                                                                ",
"                                                                                                                                                                                                ",
"                                                                                                                                                                                                ",
"                                                                                                                                                                                                ",
"                                                                                                                                                                                                ",
"                                                                                                                                                                                                ",
"                                                                                                                                                                                                ",
"                          XXXXXXX.                                                                                        XXXXXXX.                                                              ",
"                        XX--------XX                                                                                    XX--------XX                                                            ",
"                       X--********--X                                                                                  X--********--X                                                           ",
"                      X*************-X                                                                                X*************-X                                                          ",
"                     X$$*************-X                                                                              X$$*************-X                                                         ",
"                     X#$**************X                                                                              X#$**************X                                                         ",
"                    X$$##*******$$$$$X-X                                                                            X$$##*******$$$$$X-X                                                        ",
"                    X$$$$#*****$X*****XX                                                                            X$$$$#*****$X*****XX                                                        ",
"                  XXXX$$$$##**$X*$$$$**-X                                                                         XXXX$$$$##**$X*$$$$**-X                                                       ",
"                  X$$$XX$$$$#+X*$#XX+#$$-X                                                                        X$$$XX$$$$#+X*$#XX+#$$-X                                                      ",
"                  X*XX$$X###$$+X#X#+XX+#$X                                                                        X*XX$$X###$$+X#X#+XX+#$X                                                      ",
"                   X1;XX$X$$$$$$+$$X>XXXX                                                                          X1;XX$X$$$$$$+$$X>XXXX                                                       ",
"                   X*1;;X*$$$$*****$X#$*-X                                                                         X*1;;X*$$$$*****$X#$*-X                                                      ",
"                    X*111X*$$-******$#$*-X                                                                          X*111X*$$-******$#$*-X                                                      ",
"                    X*1XX$**+$-******#$**-X                                                                         X*1XX$**+$-******#$**-X                                                     ",
"                     X*$#+$*#+$-*****$##$*-X                                                                         X*$#+$*#+$-*****$##$*-X                                                    ",
"                     X$#X#$$*#+-***$$$XX+$$X                                                                         X$#X#$$*#+-***$$$XX+$$X                                                    ",
"                    X$XXX#$**$#+-*X$XX#+X#X                                                                         X$XXX#$**$#+-*X$XX#+X#X                                                     ",
"                    X*$#X#$***$#*X2X#$*$$X                                                                          X*$#X#$***$#*X2X#$*$$X                                                      ",
"                    X*$X#$*******X22X***$-X                                                                         X*$X#$*******X22X***$-X                                                     ",
"                   X*$#X#$******$X<2X***...                                                                        X*$#X#$******$X<2X***...                                                     ",
"                   .*#X#$$******$X<22X..222X                                                                       .*#X#$$******$X<22X..222X                                                    ",
"                 ..*$#X##$$*****$X<<2X22XXX-X              .................                                    ...*$#X##$$*****$X<<2X22XXX-X                                                   ",
"                .*.*$#X+##$$****$X<<<XXX****-X                                                                 .*$.*$#X+##$$****$X<<<XXX****-X                                                  ",
"               .*.**$##.+##$$$....<XX*****$$*.                                                                .*$.**$##.+##$$$$....XX*****$$*.                                                  ",
"               .*.**$$##.+#...----...X*$$XX#X                .....................                            .*$.**$$##.+##...----...X$$XX#X                 .....................             ",
"               .*.***###...---*****---X......................&&&&&&&&&&&&&&&&&&&&&.                           .*$.***$###...---*****---X......................&&&&&&&&&&&&&&&&&&&&&.            ",
"              .**.$*##..---***********----------------------*.&&&&&&&&&&&&&&&&&&&&.                          .**$.$*$##..---***********----------------------*.&&&&&&&&&&&&&&&&&&&&.            ",
"              .**.$*..--*************-***********************.,,,,,,,,,,,,,,,,,,,,.                          .**$.$**..--*************-***********************.,,,,,,,,,,,,,,,,,,,,.            ",
"             .**$.$**-**************-****************$$$$$$$$.,,,,,,,,,,,,,,,,,,,,.                         .**$$.$***-**************-****************$$$$$$$$.,,,,,,,,,,,,,,,,,,,,.            ",
"             .*.$.#$***************-**************$$$##......,,,,,,,,,,,,,,,,,,,,,.                         .*.$$.#$****************-**************$$$##......,,,,,,,,,,,,,,,,,,,,,.            ",
"             .*.#.#$**************-**********$$$$$##...      .4444444444444444444.                          .*.#$.#$***************-**********$$$$$##...      .4444444444444444444.             ",
"            .*$#..#$******************$$$$$$$####...         .3333333333333333333.                         .*$#.$.#$*******************$$$$$$$####...         .3333333333333333333.             ",
"            .*$#.#.$$***************$$##.........             ...................                          .*$#.#$.$$****************$$##.........             ...................              ",
"            .*$##..#$**************$#...&&&&&.                                                             .*$##.#.#$***************$#...&&&&.                                                  ",
"            .**$##.#$$************$#.##.&&&&&.                                                             .**$##..#$$*************$#.#.&&&&&.                                                  ",
"            .**$$##.#$************$#.#$.,,,,,.                              ..                             .**$$###.#$*************$#.#.,,,,,.                                                  ",
"            .***$$#.#$$***********$.##$.,,,,,.                          ....                               .***$$##.#$$***********$$.#$.,,,,,.                                                  ",
"            ..***$$#.#$$**********$###.,,,,,,.                      ....                                   ..***$$##.#$$**********$###.,,,,,,.                                                  ",
"              .......##$$*********$##$.44444.                   ....                                         ........##$$*********$##$.44444.                                                   ",
"                     .##$$$******$###.333333.                 ..                                                     .##$$$******$###.333333.                                                   ",
"                     ...###$$$$$$###$.......                                                                         ...###$$$$$$###$.......                                                    ",
"                     .oo......#####$.                                                                                .oo......#####$.                                                           ",
"                     .OOOOOooo.......                                                                                .OOOOOooo.......                                                           ",
"                     .@@@@OOOoooooo.@.                                                                               .@@@@OOOoooooo.@.                                                          ",
"                     .@@@@@OOooooo.@@.                                                                               .@@@@@OOooooo.@@.                                                          ",
"                     .@@@@@@OOoooo.@@@.                                                                              .@@@@@@OOoooo.@@@.                                                         ",
"                      .@@@@@OOooo.O@@@.                                                                               .@@@@@OOooo.O@@@.                                                         ",
"                      .@@@@@OOooo.O@@@@.                                                                              .@@@@@OOooo.O@@@@.                                                        ",
"                      .@@@@@OOoo.oOO@@@.                                                                              .@@@@@OOoo.oOO@@@.                                                        ",
"                       .@@@OOOoo.ooO@@..                                                                               .@@@OOOoo.ooO@@..                                                        ",
"                       .OOOOOoo.ooo...::.                                                                              .OOOOOoo.ooo...::.                                                       ",
"                      .:..OOooo..o.%==...                                                                             .:..OOooo..o.%==...                                                       ",
"                     .*.:=.ooo.  .%...**.                                                                            .*.:=.ooo.  .%...**.                                                       ",
"                    .***..=.oo.   .##$**.                                                                           .***..=.oo.   .##$**.                                                       ",
"                   .***$$#.%..    .##$$*.                                                                          .***$$#.%..    .##$$*.                                                       ",
"                   .**$$###.       .##$*.                                                                          .**$$###.       .##$*.                                                       ",
"                  .$$$###..        .##$*.                                                                         .$$$###..        .##$*.                                                       ",
"                  .$###..           .#$*.                                                                         .$###..           .#$*.                                                       ",
"                  .....              ...                                                                          .....              ...                                                        "
};
