/* XPM */
static char *Hurt1697129319[] = {
/* columns rows colors chars-per-pixel */
"192 96 23 1 ",
"  c None",
". c black",
"X c #060608",
"o c #141013",
"O c #221C1A",
"+ c #3B1725",
"@ c #322B28",
"# c #422433",
"$ c #5B3138",
"% c #71413B",
"& c #4A5462",
"* c #8E5252",
"= c #BB7547",
"- c #BA756A",
"; c #E86A73",
": c #DBA463",
"> c #D6F264",
", c #6D758D",
"< c #C7B08B",
"1 c #F5A097",
"2 c #E4D2AA",
"3 c #B3B9D1",
"4 c #DAE0EA",
/* pixels */
"                                                                                                                                                                                                ",
"                                                                                                                                                                                                ",
"                                                                                                                                                                                                ",
"                                                                                                                                                                                                ",
"                                                                                                                                                                                                ",
"                                                                                                                                                                                                ",
"                                                                                                                                                                                                ",
"                                                                                                                                                                                                ",
"                                                                                                                                                                                                ",
"                                                                                                                                                                                                ",
"                                                                                                                                                                                                ",
"                                                                                                                                                                                                ",
"                                                                                                                                                                                                ",
"                                                                                                                                                                                                ",
"                                                                                                                                                                                                ",
"                                                                                                                                                                                                ",
"                                                                                                                                                                                                ",
"                                                                                                                                                                                                ",
"                                                                                                                                                                                                ",
"                                                                                                                                                                                                ",
"                                                                                                                                                                                                ",
"                                                                                                                                                                                                ",
"                                                                                                                                                                                                ",
"                                                                                                                                                                                                ",
"                                                                                                                                                                                                ",
"                                                                                                                                                                                                ",
"                                                                                                                                                                                                ",
"                                                                                                                                                                                                ",
"                                                                                                                                                                                                ",
"                                                                                                                                                                                                ",
"                                                                                                                                                                                                ",
"                                                                                                                                                                                                ",
"                                                                                                                                                                                                ",
"                                                                                                                                                                                                ",
"                                                                                                                                                                                                ",
"                                              XXXXXXXX                                                                                       XXXXXXXX                                           ",
"                                           XXX**------XX                                                                                  XXX**------XX                                         ",
"                                         XX$**********--X                                                                               XX$**********--X                                        ",
"                                        X$$*************-X                                                                             X$$*************-X                                       ",
"                                        X$***************-X                                                                            X$***************-X                                      ",
"                                       X$$****************X                                                                           X$$****************X                                      ",
"                                       X#$$**************$$X                                                                          X#$$**************$$X                                     ",
"                                  X   X$$##$$*$$$$$$****$$$X                                                                     X   X$$##$$*$$$$$$****$$$X                                     ",
"                                 X*XX X$$$$#$$##*--X$$*$$#X-X                                                                   X*XX X$$$$#$$##*--X$$*$$#X-X                                    ",
"                                 X*X$XX$$#$$#X*****-X#$$#X**-X                                                                  X*X$XX$$#$$#X*****-X#$$#X**-X                                   ",
"                                 X*;X$$X#$##X**##$$***##***$#X                                                                  X*;X$$X#$##X**##$$***##***$#X                                   ",
"                                  X1;XX$X$$X**$XXX##$$X*X$#+X                                                                    X1;XX$X$$X**$XXX##$$X*X$#+X                                    ",
"                                  X*1;;X*$$*X$X#+XXX##X$X#XX#X                                                                   X*1;;X*$$*X$X#+XXX##X$X#XX#X                                   ",
"                                   X111X*$$**$$#X>X+XX*X*X>X#-X                                                                   X111X*$$**$$#X>X+XX*X*X>X#-X                                  ",
"                                   X*1X$**$-****$X#$#+***-X#$*X                                                                   X*1X$**$-****$X#$#+***-X#$*X                                  ",
"                                    X*$#$*+$-*****$#$+#$**-X*X                                                                     X*$#$*+$-*****$#$+#$**-X*X                                   ",
"                                    X$#X#$$+$-*****$.#X+#$$X*X                                                                     X$#X#$$+$-*****$.#X+#$$X*X                                   ",
"                                   X$XX#X$*#+$-*X*$.#$#XX#X*X  X                                                                  X$XX#X$*#+$-*X*$.#$#XX#X*X  X                                 ",
"                                  X-$$$#X$*$#+*X2X#X#**$#X#*X X2X                                                                X-$$$#X$*$#+*X2X#X#**$#X#*X X2X                                ",
"                                  X-*$#X#***$#$X2X+X$*$**$*$*XX2X                                                                X-*$#X#***$#$X2X+X$*$**$*$*XX2X                                ",
"                                 X-**$#X$****$*X2<X$***#***#*X<2X                                                               X-**$#X$****$*X2<X$***#***#*X<2X                                ",
"                                 X-**$X#$******X22<X$.......X<<2X                                                               X-**$X#$******X22<X$.......X<<2X                                ",
"                                X-**$$X#$$*****X22<<X<<<<<<<.<<<X                                                              X-**$$X#$$*****X22<<X<<<<<<<.<<<X                                ",
"                               X-***$$$X##$$****X2<<2XX.....XXXXX                                                             X-***$$$X##$$****X2<<2XX.....XXXXX                                ",
"                              X-****$$##XX#$$$X$X<<XX-*******$$*-X                                                           X-****$$##XX#$$$X$X<<XX-*******$$*-X                               ",
"                             X-*****$#*$##X#$X$*$XX-**$####$$X#$*X                                                          X-*****$#*$##X#$X$*$XX-**$####$$X#$*X                               ",
"                             X-****$$#*$$$#X#$#$****$$+.....$#X#$X                                                          X-****$$#*$$$#X#$#$****$$+.....$#X#$X                               ",
"                            X-*****$$#**$$$#X#X#$*$#XX$$$$$$$$#XX                                                          X-*****$$#**$$$#X#X#$*$#XX$$$$$$$$#XX                                ",
"                            X-****$$#$***$$$#X#X#$XX#$$$$$$$$$#X                                                           X-****$$#$***$$$#X#X#$XX#$$$$$$$$$#X                                 ",
"                            X-***$$##$*****$$X+#XX#$$$$$$$$$$#+X                                                           X-***$$##$*****$$X+#XX#$$$$$$$$$$#+X                                 ",
"                            X**$$##X$$******$$X+####$$$$$$$$$#X$.                                                          X**$$##X$$******$$X+####$$$$$$$$$#X$.                                ",
"                            .XXXXXX##$$******$X++++###$###$#++X$.                                                          .XXXXXX##$$******$X++++###$###$#++X$.                                ",
"                           .****$##XX#$********XXXX++++#X#++XX*X                                                          .****$##XX#$********XXXX++++#X#++XX*X                                 ",
"                           .****$#.##X#$********$$$XXXXX#XXX**$X                                                          .****$#.##X#$********$$$XXXXX#XXX**$X                                 ",
"                          .****$#.X##X#$$**************$$****$$X                                                         .****$#.X##X#$$**************$$****$$X                                 ",
"                          .****$#. X##X#$$*************$$***$$#X                                                         .****$#. X##X#$$*************$$***$$#X                                 ",
"                         .****$#.   X#X##$$$***********$***$$$#X                                                        .****$#.   X#X##$$$***********$***$$$#X                                 ",
"                         .***$$#.   X##X###$$$********$$$$$$##X                                                         .***$$#.   X##X###$$$********$$$$$$##X                                  ",
"                        .***$$#.    X###XX####$$$$**$$$$$###XX                                                         .***$$#.    X###XX####$$$$**$$$$$###XX                                   ",
"                        .***$#.     X#####XXX####$$$$$#$#XXX$X                                                         .***$#.     X#####XXX####$$$$$#$#XXX$X                                   ",
"                        .**$#.      X###$$###XXXXXXXX#XXX$$$*X                                                         .**$#.       X##$$###XXXXXXXX#XXX$$$*X                                   ",
"                        .**$#.      XXX##$$$$$$$$$$$$$$$$***XXXX                                                       .**$#.       XXX##$$$$$$$$$$$$$$$***XXXX                                 ",
"                        .*$#.       XooXX##$$$$$$$*********XoX&&XXXX                                                   .*$#.        XooXX##$$$$$$*********XoX&&XXXX                             ",
"                     X..**$#XXXX    XooooXX$$$$***********XooX&&&&&&XXXXXXXX                                        X..**$#XXXX     XooooXX$$$$**********XooX&&&&&&XXXXXXXX                     ",
"                    X%%.*$#X&&&&XXXXXooOOOOXXX*********XXXoOoX&&&&&&&&&&&&&X                                       X%%.*$#X&&&&XXXX XooOOOOXXX********XXXoOoX&&&&&&&&&&&&&X                     ",
"                    X%%.*$X,,&&&&&&&XXXX@@OoooXXXXXXXXXoooO@oX,,,,&&&&&&&&&X                                       X%%.*$X,,&&&&&&&XXXXO@@OoooXXXXXXXXXooO@oX,,,,&&&&&&&&&X                     ",
"                    X%X.$#X,,,&&&&&&&&&&XXXXXXooooooooOOOO@@@X,,,,,,,,,&&&&X                                       X%X.$#X,,,&&&&&&&&&&XXXXXXoooooooooOOOO@@@X,,,,,,,,&&&&X                     ",
"                     X .$#X4,,,,&&&&&&&&&&&&&XOooooooOOO@@@@@X4444,,,,,,,,&X                                        X .$#X4,,,,&&&&&&&&&&&&&X@OooooooOOO@@@@@X444,,,,,,,,&X                     ",
"                        ..X34,,,,,,&&&&&&&&&&XOOOooooOO@@@@@@X33334444,,,,X                                            ..X34,,,,,,&&&&&&&&&&X@OOOooooOO@@@@@@X3334444,,,,X                      ",
"                          X3344,,,,,,,,&&&&&&XOOooooooOO@@@@@XXXXX33334444X                                              X3344,,,,,,,,&&&&&&X@OOooooooOO@@@@@XXXX33334444X                      ",
"                           X33344444,,,,,,,,&XOoXXXXoooOOOOOOX    XXXX333X                                                X33344444,,,,,,,,&XOOoXXXXoooOOOOOOX   XXXX333X                       ",
"                            XXX333333444,,,,XOoX    XooooXXXXX        XXX                                                  XXX333333444,,,,XOOoX    XooooXXXXX       XXX                        ",
"                               XXXXX43334444XXoX     XoXX==::X                                                                XXXXX43334444XXXoX     XoXX==::X                                  ",
"                                    XXXX333X=%X      XX%=XXXXX                                                                     XXXX333X==%X      XX%=XXXXX                                  ",
"                                      X#XXXXX%X      X%XX$***X                                                                        XXXX*XX%X      X%XX$***X                                  ",
"                                      X##$***X        X##$***X                                                                        X##$***X        X##$***X                                  ",
"                                      X##$***X        X##$**X                                                                         X##$***X        X##$**X                                   ",
"                                       X#$***X        X##$$*X                                                                          X#$***X        X##$$*X                                   ",
"                                       X#$$*X          X##$*X                                                                          X#$$*X          X##$*X                                   ",
"                                       X##$*X          X##$*X                                                                          X##$*X          X##$*X                                   ",
"                                        XXXXX           XXXXX                                                                           XXXXX           XXXXX                                   "
};
